<?xml version="1.0" encoding="utf-8" standalone="no"?>
<!DOCTYPE svg PUBLIC "-//W3C//DTD SVG 1.1//EN"
  "http://www.w3.org/Graphics/SVG/1.1/DTD/svg11.dtd">
<!-- Created with matplotlib (http://matplotlib.org/) -->
<svg height="576pt" version="1.1" viewBox="0 0 1080 576" width="1080pt" xmlns="http://www.w3.org/2000/svg" xmlns:xlink="http://www.w3.org/1999/xlink">
 <defs>
  <style type="text/css">
*{stroke-linecap:butt;stroke-linejoin:round;}
  </style>
 </defs>
 <g id="figure_1">
  <g id="patch_1">
   <path d="M 0 576 
L 1080 576 
L 1080 0 
L 0 0 
z
" style="fill:#ffffff;"/>
  </g>
  <g id="axes_1">
   <g id="patch_2">
    <path d="M 135 184.32 
L 972 184.32 
L 972 69.12 
L 135 69.12 
z
" style="fill:#eaeaf2;"/>
   </g>
   <g id="matplotlib.axis_1">
    <g id="xtick_1">
     <g id="line2d_1">
      <path clip-path="url(#pc77a67efc6)" d="M 173.045455 184.32 
L 173.045455 69.12 
" style="fill:none;stroke:#ffffff;stroke-linecap:round;"/>
     </g>
     <g id="line2d_2"/>
    </g>
    <g id="xtick_2">
     <g id="line2d_3">
      <path clip-path="url(#pc77a67efc6)" d="M 299.863636 184.32 
L 299.863636 69.12 
" style="fill:none;stroke:#ffffff;stroke-linecap:round;"/>
     </g>
     <g id="line2d_4"/>
    </g>
    <g id="xtick_3">
     <g id="line2d_5">
      <path clip-path="url(#pc77a67efc6)" d="M 426.681818 184.32 
L 426.681818 69.12 
" style="fill:none;stroke:#ffffff;stroke-linecap:round;"/>
     </g>
     <g id="line2d_6"/>
    </g>
    <g id="xtick_4">
     <g id="line2d_7">
      <path clip-path="url(#pc77a67efc6)" d="M 553.5 184.32 
L 553.5 69.12 
" style="fill:none;stroke:#ffffff;stroke-linecap:round;"/>
     </g>
     <g id="line2d_8"/>
    </g>
    <g id="xtick_5">
     <g id="line2d_9">
      <path clip-path="url(#pc77a67efc6)" d="M 680.318182 184.32 
L 680.318182 69.12 
" style="fill:none;stroke:#ffffff;stroke-linecap:round;"/>
     </g>
     <g id="line2d_10"/>
    </g>
    <g id="xtick_6">
     <g id="line2d_11">
      <path clip-path="url(#pc77a67efc6)" d="M 807.136364 184.32 
L 807.136364 69.12 
" style="fill:none;stroke:#ffffff;stroke-linecap:round;"/>
     </g>
     <g id="line2d_12"/>
    </g>
    <g id="xtick_7">
     <g id="line2d_13">
      <path clip-path="url(#pc77a67efc6)" d="M 933.954545 184.32 
L 933.954545 69.12 
" style="fill:none;stroke:#ffffff;stroke-linecap:round;"/>
     </g>
     <g id="line2d_14"/>
    </g>
    <g id="xtick_8">
     <g id="line2d_15"/>
    </g>
    <g id="xtick_9">
     <g id="line2d_16"/>
    </g>
    <g id="xtick_10">
     <g id="line2d_17"/>
    </g>
    <g id="xtick_11">
     <g id="line2d_18"/>
    </g>
    <g id="xtick_12">
     <g id="line2d_19"/>
    </g>
    <g id="xtick_13">
     <g id="line2d_20"/>
    </g>
   </g>
   <g id="matplotlib.axis_2">
    <g id="ytick_1">
     <g id="line2d_21">
      <path clip-path="url(#pc77a67efc6)" d="M 135 165.622547 
L 972 165.622547 
" style="fill:none;stroke:#ffffff;stroke-linecap:round;"/>
     </g>
     <g id="line2d_22"/>
     <g id="text_1">
      <!-- 21 -->
      <defs>
       <path d="M 19.1875 8.296875 
L 53.609375 8.296875 
L 53.609375 0 
L 7.328125 0 
L 7.328125 8.296875 
Q 12.9375 14.109375 22.625 23.890625 
Q 32.328125 33.6875 34.8125 36.53125 
Q 39.546875 41.84375 41.421875 45.53125 
Q 43.3125 49.21875 43.3125 52.78125 
Q 43.3125 58.59375 39.234375 62.25 
Q 35.15625 65.921875 28.609375 65.921875 
Q 23.96875 65.921875 18.8125 64.3125 
Q 13.671875 62.703125 7.8125 59.421875 
L 7.8125 69.390625 
Q 13.765625 71.78125 18.9375 73 
Q 24.125 74.21875 28.421875 74.21875 
Q 39.75 74.21875 46.484375 68.546875 
Q 53.21875 62.890625 53.21875 53.421875 
Q 53.21875 48.921875 51.53125 44.890625 
Q 49.859375 40.875 45.40625 35.40625 
Q 44.1875 33.984375 37.640625 27.21875 
Q 31.109375 20.453125 19.1875 8.296875 
z
" id="DejaVuSans-32"/>
       <path d="M 12.40625 8.296875 
L 28.515625 8.296875 
L 28.515625 63.921875 
L 10.984375 60.40625 
L 10.984375 69.390625 
L 28.421875 72.90625 
L 38.28125 72.90625 
L 38.28125 8.296875 
L 54.390625 8.296875 
L 54.390625 0 
L 12.40625 0 
z
" id="DejaVuSans-31"/>
      </defs>
      <g style="fill:#262626;" transform="translate(102.55 173.220985)scale(0.2 -0.2)">
       <use xlink:href="#DejaVuSans-32"/>
       <use x="63.623047" xlink:href="#DejaVuSans-31"/>
      </g>
     </g>
    </g>
    <g id="ytick_2">
     <g id="line2d_23">
      <path clip-path="url(#pc77a67efc6)" d="M 135 138.700369 
L 972 138.700369 
" style="fill:none;stroke:#ffffff;stroke-linecap:round;"/>
     </g>
     <g id="line2d_24"/>
     <g id="text_2">
      <!-- 22 -->
      <g style="fill:#262626;" transform="translate(102.55 146.298807)scale(0.2 -0.2)">
       <use xlink:href="#DejaVuSans-32"/>
       <use x="63.623047" xlink:href="#DejaVuSans-32"/>
      </g>
     </g>
    </g>
    <g id="ytick_3">
     <g id="line2d_25">
      <path clip-path="url(#pc77a67efc6)" d="M 135 111.778191 
L 972 111.778191 
" style="fill:none;stroke:#ffffff;stroke-linecap:round;"/>
     </g>
     <g id="line2d_26"/>
     <g id="text_3">
      <!-- 23 -->
      <defs>
       <path d="M 40.578125 39.3125 
Q 47.65625 37.796875 51.625 33 
Q 55.609375 28.21875 55.609375 21.1875 
Q 55.609375 10.40625 48.1875 4.484375 
Q 40.765625 -1.421875 27.09375 -1.421875 
Q 22.515625 -1.421875 17.65625 -0.515625 
Q 12.796875 0.390625 7.625 2.203125 
L 7.625 11.71875 
Q 11.71875 9.328125 16.59375 8.109375 
Q 21.484375 6.890625 26.8125 6.890625 
Q 36.078125 6.890625 40.9375 10.546875 
Q 45.796875 14.203125 45.796875 21.1875 
Q 45.796875 27.640625 41.28125 31.265625 
Q 36.765625 34.90625 28.71875 34.90625 
L 20.21875 34.90625 
L 20.21875 43.015625 
L 29.109375 43.015625 
Q 36.375 43.015625 40.234375 45.921875 
Q 44.09375 48.828125 44.09375 54.296875 
Q 44.09375 59.90625 40.109375 62.90625 
Q 36.140625 65.921875 28.71875 65.921875 
Q 24.65625 65.921875 20.015625 65.03125 
Q 15.375 64.15625 9.8125 62.3125 
L 9.8125 71.09375 
Q 15.4375 72.65625 20.34375 73.4375 
Q 25.25 74.21875 29.59375 74.21875 
Q 40.828125 74.21875 47.359375 69.109375 
Q 53.90625 64.015625 53.90625 55.328125 
Q 53.90625 49.265625 50.4375 45.09375 
Q 46.96875 40.921875 40.578125 39.3125 
z
" id="DejaVuSans-33"/>
      </defs>
      <g style="fill:#262626;" transform="translate(102.55 119.376629)scale(0.2 -0.2)">
       <use xlink:href="#DejaVuSans-32"/>
       <use x="63.623047" xlink:href="#DejaVuSans-33"/>
      </g>
     </g>
    </g>
    <g id="ytick_4">
     <g id="line2d_27">
      <path clip-path="url(#pc77a67efc6)" d="M 135 84.856013 
L 972 84.856013 
" style="fill:none;stroke:#ffffff;stroke-linecap:round;"/>
     </g>
     <g id="line2d_28"/>
     <g id="text_4">
      <!-- 24 -->
      <defs>
       <path d="M 37.796875 64.3125 
L 12.890625 25.390625 
L 37.796875 25.390625 
z
M 35.203125 72.90625 
L 47.609375 72.90625 
L 47.609375 25.390625 
L 58.015625 25.390625 
L 58.015625 17.1875 
L 47.609375 17.1875 
L 47.609375 0 
L 37.796875 0 
L 37.796875 17.1875 
L 4.890625 17.1875 
L 4.890625 26.703125 
z
" id="DejaVuSans-34"/>
      </defs>
      <g style="fill:#262626;" transform="translate(102.55 92.454451)scale(0.2 -0.2)">
       <use xlink:href="#DejaVuSans-32"/>
       <use x="63.623047" xlink:href="#DejaVuSans-34"/>
      </g>
     </g>
    </g>
   </g>
   <g id="line2d_29">
    <path clip-path="url(#pc77a67efc6)" d="M 173.045455 177.737527 
L 174.102273 179.083636 
L 178.329545 179.083636 
L 179.386364 177.737527 
L 180.443182 179.083636 
L 185.727273 179.083636 
L 186.784091 178.410582 
L 187.840909 179.083636 
L 199.465909 179.083636 
L 200.505114 177.737527 
L 201.579545 177.737527 
L 202.61875 176.391419 
L 203.675568 177.737527 
L 204.75 176.391419 
L 206.863636 176.391419 
L 207.920455 177.737527 
L 208.977273 176.391419 
L 210.016477 178.18623 
L 211.090909 176.391419 
L 212.147727 176.391419 
L 214.24375 179.083636 
L 215.318182 177.737527 
L 216.357386 177.737527 
L 217.414205 179.083636 
L 218.488636 179.083636 
L 219.545455 177.737527 
L 220.602273 179.083636 
L 244.909091 179.083636 
L 245.965909 177.737527 
L 247.022727 177.737527 
L 248.061932 179.083636 
L 249.136364 176.391419 
L 250.175568 177.737527 
L 251.232386 177.288824 
L 252.306818 176.391419 
L 259.704545 176.391419 
L 260.761364 177.064473 
L 261.800568 176.391419 
L 262.875 176.391419 
L 263.914204 177.288824 
L 264.971023 176.391419 
L 273.443182 176.391419 
L 274.5 175.494013 
L 275.556818 175.718364 
L 276.613636 174.596607 
L 277.652841 173.699201 
L 278.709659 174.596607 
L 279.784091 173.699201 
L 285.050568 173.699201 
L 286.125 172.487703 
L 287.181818 172.487703 
L 288.238636 171.276205 
L 289.295455 169.481393 
L 291.391477 167.843627 
L 292.465909 165.622547 
L 293.522727 165.622547 
L 295.61875 162.93033 
L 296.693182 160.238112 
L 297.732386 161.584221 
L 299.863636 159.026614 
L 300.920455 158.420865 
L 301.977273 156.469007 
L 303.034091 156.469007 
L 304.090909 155.122898 
L 306.204545 153.642178 
L 308.318182 150.815349 
L 309.357386 150.142295 
L 310.431818 148.796186 
L 311.471023 146.777023 
L 312.527841 146.777023 
L 313.602273 146.171274 
L 314.659091 144.354027 
L 316.772727 143.007918 
L 317.811932 141.661809 
L 318.86875 141.661809 
L 319.943182 138.700369 
L 322.056818 138.700369 
L 323.113636 136.008151 
L 325.209659 136.008151 
L 326.266477 134.931264 
L 327.340909 133.315934 
L 328.397727 132.710185 
L 329.454545 131.700603 
L 331.550568 130.219883 
L 332.607386 129.546829 
L 333.681818 128.20072 
L 334.738636 128.133414 
L 335.795455 127.46036 
L 336.852273 125.23928 
L 338.948296 125.23928 
L 340.022727 122.547062 
L 343.175568 122.547062 
L 344.25 120.527899 
L 345.289205 119.854845 
L 347.420455 119.854845 
L 348.477273 117.916448 
L 349.534091 117.431849 
L 350.590909 117.431849 
L 351.647727 114.739631 
L 352.686932 115.412685 
L 353.761364 115.637037 
L 354.818182 114.739631 
L 361.159091 114.739631 
L 362.215909 113.258911 
L 363.272727 113.752484 
L 364.329545 113.999271 
L 365.36875 113.999271 
L 366.425568 112.518551 
L 367.5 111.778191 
L 369.613636 111.778191 
L 371.727273 109.085973 
L 373.823295 109.085973 
L 374.897727 106.393756 
L 375.954545 107.06681 
L 377.011364 104.778425 
L 378.068182 103.297705 
L 379.107386 100.291395 
L 380.164204 99.304249 
L 381.238636 97.644048 
L 382.295455 97.644048 
L 383.352273 96.297939 
L 384.409091 97.419696 
L 385.465909 96.970993 
L 386.505114 96.970993 
L 387.579545 98.317102 
L 388.636364 97.644048 
L 389.693182 98.317102 
L 390.732386 96.970993 
L 391.806818 98.317102 
L 392.846023 95.624884 
L 397.090909 95.624884 
L 398.147727 94.278775 
L 399.204545 94.95183 
L 400.24375 92.932667 
L 401.318182 93.830072 
L 402.375 93.605721 
L 403.431818 93.605721 
L 404.471023 92.932667 
L 406.584659 92.932667 
L 407.641477 92.326918 
L 408.715909 92.932667 
L 409.772727 92.326918 
L 410.829545 92.326918 
L 411.886364 90.50967 
L 417.170455 90.50967 
L 418.227273 89.836616 
L 419.284091 87.817453 
L 420.323295 88.490507 
L 421.380114 87.817453 
L 424.568182 87.817453 
L 425.625 85.84316 
L 426.664204 87.077093 
L 427.721023 85.596373 
L 428.795455 85.84316 
L 429.852273 86.336733 
L 431.965909 86.336733 
L 433.022727 84.856013 
L 437.25 84.856013 
L 438.289205 83.509904 
L 439.363636 83.509904 
L 440.402841 83.061201 
L 441.459659 82.83685 
L 442.534091 82.83685 
L 443.590909 82.163795 
L 464.727273 82.163795 
L 465.784091 83.958607 
L 466.840909 83.509904 
L 467.880114 83.958607 
L 468.936932 82.163795 
L 470.011364 84.182959 
L 471.068182 84.856013 
L 473.181818 84.856013 
L 474.221023 87.817453 
L 475.277841 87.077093 
L 476.352273 87.077093 
L 477.409091 85.84316 
L 478.465909 85.84316 
L 479.522727 84.856013 
L 480.579545 85.84316 
L 481.61875 85.84316 
L 482.693182 86.830306 
L 483.75 86.336733 
L 484.806818 84.856013 
L 486.920455 86.336733 
L 487.959659 86.336733 
L 490.090909 84.856013 
L 497.488636 84.856013 
L 498.545455 84.182959 
L 499.584659 84.856013 
L 500.659091 83.509904 
L 501.698295 82.83685 
L 502.755114 83.958607 
L 503.829545 82.83685 
L 504.886364 82.163795 
L 508.039205 82.163795 
L 509.096023 81.490741 
L 510.170455 82.163795 
L 512.284091 82.163795 
L 514.397727 79.471577 
L 515.436932 79.471577 
L 516.49375 81.086908 
L 517.568182 80.144632 
L 518.625 81.266389 
L 520.738636 79.471577 
L 523.909091 79.471577 
L 524.965909 78.663912 
L 526.022727 79.471577 
L 531.306818 79.471577 
L 532.363636 80.144632 
L 533.402841 79.471577 
L 534.477273 79.471577 
L 535.516477 77.048581 
L 536.573295 76.375527 
L 537.647727 75.25377 
L 538.704545 74.356364 
L 540.818182 74.356364 
L 541.875 75.25377 
L 542.914204 77.048581 
L 543.988636 76.375527 
L 545.045455 77.048581 
L 546.102273 75.702473 
L 547.141477 76.151176 
L 548.215909 77.048581 
L 549.255114 74.356364 
L 550.311932 75.702473 
L 551.386364 74.356364 
L 553.5 76.151176 
L 554.556818 76.375527 
L 555.596023 75.702473 
L 556.652841 77.048581 
L 565.125 77.048581 
L 566.181818 78.502379 
L 567.238636 77.048581 
L 568.295455 78.865828 
L 569.334659 79.471577 
L 594.698295 79.471577 
L 595.772727 80.144632 
L 596.811932 82.163795 
L 597.86875 80.817686 
L 598.943182 82.163795 
L 602.113636 82.163795 
L 603.152841 83.061201 
L 604.209659 82.163795 
L 605.284091 82.83685 
L 606.340909 84.856013 
L 607.397727 84.856013 
L 608.454545 84.182959 
L 609.511364 84.856013 
L 614.795455 84.856013 
L 615.852273 86.336733 
L 616.891477 85.84316 
L 617.948295 86.336733 
L 619.022727 87.817453 
L 627.477273 87.817453 
L 628.516477 88.714859 
L 629.590909 88.355896 
L 630.630114 89.836616 
L 631.686932 90.50967 
L 632.761364 89.163562 
L 633.818182 90.50967 
L 642.255114 90.50967 
L 644.36875 91.721168 
L 645.425568 91.115419 
L 646.5 92.932667 
L 647.556818 92.326918 
L 648.613636 92.932667 
L 651.766477 92.932667 
L 652.840909 95.624884 
L 656.011364 95.624884 
L 657.068182 97.644048 
L 658.107386 98.317102 
L 659.164204 101.278542 
L 660.238636 101.278542 
L 662.352273 103.97076 
L 664.448295 103.97076 
L 665.505114 106.393756 
L 673.977273 106.393756 
L 675.034091 107.291161 
L 676.073295 107.291161 
L 677.147727 107.739864 
L 678.186932 107.739864 
L 679.24375 109.085973 
L 683.488636 109.085973 
L 684.545455 110.432082 
L 685.584659 110.880785 
L 686.659091 111.778191 
L 692.982386 111.778191 
L 694.056818 113.258911 
L 695.113636 113.258911 
L 696.170455 114.739631 
L 705.664204 114.739631 
L 706.721023 117.431849 
L 709.909091 117.431849 
L 710.965909 118.643347 
L 712.005114 118.239514 
L 713.061932 118.643347 
L 714.136364 119.854845 
L 721.534091 119.854845 
L 722.590909 122.547062 
L 736.329545 122.547062 
L 737.36875 123.893171 
L 738.443182 123.444468 
L 739.482386 125.23928 
L 740.539205 125.23928 
L 741.613636 126.72 
L 742.670455 125.23928 
L 745.823295 125.23928 
L 746.880114 128.20072 
L 747.954545 125.23928 
L 749.011364 128.20072 
L 754.277841 128.20072 
L 755.352273 128.873774 
L 756.409091 128.873774 
L 757.465909 129.546829 
L 758.522727 130.892938 
L 759.561932 130.892938 
L 760.61875 130.219883 
L 761.693182 130.892938 
L 762.75 129.995532 
L 763.806818 130.892938 
L 764.863636 130.219883 
L 765.920455 130.892938 
L 771.186932 130.892938 
L 772.261364 131.498687 
L 773.300568 131.498687 
L 774.357386 132.508268 
L 776.488636 130.892938 
L 778.602273 133.315934 
L 779.659091 132.710185 
L 780.698295 132.710185 
L 781.772727 133.315934 
L 789.170455 133.315934 
L 790.227273 134.21334 
L 791.284091 133.988988 
L 792.340909 135.110746 
L 793.380114 136.008151 
L 794.436932 134.662043 
L 795.511364 134.662043 
L 796.568182 136.008151 
L 800.777841 136.008151 
L 801.834659 136.681206 
L 802.909091 136.681206 
L 803.965909 136.008151 
L 805.022727 136.008151 
L 806.079545 136.681206 
L 807.11875 138.700369 
L 808.175568 137.802963 
L 809.25 137.35426 
L 810.306818 138.700369 
L 814.516477 138.700369 
L 815.590909 139.687516 
L 816.647727 138.700369 
L 820.857386 138.700369 
L 821.914204 139.440729 
L 822.988636 139.440729 
L 824.045455 141.661809 
L 825.102273 140.181089 
L 826.159091 139.440729 
L 827.215909 140.181089 
L 828.255114 138.700369 
L 835.652841 138.700369 
L 837.784091 140.181089 
L 838.840909 138.700369 
L 845.181818 138.700369 
L 846.238636 139.687516 
L 847.295455 140.921449 
L 848.334659 140.921449 
L 849.391477 140.181089 
L 850.465909 141.661809 
L 851.522727 140.921449 
L 852.579545 141.661809 
L 894.852273 141.661809 
L 895.891477 143.007918 
L 896.948295 143.007918 
L 898.022727 143.456621 
L 899.079545 144.354027 
L 904.363636 144.354027 
L 905.420455 145.565525 
L 906.477273 144.354027 
L 907.534091 144.354027 
L 909.630114 146.777023 
L 918.102273 146.777023 
L 919.159091 147.674429 
L 920.215909 146.777023 
L 921.272727 149.46924 
L 922.329545 146.777023 
L 924.443182 149.46924 
L 930.766477 149.46924 
L 931.840909 150.366646 
L 932.897727 152.161458 
L 933.954545 152.161458 
L 933.954545 152.161458 
" style="fill:none;stroke:#003fff;stroke-linecap:round;stroke-width:5;"/>
   </g>
   <g id="patch_3">
    <path d="M 135 184.32 
L 135 69.12 
" style="fill:none;"/>
   </g>
   <g id="patch_4">
    <path d="M 972 184.32 
L 972 69.12 
" style="fill:none;"/>
   </g>
   <g id="patch_5">
    <path d="M 135 184.32 
L 972 184.32 
" style="fill:none;"/>
   </g>
   <g id="patch_6">
    <path d="M 135 69.12 
L 972 69.12 
" style="fill:none;"/>
   </g>
   <g id="legend_1">
    <g id="line2d_30">
     <path d="M 869.765625 82.218438 
L 889.765625 82.218438 
" style="fill:none;stroke:#003fff;stroke-linecap:round;stroke-width:5;"/>
    </g>
    <g id="line2d_31"/>
    <g id="text_5">
     <!-- Temperature -->
     <defs>
      <path d="M -0.296875 72.90625 
L 61.375 72.90625 
L 61.375 64.59375 
L 35.5 64.59375 
L 35.5 0 
L 25.59375 0 
L 25.59375 64.59375 
L -0.296875 64.59375 
z
" id="DejaVuSans-54"/>
      <path d="M 56.203125 29.59375 
L 56.203125 25.203125 
L 14.890625 25.203125 
Q 15.484375 15.921875 20.484375 11.0625 
Q 25.484375 6.203125 34.421875 6.203125 
Q 39.59375 6.203125 44.453125 7.46875 
Q 49.3125 8.734375 54.109375 11.28125 
L 54.109375 2.78125 
Q 49.265625 0.734375 44.1875 -0.34375 
Q 39.109375 -1.421875 33.890625 -1.421875 
Q 20.796875 -1.421875 13.15625 6.1875 
Q 5.515625 13.8125 5.515625 26.8125 
Q 5.515625 40.234375 12.765625 48.109375 
Q 20.015625 56 32.328125 56 
Q 43.359375 56 49.78125 48.890625 
Q 56.203125 41.796875 56.203125 29.59375 
z
M 47.21875 32.234375 
Q 47.125 39.59375 43.09375 43.984375 
Q 39.0625 48.390625 32.421875 48.390625 
Q 24.90625 48.390625 20.390625 44.140625 
Q 15.875 39.890625 15.1875 32.171875 
z
" id="DejaVuSans-65"/>
      <path d="M 52 44.1875 
Q 55.375 50.25 60.0625 53.125 
Q 64.75 56 71.09375 56 
Q 79.640625 56 84.28125 50.015625 
Q 88.921875 44.046875 88.921875 33.015625 
L 88.921875 0 
L 79.890625 0 
L 79.890625 32.71875 
Q 79.890625 40.578125 77.09375 44.375 
Q 74.3125 48.1875 68.609375 48.1875 
Q 61.625 48.1875 57.5625 43.546875 
Q 53.515625 38.921875 53.515625 30.90625 
L 53.515625 0 
L 44.484375 0 
L 44.484375 32.71875 
Q 44.484375 40.625 41.703125 44.40625 
Q 38.921875 48.1875 33.109375 48.1875 
Q 26.21875 48.1875 22.15625 43.53125 
Q 18.109375 38.875 18.109375 30.90625 
L 18.109375 0 
L 9.078125 0 
L 9.078125 54.6875 
L 18.109375 54.6875 
L 18.109375 46.1875 
Q 21.1875 51.21875 25.484375 53.609375 
Q 29.78125 56 35.6875 56 
Q 41.65625 56 45.828125 52.96875 
Q 50 49.953125 52 44.1875 
z
" id="DejaVuSans-6d"/>
      <path d="M 18.109375 8.203125 
L 18.109375 -20.796875 
L 9.078125 -20.796875 
L 9.078125 54.6875 
L 18.109375 54.6875 
L 18.109375 46.390625 
Q 20.953125 51.265625 25.265625 53.625 
Q 29.59375 56 35.59375 56 
Q 45.5625 56 51.78125 48.09375 
Q 58.015625 40.1875 58.015625 27.296875 
Q 58.015625 14.40625 51.78125 6.484375 
Q 45.5625 -1.421875 35.59375 -1.421875 
Q 29.59375 -1.421875 25.265625 0.953125 
Q 20.953125 3.328125 18.109375 8.203125 
z
M 48.6875 27.296875 
Q 48.6875 37.203125 44.609375 42.84375 
Q 40.53125 48.484375 33.40625 48.484375 
Q 26.265625 48.484375 22.1875 42.84375 
Q 18.109375 37.203125 18.109375 27.296875 
Q 18.109375 17.390625 22.1875 11.75 
Q 26.265625 6.109375 33.40625 6.109375 
Q 40.53125 6.109375 44.609375 11.75 
Q 48.6875 17.390625 48.6875 27.296875 
z
" id="DejaVuSans-70"/>
      <path d="M 41.109375 46.296875 
Q 39.59375 47.171875 37.8125 47.578125 
Q 36.03125 48 33.890625 48 
Q 26.265625 48 22.1875 43.046875 
Q 18.109375 38.09375 18.109375 28.8125 
L 18.109375 0 
L 9.078125 0 
L 9.078125 54.6875 
L 18.109375 54.6875 
L 18.109375 46.1875 
Q 20.953125 51.171875 25.484375 53.578125 
Q 30.03125 56 36.53125 56 
Q 37.453125 56 38.578125 55.875 
Q 39.703125 55.765625 41.0625 55.515625 
z
" id="DejaVuSans-72"/>
      <path d="M 34.28125 27.484375 
Q 23.390625 27.484375 19.1875 25 
Q 14.984375 22.515625 14.984375 16.5 
Q 14.984375 11.71875 18.140625 8.90625 
Q 21.296875 6.109375 26.703125 6.109375 
Q 34.1875 6.109375 38.703125 11.40625 
Q 43.21875 16.703125 43.21875 25.484375 
L 43.21875 27.484375 
z
M 52.203125 31.203125 
L 52.203125 0 
L 43.21875 0 
L 43.21875 8.296875 
Q 40.140625 3.328125 35.546875 0.953125 
Q 30.953125 -1.421875 24.3125 -1.421875 
Q 15.921875 -1.421875 10.953125 3.296875 
Q 6 8.015625 6 15.921875 
Q 6 25.140625 12.171875 29.828125 
Q 18.359375 34.515625 30.609375 34.515625 
L 43.21875 34.515625 
L 43.21875 35.40625 
Q 43.21875 41.609375 39.140625 45 
Q 35.0625 48.390625 27.6875 48.390625 
Q 23 48.390625 18.546875 47.265625 
Q 14.109375 46.140625 10.015625 43.890625 
L 10.015625 52.203125 
Q 14.9375 54.109375 19.578125 55.046875 
Q 24.21875 56 28.609375 56 
Q 40.484375 56 46.34375 49.84375 
Q 52.203125 43.703125 52.203125 31.203125 
z
" id="DejaVuSans-61"/>
      <path d="M 18.3125 70.21875 
L 18.3125 54.6875 
L 36.8125 54.6875 
L 36.8125 47.703125 
L 18.3125 47.703125 
L 18.3125 18.015625 
Q 18.3125 11.328125 20.140625 9.421875 
Q 21.96875 7.515625 27.59375 7.515625 
L 36.8125 7.515625 
L 36.8125 0 
L 27.59375 0 
Q 17.1875 0 13.234375 3.875 
Q 9.28125 7.765625 9.28125 18.015625 
L 9.28125 47.703125 
L 2.6875 47.703125 
L 2.6875 54.6875 
L 9.28125 54.6875 
L 9.28125 70.21875 
z
" id="DejaVuSans-74"/>
      <path d="M 8.5 21.578125 
L 8.5 54.6875 
L 17.484375 54.6875 
L 17.484375 21.921875 
Q 17.484375 14.15625 20.5 10.265625 
Q 23.53125 6.390625 29.59375 6.390625 
Q 36.859375 6.390625 41.078125 11.03125 
Q 45.3125 15.671875 45.3125 23.6875 
L 45.3125 54.6875 
L 54.296875 54.6875 
L 54.296875 0 
L 45.3125 0 
L 45.3125 8.40625 
Q 42.046875 3.421875 37.71875 1 
Q 33.40625 -1.421875 27.6875 -1.421875 
Q 18.265625 -1.421875 13.375 4.4375 
Q 8.5 10.296875 8.5 21.578125 
z
M 31.109375 56 
z
" id="DejaVuSans-75"/>
     </defs>
     <g style="fill:#262626;" transform="translate(897.765625 85.718438)scale(0.1 -0.1)">
      <use xlink:href="#DejaVuSans-54"/>
      <use x="60.818359" xlink:href="#DejaVuSans-65"/>
      <use x="122.341797" xlink:href="#DejaVuSans-6d"/>
      <use x="219.753906" xlink:href="#DejaVuSans-70"/>
      <use x="283.230469" xlink:href="#DejaVuSans-65"/>
      <use x="344.753906" xlink:href="#DejaVuSans-72"/>
      <use x="385.867188" xlink:href="#DejaVuSans-61"/>
      <use x="447.146484" xlink:href="#DejaVuSans-74"/>
      <use x="486.355469" xlink:href="#DejaVuSans-75"/>
      <use x="549.734375" xlink:href="#DejaVuSans-72"/>
      <use x="590.816406" xlink:href="#DejaVuSans-65"/>
     </g>
    </g>
   </g>
  </g>
  <g id="axes_2">
   <g id="patch_7">
    <path d="M 135 322.56 
L 972 322.56 
L 972 207.36 
L 135 207.36 
z
" style="fill:#eaeaf2;"/>
   </g>
   <g id="matplotlib.axis_3">
    <g id="xtick_14">
     <g id="line2d_32">
      <path clip-path="url(#p4f62f0b6eb)" d="M 173.045455 322.56 
L 173.045455 207.36 
" style="fill:none;stroke:#ffffff;stroke-linecap:round;"/>
     </g>
     <g id="line2d_33"/>
    </g>
    <g id="xtick_15">
     <g id="line2d_34">
      <path clip-path="url(#p4f62f0b6eb)" d="M 299.863636 322.56 
L 299.863636 207.36 
" style="fill:none;stroke:#ffffff;stroke-linecap:round;"/>
     </g>
     <g id="line2d_35"/>
    </g>
    <g id="xtick_16">
     <g id="line2d_36">
      <path clip-path="url(#p4f62f0b6eb)" d="M 426.681818 322.56 
L 426.681818 207.36 
" style="fill:none;stroke:#ffffff;stroke-linecap:round;"/>
     </g>
     <g id="line2d_37"/>
    </g>
    <g id="xtick_17">
     <g id="line2d_38">
      <path clip-path="url(#p4f62f0b6eb)" d="M 553.5 322.56 
L 553.5 207.36 
" style="fill:none;stroke:#ffffff;stroke-linecap:round;"/>
     </g>
     <g id="line2d_39"/>
    </g>
    <g id="xtick_18">
     <g id="line2d_40">
      <path clip-path="url(#p4f62f0b6eb)" d="M 680.318182 322.56 
L 680.318182 207.36 
" style="fill:none;stroke:#ffffff;stroke-linecap:round;"/>
     </g>
     <g id="line2d_41"/>
    </g>
    <g id="xtick_19">
     <g id="line2d_42">
      <path clip-path="url(#p4f62f0b6eb)" d="M 807.136364 322.56 
L 807.136364 207.36 
" style="fill:none;stroke:#ffffff;stroke-linecap:round;"/>
     </g>
     <g id="line2d_43"/>
    </g>
    <g id="xtick_20">
     <g id="line2d_44">
      <path clip-path="url(#p4f62f0b6eb)" d="M 933.954545 322.56 
L 933.954545 207.36 
" style="fill:none;stroke:#ffffff;stroke-linecap:round;"/>
     </g>
     <g id="line2d_45"/>
    </g>
    <g id="xtick_21">
     <g id="line2d_46"/>
    </g>
    <g id="xtick_22">
     <g id="line2d_47"/>
    </g>
    <g id="xtick_23">
     <g id="line2d_48"/>
    </g>
    <g id="xtick_24">
     <g id="line2d_49"/>
    </g>
    <g id="xtick_25">
     <g id="line2d_50"/>
    </g>
    <g id="xtick_26">
     <g id="line2d_51"/>
    </g>
   </g>
   <g id="matplotlib.axis_4">
    <g id="ytick_5">
     <g id="line2d_52">
      <path clip-path="url(#p4f62f0b6eb)" d="M 135 315.205557 
L 972 315.205557 
" style="fill:none;stroke:#ffffff;stroke-linecap:round;"/>
     </g>
     <g id="line2d_53"/>
     <g id="text_6">
      <!-- 22 -->
      <g style="fill:#262626;" transform="translate(102.55 322.803994)scale(0.2 -0.2)">
       <use xlink:href="#DejaVuSans-32"/>
       <use x="63.623047" xlink:href="#DejaVuSans-32"/>
      </g>
     </g>
    </g>
    <g id="ytick_6">
     <g id="line2d_54">
      <path clip-path="url(#p4f62f0b6eb)" d="M 135 283.826599 
L 972 283.826599 
" style="fill:none;stroke:#ffffff;stroke-linecap:round;"/>
     </g>
     <g id="line2d_55"/>
     <g id="text_7">
      <!-- 24 -->
      <g style="fill:#262626;" transform="translate(102.55 291.425036)scale(0.2 -0.2)">
       <use xlink:href="#DejaVuSans-32"/>
       <use x="63.623047" xlink:href="#DejaVuSans-34"/>
      </g>
     </g>
    </g>
    <g id="ytick_7">
     <g id="line2d_56">
      <path clip-path="url(#p4f62f0b6eb)" d="M 135 252.44764 
L 972 252.44764 
" style="fill:none;stroke:#ffffff;stroke-linecap:round;"/>
     </g>
     <g id="line2d_57"/>
     <g id="text_8">
      <!-- 26 -->
      <defs>
       <path d="M 33.015625 40.375 
Q 26.375 40.375 22.484375 35.828125 
Q 18.609375 31.296875 18.609375 23.390625 
Q 18.609375 15.53125 22.484375 10.953125 
Q 26.375 6.390625 33.015625 6.390625 
Q 39.65625 6.390625 43.53125 10.953125 
Q 47.40625 15.53125 47.40625 23.390625 
Q 47.40625 31.296875 43.53125 35.828125 
Q 39.65625 40.375 33.015625 40.375 
z
M 52.59375 71.296875 
L 52.59375 62.3125 
Q 48.875 64.0625 45.09375 64.984375 
Q 41.3125 65.921875 37.59375 65.921875 
Q 27.828125 65.921875 22.671875 59.328125 
Q 17.53125 52.734375 16.796875 39.40625 
Q 19.671875 43.65625 24.015625 45.921875 
Q 28.375 48.1875 33.59375 48.1875 
Q 44.578125 48.1875 50.953125 41.515625 
Q 57.328125 34.859375 57.328125 23.390625 
Q 57.328125 12.15625 50.6875 5.359375 
Q 44.046875 -1.421875 33.015625 -1.421875 
Q 20.359375 -1.421875 13.671875 8.265625 
Q 6.984375 17.96875 6.984375 36.375 
Q 6.984375 53.65625 15.1875 63.9375 
Q 23.390625 74.21875 37.203125 74.21875 
Q 40.921875 74.21875 44.703125 73.484375 
Q 48.484375 72.75 52.59375 71.296875 
z
" id="DejaVuSans-36"/>
      </defs>
      <g style="fill:#262626;" transform="translate(102.55 260.046078)scale(0.2 -0.2)">
       <use xlink:href="#DejaVuSans-32"/>
       <use x="63.623047" xlink:href="#DejaVuSans-36"/>
      </g>
     </g>
    </g>
    <g id="ytick_8">
     <g id="line2d_58">
      <path clip-path="url(#p4f62f0b6eb)" d="M 135 221.068682 
L 972 221.068682 
" style="fill:none;stroke:#ffffff;stroke-linecap:round;"/>
     </g>
     <g id="line2d_59"/>
     <g id="text_9">
      <!-- 28 -->
      <defs>
       <path d="M 31.78125 34.625 
Q 24.75 34.625 20.71875 30.859375 
Q 16.703125 27.09375 16.703125 20.515625 
Q 16.703125 13.921875 20.71875 10.15625 
Q 24.75 6.390625 31.78125 6.390625 
Q 38.8125 6.390625 42.859375 10.171875 
Q 46.921875 13.96875 46.921875 20.515625 
Q 46.921875 27.09375 42.890625 30.859375 
Q 38.875 34.625 31.78125 34.625 
z
M 21.921875 38.8125 
Q 15.578125 40.375 12.03125 44.71875 
Q 8.5 49.078125 8.5 55.328125 
Q 8.5 64.0625 14.71875 69.140625 
Q 20.953125 74.21875 31.78125 74.21875 
Q 42.671875 74.21875 48.875 69.140625 
Q 55.078125 64.0625 55.078125 55.328125 
Q 55.078125 49.078125 51.53125 44.71875 
Q 48 40.375 41.703125 38.8125 
Q 48.828125 37.15625 52.796875 32.3125 
Q 56.78125 27.484375 56.78125 20.515625 
Q 56.78125 9.90625 50.3125 4.234375 
Q 43.84375 -1.421875 31.78125 -1.421875 
Q 19.734375 -1.421875 13.25 4.234375 
Q 6.78125 9.90625 6.78125 20.515625 
Q 6.78125 27.484375 10.78125 32.3125 
Q 14.796875 37.15625 21.921875 38.8125 
z
M 18.3125 54.390625 
Q 18.3125 48.734375 21.84375 45.5625 
Q 25.390625 42.390625 31.78125 42.390625 
Q 38.140625 42.390625 41.71875 45.5625 
Q 45.3125 48.734375 45.3125 54.390625 
Q 45.3125 60.0625 41.71875 63.234375 
Q 38.140625 66.40625 31.78125 66.40625 
Q 25.390625 66.40625 21.84375 63.234375 
Q 18.3125 60.0625 18.3125 54.390625 
z
" id="DejaVuSans-38"/>
      </defs>
      <g style="fill:#262626;" transform="translate(102.55 228.66712)scale(0.2 -0.2)">
       <use xlink:href="#DejaVuSans-32"/>
       <use x="63.623047" xlink:href="#DejaVuSans-38"/>
      </g>
     </g>
    </g>
   </g>
   <g id="line2d_60">
    <path clip-path="url(#p4f62f0b6eb)" d="M 173.045455 303.516895 
L 174.102273 301.085026 
L 175.141477 301.163473 
L 177.272727 307.360817 
L 178.329545 307.360817 
L 179.386364 301.869499 
L 180.443182 300.378999 
L 181.5 304.222921 
L 182.539205 304.222921 
L 183.596023 303.176956 
L 184.670455 304.222921 
L 185.727273 304.222921 
L 186.784091 302.771645 
L 187.840909 302.810868 
L 188.880114 296.456629 
L 189.936932 300.378999 
L 191.011364 301.085026 
L 192.068182 296.43048 
L 193.125 297.162656 
L 194.181818 301.24192 
L 196.277841 305.791869 
L 197.352273 301.163473 
L 198.409091 308.223739 
L 199.465909 310.655608 
L 201.579545 310.655608 
L 202.61875 305.085843 
L 203.675568 309.871134 
L 204.75 310.655608 
L 205.806818 306.654791 
L 206.863636 310.655608 
L 207.920455 310.655608 
L 208.977273 307.439265 
L 210.016477 304.745904 
L 211.090909 304.222921 
L 212.147727 309.08666 
L 213.204545 304.222921 
L 214.24375 305.085843 
L 215.318182 301.163473 
L 216.357386 308.223739 
L 217.414205 299.045393 
L 218.488636 302.732421 
L 219.545455 307.360817 
L 220.602273 309.08666 
L 221.659091 309.08666 
L 222.698296 303.516895 
L 223.755114 302.653973 
L 224.829545 307.360817 
L 225.886364 308.223739 
L 228 297.94713 
L 229.056818 306.654791 
L 230.096023 308.223739 
L 231.152841 310.655608 
L 234.340909 310.655608 
L 235.397727 310.132625 
L 236.436932 310.655608 
L 238.568182 312.067661 
L 239.625 308.982063 
L 240.681818 309.714239 
L 241.738636 311.361634 
L 242.795455 313.636609 
L 243.834659 313.636609 
L 244.909091 312.852135 
L 245.965909 315.205557 
L 247.022727 312.891359 
L 248.061932 314.159591 
L 249.136364 315.205557 
L 250.175568 314.028846 
L 251.232386 313.113626 
L 252.306818 316.068478 
L 253.363636 316.931399 
L 254.420455 315.676241 
L 255.477273 315.205557 
L 256.534091 313.165924 
L 257.573295 307.086251 
L 258.647727 314.421083 
L 259.704545 316.356118 
L 260.761364 315.284004 
L 261.800568 316.068478 
L 262.875 311.361634 
L 263.914204 313.688907 
L 264.971023 312.106885 
L 266.045455 307.360817 
L 267.102273 312.930582 
L 268.159091 314.421083 
L 269.215909 312.146108 
L 271.311932 317.323636 
L 272.386364 312.067661 
L 273.443182 311.126292 
L 274.5 311.126292 
L 275.556818 313.636609 
L 276.613636 312.590644 
L 277.652841 312.499122 
L 278.709659 311.596977 
L 279.784091 311.714648 
L 280.840909 310.132625 
L 281.897727 309.609642 
L 282.954545 303.869908 
L 283.99375 306.96858 
L 285.050568 304.301369 
L 286.125 305.399632 
L 287.181818 305.007395 
L 288.238636 305.791869 
L 289.295455 303.804535 
L 290.352273 305.399632 
L 291.391477 305.007395 
L 292.465909 304.27522 
L 293.522727 302.340184 
L 294.579545 294.926905 
L 295.61875 295.907497 
L 296.693182 297.94713 
L 297.732386 295.672155 
L 298.789205 292.102799 
L 299.863636 290.886864 
L 300.920455 288.925679 
L 301.977273 287.827416 
L 303.034091 287.121389 
L 304.090909 285.552441 
L 306.204545 283.042125 
L 307.261364 282.257651 
L 308.318182 280.688703 
L 309.357386 280.688703 
L 311.471023 277.707702 
L 313.602273 277.707702 
L 314.659091 276.609438 
L 315.715909 275.197385 
L 316.772727 275.197385 
L 317.811932 274.412911 
L 318.86875 274.412911 
L 321 272.843963 
L 322.056818 272.843963 
L 323.113636 271.43191 
L 324.170455 270.804331 
L 325.209659 271.43191 
L 326.266477 270.490541 
L 327.340909 269.862962 
L 329.454545 268.13712 
L 330.511364 267.744883 
L 331.550568 266.960409 
L 332.607386 266.960409 
L 333.681818 266.175935 
L 334.738636 265.783698 
L 335.795455 266.175935 
L 336.852273 264.999224 
L 343.175568 264.999224 
L 344.25 263.940184 
L 345.289205 263.587171 
L 349.534091 263.587171 
L 350.590909 266.568172 
L 351.647727 274.412911 
L 352.686932 273.667661 
L 353.761364 276.034157 
L 354.818182 279.198202 
L 355.875 279.982676 
L 356.914205 281.08094 
L 357.988636 281.211685 
L 359.027841 283.042125 
L 360.084659 285.552441 
L 361.159091 287.082165 
L 362.215909 290.886864 
L 363.272727 289.579408 
L 364.329545 292.102799 
L 366.425568 291.279101 
L 367.5 291.671338 
L 368.556818 294.926905 
L 369.613636 293.789418 
L 370.670455 294.887681 
L 371.727273 293.397181 
L 372.766477 296.378182 
L 373.823295 296.378182 
L 375.954545 297.94713 
L 377.011364 298.470112 
L 378.068182 298.770827 
L 379.107386 300.666639 
L 380.164204 301.764903 
L 381.238636 302.418631 
L 382.295455 305.046619 
L 383.352273 305.791869 
L 384.409091 307.413115 
L 385.465909 307.007804 
L 386.505114 307.360817 
L 387.579545 306.184106 
L 388.636364 305.791869 
L 389.693182 304.222921 
L 390.732386 305.007395 
L 391.806818 305.268887 
L 392.846023 304.222921 
L 393.902841 305.268887 
L 394.977273 306.576343 
L 396.034091 305.007395 
L 397.090909 306.576343 
L 398.147727 306.576343 
L 399.204545 306.22333 
L 400.24375 303.516895 
L 401.318182 301.764903 
L 402.375 302.810868 
L 403.431818 303.516895 
L 404.471023 300.378999 
L 405.545455 298.470112 
L 406.584659 301.24192 
L 407.641477 302.810868 
L 408.715909 302.287886 
L 409.772727 302.418631 
L 410.829545 302.418631 
L 411.886364 302.810868 
L 413.982386 302.810868 
L 415.056818 303.869908 
L 416.113636 304.222921 
L 417.170455 304.222921 
L 418.227273 303.869908 
L 420.323295 304.615158 
L 421.380114 304.222921 
L 423.511364 304.222921 
L 424.568182 305.007395 
L 425.625 305.268887 
L 426.664204 305.791869 
L 427.721023 305.791869 
L 428.795455 306.314852 
L 429.852273 306.184106 
L 430.909091 306.184106 
L 431.965909 305.791869 
L 433.022727 307.360817 
L 439.363636 307.360817 
L 440.402841 307.936098 
L 441.459659 307.792278 
L 442.534091 307.792278 
L 443.590909 307.360817 
L 444.647727 308.511379 
L 445.704545 309.08666 
L 446.761364 307.792278 
L 447.800568 308.511379 
L 448.875 308.655199 
L 449.931818 308.655199 
L 450.988636 309.08666 
L 452.027841 308.511379 
L 453.102273 309.08666 
L 454.141477 307.792278 
L 455.198295 309.08666 
L 456.272727 308.655199 
L 457.329545 307.936098 
L 458.386364 307.360817 
L 459.443182 308.223739 
L 460.482386 308.511379 
L 461.539205 307.360817 
L 465.784091 307.360817 
L 466.840909 308.223739 
L 468.936932 306.576343 
L 470.011364 307.360817 
L 472.125 307.360817 
L 474.221023 305.791869 
L 475.277841 305.399632 
L 476.352273 305.399632 
L 477.409091 305.791869 
L 483.75 305.791869 
L 484.806818 304.222921 
L 487.959659 304.222921 
L 490.090909 305.791869 
L 491.147727 305.268887 
L 492.204545 305.791869 
L 493.261364 304.745904 
L 494.318182 304.222921 
L 497.488636 304.222921 
L 498.545455 304.615158 
L 499.584659 304.222921 
L 500.659091 304.615158 
L 501.698295 304.615158 
L 502.755114 305.268887 
L 503.829545 304.615158 
L 504.886364 304.222921 
L 513.340909 304.222921 
L 514.397727 305.007395 
L 515.436932 304.745904 
L 516.49375 304.222921 
L 523.909091 304.222921 
L 524.965909 303.752237 
L 526.022727 304.222921 
L 533.402841 304.222921 
L 534.477273 299.163064 
L 535.516477 289.684004 
L 536.573295 291.789009 
L 537.647727 295.907497 
L 538.704545 295.240695 
L 539.761364 299.568376 
L 540.818182 294.181655 
L 541.875 292.298917 
L 542.914204 292.102799 
L 543.988636 292.102799 
L 545.045455 293.397181 
L 547.141477 293.397181 
L 548.215909 294.966129 
L 550.311932 291.671338 
L 551.386364 292.96572 
L 552.443182 293.920163 
L 553.5 293.920163 
L 554.556818 293.397181 
L 558.784091 293.397181 
L 559.840909 292.534259 
L 560.897727 293.397181 
L 561.954545 292.8219 
L 562.99375 291.671338 
L 565.125 291.671338 
L 566.181818 292.706844 
L 567.238636 291.671338 
L 577.806818 291.671338 
L 578.863636 290.886864 
L 579.920455 288.533442 
L 580.959659 287.827416 
L 582.034091 288.585741 
L 584.130114 289.317916 
L 585.204545 288.533442 
L 586.261364 288.533442 
L 587.318182 288.925679 
L 588.375 288.533442 
L 589.431818 288.533442 
L 590.471023 287.827416 
L 591.545455 286.297692 
L 592.602273 286.729152 
L 593.659091 286.336915 
L 594.698295 285.552441 
L 598.943182 285.552441 
L 600 284.97716 
L 601.056818 279.158979 
L 602.113636 282.257651 
L 604.209659 282.257651 
L 605.284091 281.865414 
L 606.340909 282.257651 
L 610.550568 282.257651 
L 611.607386 281.865414 
L 612.681818 281.211685 
L 613.738636 281.473177 
L 615.852273 280.688703 
L 620.079545 280.688703 
L 621.136364 280.335689 
L 622.193182 280.688703 
L 623.25 279.629663 
L 624.289205 279.982676 
L 625.363636 280.688703 
L 626.420455 279.982676 
L 627.477273 279.747334 
L 628.516477 279.747334 
L 629.590909 279.55906 
L 630.630114 280.335689 
L 631.686932 280.688703 
L 632.761364 279.982676 
L 633.818182 280.688703 
L 642.255114 280.688703 
L 643.329545 280.335689 
L 644.36875 280.688703 
L 645.425568 279.629663 
L 646.5 279.27665 
L 650.709659 279.27665 
L 651.766477 277.080123 
L 652.840909 276.84478 
L 653.897727 275.981859 
L 656.011364 272.843963 
L 657.068182 272.49095 
L 658.107386 269.862962 
L 659.164204 270.647436 
L 661.295455 269.000041 
L 662.352273 268.13712 
L 663.409091 266.568172 
L 664.448295 262.907293 
L 665.505114 262.018223 
L 666.579545 263.587171 
L 678.186932 263.587171 
L 680.318182 262.018223 
L 682.431818 262.018223 
L 683.488636 260.29238 
L 684.545455 261.155301 
L 685.584659 261.442942 
L 686.659091 262.018223 
L 695.113636 262.018223 
L 696.170455 260.29238 
L 701.454545 260.29238 
L 702.511364 258.723432 
L 705.664204 258.723432 
L 706.721023 259.507906 
L 707.795455 258.723432 
L 708.852273 259.507906 
L 710.965909 257.938958 
L 712.005114 257.677467 
L 713.061932 257.154484 
L 719.402841 257.154484 
L 721.534091 256.448458 
L 722.590909 257.154484 
L 728.931818 257.154484 
L 729.988636 256.6838 
L 731.045455 256.6838 
L 732.102273 255.742431 
L 735.272727 255.742431 
L 736.329545 254.957957 
L 737.36875 254.957957 
L 738.443182 254.173483 
L 746.880114 254.173483 
L 747.954545 252.44764 
L 749.011364 254.173483 
L 752.181818 254.173483 
L 753.221023 253.022921 
L 754.277841 252.44764 
L 755.352273 248.250705 
L 757.465909 247.505455 
L 758.522727 245.465822 
L 759.561932 243.033953 
L 760.61875 243.818427 
L 761.693182 243.818427 
L 762.75 243.033953 
L 764.863636 243.033953 
L 765.920455 242.249479 
L 766.959659 242.249479 
L 768.034091 240.758979 
L 769.090909 240.052952 
L 770.147727 239.660715 
L 771.186932 240.052952 
L 773.300568 237.621083 
L 774.357386 237.908723 
L 775.431818 237.333442 
L 776.488636 236.365924 
L 777.545455 235.58145 
L 778.602273 236.235179 
L 779.659091 235.58145 
L 780.698295 234.796977 
L 781.772727 235.189213 
L 783.886364 235.189213 
L 784.925568 234.012503 
L 786 234.143248 
L 787.039204 233.267252 
L 788.096023 232.208212 
L 789.170455 232.914239 
L 790.227273 233.149581 
L 791.284091 232.208212 
L 792.340909 231.68523 
L 793.380114 231.031502 
L 794.436932 230.639265 
L 795.511364 229.815567 
L 796.568182 227.736711 
L 797.625 228.913422 
L 800.777841 228.913422 
L 801.834659 229.344883 
L 802.909091 228.521185 
L 803.965909 228.128948 
L 805.022727 227.344474 
L 806.079545 227.736711 
L 807.11875 228.521185 
L 808.175568 227.867457 
L 809.25 226.56 
L 810.306818 226.206987 
L 811.363636 224.716486 
L 812.420455 225.775526 
L 813.477273 225.775526 
L 814.516477 224.363473 
L 815.590909 225.304842 
L 816.647727 225.422513 
L 817.704545 225.775526 
L 819.818182 225.775526 
L 821.914204 224.363473 
L 835.652841 224.363473 
L 836.727273 223.971236 
L 837.784091 224.363473 
L 838.840909 222.363064 
L 839.897727 220.676445 
L 840.936932 220.284208 
L 841.99375 219.499734 
L 843.068182 220.676445 
L 844.125 222.363064 
L 845.181818 222.794525 
L 846.238636 222.219244 
L 847.295455 222.363064 
L 848.334659 222.794525 
L 853.636364 222.794525 
L 854.675568 221.931604 
L 855.732386 220.284208 
L 856.806818 219.499734 
L 857.863636 218.506067 
L 858.920455 219.499734 
L 861.034091 219.499734 
L 862.073295 220.284208 
L 863.147727 219.499734 
L 865.261364 219.499734 
L 867.375 221.068682 
L 873.715909 221.068682 
L 874.772727 221.931604 
L 875.811932 221.068682 
L 876.886364 221.931604 
L 877.943182 221.931604 
L 879 221.068682 
L 880.039205 221.068682 
L 881.113636 220.284208 
L 882.152841 221.068682 
L 883.209659 220.5457 
L 884.284091 216.361839 
L 885.340909 217.983085 
L 886.397727 212.596364 
L 887.454545 219.499734 
L 888.49375 213.799224 
L 889.550568 216.414137 
L 890.625 219.499734 
L 891.681818 217.22476 
L 892.738636 218.71526 
L 893.795455 219.499734 
L 894.852273 219.499734 
L 895.891477 220.284208 
L 896.948295 220.284208 
L 898.022727 220.022717 
L 899.079545 220.284208 
L 901.193182 220.284208 
L 902.232386 219.499734 
L 903.289204 221.068682 
L 904.363636 219.499734 
L 905.420455 220.284208 
L 906.477273 220.284208 
L 907.534091 219.499734 
L 927.596023 219.499734 
L 928.670455 221.068682 
L 929.709659 220.022717 
L 930.766477 221.068682 
L 931.840909 218.976752 
L 932.897727 218.976752 
L 933.954545 219.499734 
L 933.954545 219.499734 
" style="fill:none;stroke:#03ed3a;stroke-linecap:round;stroke-width:5;"/>
   </g>
   <g id="patch_8">
    <path d="M 135 322.56 
L 135 207.36 
" style="fill:none;"/>
   </g>
   <g id="patch_9">
    <path d="M 972 322.56 
L 972 207.36 
" style="fill:none;"/>
   </g>
   <g id="patch_10">
    <path d="M 135 322.56 
L 972 322.56 
" style="fill:none;"/>
   </g>
   <g id="patch_11">
    <path d="M 135 207.36 
L 972 207.36 
" style="fill:none;"/>
   </g>
   <g id="legend_2">
    <g id="line2d_61">
     <path d="M 144 220.458438 
L 164 220.458438 
" style="fill:none;stroke:#03ed3a;stroke-linecap:round;stroke-width:5;"/>
    </g>
    <g id="line2d_62"/>
    <g id="text_10">
     <!-- Humidity -->
     <defs>
      <path d="M 9.8125 72.90625 
L 19.671875 72.90625 
L 19.671875 43.015625 
L 55.515625 43.015625 
L 55.515625 72.90625 
L 65.375 72.90625 
L 65.375 0 
L 55.515625 0 
L 55.515625 34.71875 
L 19.671875 34.71875 
L 19.671875 0 
L 9.8125 0 
z
" id="DejaVuSans-48"/>
      <path d="M 9.421875 54.6875 
L 18.40625 54.6875 
L 18.40625 0 
L 9.421875 0 
z
M 9.421875 75.984375 
L 18.40625 75.984375 
L 18.40625 64.59375 
L 9.421875 64.59375 
z
" id="DejaVuSans-69"/>
      <path d="M 45.40625 46.390625 
L 45.40625 75.984375 
L 54.390625 75.984375 
L 54.390625 0 
L 45.40625 0 
L 45.40625 8.203125 
Q 42.578125 3.328125 38.25 0.953125 
Q 33.9375 -1.421875 27.875 -1.421875 
Q 17.96875 -1.421875 11.734375 6.484375 
Q 5.515625 14.40625 5.515625 27.296875 
Q 5.515625 40.1875 11.734375 48.09375 
Q 17.96875 56 27.875 56 
Q 33.9375 56 38.25 53.625 
Q 42.578125 51.265625 45.40625 46.390625 
z
M 14.796875 27.296875 
Q 14.796875 17.390625 18.875 11.75 
Q 22.953125 6.109375 30.078125 6.109375 
Q 37.203125 6.109375 41.296875 11.75 
Q 45.40625 17.390625 45.40625 27.296875 
Q 45.40625 37.203125 41.296875 42.84375 
Q 37.203125 48.484375 30.078125 48.484375 
Q 22.953125 48.484375 18.875 42.84375 
Q 14.796875 37.203125 14.796875 27.296875 
z
" id="DejaVuSans-64"/>
      <path d="M 32.171875 -5.078125 
Q 28.375 -14.84375 24.75 -17.8125 
Q 21.140625 -20.796875 15.09375 -20.796875 
L 7.90625 -20.796875 
L 7.90625 -13.28125 
L 13.1875 -13.28125 
Q 16.890625 -13.28125 18.9375 -11.515625 
Q 21 -9.765625 23.484375 -3.21875 
L 25.09375 0.875 
L 2.984375 54.6875 
L 12.5 54.6875 
L 29.59375 11.921875 
L 46.6875 54.6875 
L 56.203125 54.6875 
z
" id="DejaVuSans-79"/>
     </defs>
     <g style="fill:#262626;" transform="translate(172 223.958438)scale(0.1 -0.1)">
      <use xlink:href="#DejaVuSans-48"/>
      <use x="75.195312" xlink:href="#DejaVuSans-75"/>
      <use x="138.574219" xlink:href="#DejaVuSans-6d"/>
      <use x="235.986328" xlink:href="#DejaVuSans-69"/>
      <use x="263.769531" xlink:href="#DejaVuSans-64"/>
      <use x="327.246094" xlink:href="#DejaVuSans-69"/>
      <use x="355.029297" xlink:href="#DejaVuSans-74"/>
      <use x="394.238281" xlink:href="#DejaVuSans-79"/>
     </g>
    </g>
   </g>
  </g>
  <g id="axes_3">
   <g id="patch_12">
    <path d="M 135 460.8 
L 972 460.8 
L 972 345.6 
L 135 345.6 
z
" style="fill:#eaeaf2;"/>
   </g>
   <g id="matplotlib.axis_5">
    <g id="xtick_27">
     <g id="line2d_63">
      <path clip-path="url(#p5c9ff254c4)" d="M 173.045455 460.8 
L 173.045455 345.6 
" style="fill:none;stroke:#ffffff;stroke-linecap:round;"/>
     </g>
     <g id="line2d_64"/>
     <g id="text_11">
      <!-- 02-12 07 -->
      <defs>
       <path d="M 31.78125 66.40625 
Q 24.171875 66.40625 20.328125 58.90625 
Q 16.5 51.421875 16.5 36.375 
Q 16.5 21.390625 20.328125 13.890625 
Q 24.171875 6.390625 31.78125 6.390625 
Q 39.453125 6.390625 43.28125 13.890625 
Q 47.125 21.390625 47.125 36.375 
Q 47.125 51.421875 43.28125 58.90625 
Q 39.453125 66.40625 31.78125 66.40625 
z
M 31.78125 74.21875 
Q 44.046875 74.21875 50.515625 64.515625 
Q 56.984375 54.828125 56.984375 36.375 
Q 56.984375 17.96875 50.515625 8.265625 
Q 44.046875 -1.421875 31.78125 -1.421875 
Q 19.53125 -1.421875 13.0625 8.265625 
Q 6.59375 17.96875 6.59375 36.375 
Q 6.59375 54.828125 13.0625 64.515625 
Q 19.53125 74.21875 31.78125 74.21875 
z
" id="DejaVuSans-30"/>
       <path d="M 4.890625 31.390625 
L 31.203125 31.390625 
L 31.203125 23.390625 
L 4.890625 23.390625 
z
" id="DejaVuSans-2d"/>
       <path id="DejaVuSans-20"/>
       <path d="M 8.203125 72.90625 
L 55.078125 72.90625 
L 55.078125 68.703125 
L 28.609375 0 
L 18.3125 0 
L 43.21875 64.59375 
L 8.203125 64.59375 
z
" id="DejaVuSans-37"/>
      </defs>
      <g style="fill:#262626;" transform="translate(93.091139 525.921817)rotate(-30)scale(0.2 -0.2)">
       <use xlink:href="#DejaVuSans-30"/>
       <use x="63.623047" xlink:href="#DejaVuSans-32"/>
       <use x="127.246094" xlink:href="#DejaVuSans-2d"/>
       <use x="163.330078" xlink:href="#DejaVuSans-31"/>
       <use x="226.953125" xlink:href="#DejaVuSans-32"/>
       <use x="290.576172" xlink:href="#DejaVuSans-20"/>
       <use x="322.363281" xlink:href="#DejaVuSans-30"/>
       <use x="385.986328" xlink:href="#DejaVuSans-37"/>
      </g>
     </g>
    </g>
    <g id="xtick_28">
     <g id="line2d_65">
      <path clip-path="url(#p5c9ff254c4)" d="M 299.863636 460.8 
L 299.863636 345.6 
" style="fill:none;stroke:#ffffff;stroke-linecap:round;"/>
     </g>
     <g id="line2d_66"/>
     <g id="text_12">
      <!-- 02-12 09 -->
      <defs>
       <path d="M 10.984375 1.515625 
L 10.984375 10.5 
Q 14.703125 8.734375 18.5 7.8125 
Q 22.3125 6.890625 25.984375 6.890625 
Q 35.75 6.890625 40.890625 13.453125 
Q 46.046875 20.015625 46.78125 33.40625 
Q 43.953125 29.203125 39.59375 26.953125 
Q 35.25 24.703125 29.984375 24.703125 
Q 19.046875 24.703125 12.671875 31.3125 
Q 6.296875 37.9375 6.296875 49.421875 
Q 6.296875 60.640625 12.9375 67.421875 
Q 19.578125 74.21875 30.609375 74.21875 
Q 43.265625 74.21875 49.921875 64.515625 
Q 56.59375 54.828125 56.59375 36.375 
Q 56.59375 19.140625 48.40625 8.859375 
Q 40.234375 -1.421875 26.421875 -1.421875 
Q 22.703125 -1.421875 18.890625 -0.6875 
Q 15.09375 0.046875 10.984375 1.515625 
z
M 30.609375 32.421875 
Q 37.25 32.421875 41.125 36.953125 
Q 45.015625 41.5 45.015625 49.421875 
Q 45.015625 57.28125 41.125 61.84375 
Q 37.25 66.40625 30.609375 66.40625 
Q 23.96875 66.40625 20.09375 61.84375 
Q 16.21875 57.28125 16.21875 49.421875 
Q 16.21875 41.5 20.09375 36.953125 
Q 23.96875 32.421875 30.609375 32.421875 
z
" id="DejaVuSans-39"/>
      </defs>
      <g style="fill:#262626;" transform="translate(219.909321 525.921817)rotate(-30)scale(0.2 -0.2)">
       <use xlink:href="#DejaVuSans-30"/>
       <use x="63.623047" xlink:href="#DejaVuSans-32"/>
       <use x="127.246094" xlink:href="#DejaVuSans-2d"/>
       <use x="163.330078" xlink:href="#DejaVuSans-31"/>
       <use x="226.953125" xlink:href="#DejaVuSans-32"/>
       <use x="290.576172" xlink:href="#DejaVuSans-20"/>
       <use x="322.363281" xlink:href="#DejaVuSans-30"/>
       <use x="385.986328" xlink:href="#DejaVuSans-39"/>
      </g>
     </g>
    </g>
    <g id="xtick_29">
     <g id="line2d_67">
      <path clip-path="url(#p5c9ff254c4)" d="M 426.681818 460.8 
L 426.681818 345.6 
" style="fill:none;stroke:#ffffff;stroke-linecap:round;"/>
     </g>
     <g id="line2d_68"/>
     <g id="text_13">
      <!-- 02-12 11 -->
      <g style="fill:#262626;" transform="translate(346.727503 525.921817)rotate(-30)scale(0.2 -0.2)">
       <use xlink:href="#DejaVuSans-30"/>
       <use x="63.623047" xlink:href="#DejaVuSans-32"/>
       <use x="127.246094" xlink:href="#DejaVuSans-2d"/>
       <use x="163.330078" xlink:href="#DejaVuSans-31"/>
       <use x="226.953125" xlink:href="#DejaVuSans-32"/>
       <use x="290.576172" xlink:href="#DejaVuSans-20"/>
       <use x="322.363281" xlink:href="#DejaVuSans-31"/>
       <use x="385.986328" xlink:href="#DejaVuSans-31"/>
      </g>
     </g>
    </g>
    <g id="xtick_30">
     <g id="line2d_69">
      <path clip-path="url(#p5c9ff254c4)" d="M 553.5 460.8 
L 553.5 345.6 
" style="fill:none;stroke:#ffffff;stroke-linecap:round;"/>
     </g>
     <g id="line2d_70"/>
     <g id="text_14">
      <!-- 02-12 13 -->
      <g style="fill:#262626;" transform="translate(473.545684 525.921817)rotate(-30)scale(0.2 -0.2)">
       <use xlink:href="#DejaVuSans-30"/>
       <use x="63.623047" xlink:href="#DejaVuSans-32"/>
       <use x="127.246094" xlink:href="#DejaVuSans-2d"/>
       <use x="163.330078" xlink:href="#DejaVuSans-31"/>
       <use x="226.953125" xlink:href="#DejaVuSans-32"/>
       <use x="290.576172" xlink:href="#DejaVuSans-20"/>
       <use x="322.363281" xlink:href="#DejaVuSans-31"/>
       <use x="385.986328" xlink:href="#DejaVuSans-33"/>
      </g>
     </g>
    </g>
    <g id="xtick_31">
     <g id="line2d_71">
      <path clip-path="url(#p5c9ff254c4)" d="M 680.318182 460.8 
L 680.318182 345.6 
" style="fill:none;stroke:#ffffff;stroke-linecap:round;"/>
     </g>
     <g id="line2d_72"/>
     <g id="text_15">
      <!-- 02-12 15 -->
      <defs>
       <path d="M 10.796875 72.90625 
L 49.515625 72.90625 
L 49.515625 64.59375 
L 19.828125 64.59375 
L 19.828125 46.734375 
Q 21.96875 47.46875 24.109375 47.828125 
Q 26.265625 48.1875 28.421875 48.1875 
Q 40.625 48.1875 47.75 41.5 
Q 54.890625 34.8125 54.890625 23.390625 
Q 54.890625 11.625 47.5625 5.09375 
Q 40.234375 -1.421875 26.90625 -1.421875 
Q 22.3125 -1.421875 17.546875 -0.640625 
Q 12.796875 0.140625 7.71875 1.703125 
L 7.71875 11.625 
Q 12.109375 9.234375 16.796875 8.0625 
Q 21.484375 6.890625 26.703125 6.890625 
Q 35.15625 6.890625 40.078125 11.328125 
Q 45.015625 15.765625 45.015625 23.390625 
Q 45.015625 31 40.078125 35.4375 
Q 35.15625 39.890625 26.703125 39.890625 
Q 22.75 39.890625 18.8125 39.015625 
Q 14.890625 38.140625 10.796875 36.28125 
z
" id="DejaVuSans-35"/>
      </defs>
      <g style="fill:#262626;" transform="translate(600.363866 525.921817)rotate(-30)scale(0.2 -0.2)">
       <use xlink:href="#DejaVuSans-30"/>
       <use x="63.623047" xlink:href="#DejaVuSans-32"/>
       <use x="127.246094" xlink:href="#DejaVuSans-2d"/>
       <use x="163.330078" xlink:href="#DejaVuSans-31"/>
       <use x="226.953125" xlink:href="#DejaVuSans-32"/>
       <use x="290.576172" xlink:href="#DejaVuSans-20"/>
       <use x="322.363281" xlink:href="#DejaVuSans-31"/>
       <use x="385.986328" xlink:href="#DejaVuSans-35"/>
      </g>
     </g>
    </g>
    <g id="xtick_32">
     <g id="line2d_73">
      <path clip-path="url(#p5c9ff254c4)" d="M 807.136364 460.8 
L 807.136364 345.6 
" style="fill:none;stroke:#ffffff;stroke-linecap:round;"/>
     </g>
     <g id="line2d_74"/>
     <g id="text_16">
      <!-- 02-12 17 -->
      <g style="fill:#262626;" transform="translate(727.182048 525.921817)rotate(-30)scale(0.2 -0.2)">
       <use xlink:href="#DejaVuSans-30"/>
       <use x="63.623047" xlink:href="#DejaVuSans-32"/>
       <use x="127.246094" xlink:href="#DejaVuSans-2d"/>
       <use x="163.330078" xlink:href="#DejaVuSans-31"/>
       <use x="226.953125" xlink:href="#DejaVuSans-32"/>
       <use x="290.576172" xlink:href="#DejaVuSans-20"/>
       <use x="322.363281" xlink:href="#DejaVuSans-31"/>
       <use x="385.986328" xlink:href="#DejaVuSans-37"/>
      </g>
     </g>
    </g>
    <g id="xtick_33">
     <g id="line2d_75">
      <path clip-path="url(#p5c9ff254c4)" d="M 933.954545 460.8 
L 933.954545 345.6 
" style="fill:none;stroke:#ffffff;stroke-linecap:round;"/>
     </g>
     <g id="line2d_76"/>
     <g id="text_17">
      <!-- 02-12 19 -->
      <g style="fill:#262626;" transform="translate(854.00023 525.921817)rotate(-30)scale(0.2 -0.2)">
       <use xlink:href="#DejaVuSans-30"/>
       <use x="63.623047" xlink:href="#DejaVuSans-32"/>
       <use x="127.246094" xlink:href="#DejaVuSans-2d"/>
       <use x="163.330078" xlink:href="#DejaVuSans-31"/>
       <use x="226.953125" xlink:href="#DejaVuSans-32"/>
       <use x="290.576172" xlink:href="#DejaVuSans-20"/>
       <use x="322.363281" xlink:href="#DejaVuSans-31"/>
       <use x="385.986328" xlink:href="#DejaVuSans-39"/>
      </g>
     </g>
    </g>
    <g id="xtick_34">
     <g id="line2d_77"/>
    </g>
    <g id="xtick_35">
     <g id="line2d_78"/>
    </g>
    <g id="xtick_36">
     <g id="line2d_79"/>
    </g>
    <g id="xtick_37">
     <g id="line2d_80"/>
    </g>
    <g id="xtick_38">
     <g id="line2d_81"/>
    </g>
    <g id="xtick_39">
     <g id="line2d_82"/>
    </g>
    <g id="text_18">
     <!-- date -->
     <g style="fill:#262626;" transform="translate(541.0975 541.882223)scale(0.11 -0.11)">
      <use xlink:href="#DejaVuSans-64"/>
      <use x="63.476562" xlink:href="#DejaVuSans-61"/>
      <use x="124.755859" xlink:href="#DejaVuSans-74"/>
      <use x="163.964844" xlink:href="#DejaVuSans-65"/>
     </g>
    </g>
   </g>
   <g id="matplotlib.axis_6">
    <g id="ytick_9">
     <g id="line2d_83">
      <path clip-path="url(#p5c9ff254c4)" d="M 135 455.563636 
L 972 455.563636 
" style="fill:none;stroke:#ffffff;stroke-linecap:round;"/>
     </g>
     <g id="line2d_84"/>
     <g id="text_19">
      <!-- 0.00 -->
      <defs>
       <path d="M 10.6875 12.40625 
L 21 12.40625 
L 21 0 
L 10.6875 0 
z
" id="DejaVuSans-2e"/>
      </defs>
      <g style="fill:#262626;" transform="translate(83.46875 463.162074)scale(0.2 -0.2)">
       <use xlink:href="#DejaVuSans-30"/>
       <use x="63.623047" xlink:href="#DejaVuSans-2e"/>
       <use x="95.410156" xlink:href="#DejaVuSans-30"/>
       <use x="159.033203" xlink:href="#DejaVuSans-30"/>
      </g>
     </g>
    </g>
    <g id="ytick_10">
     <g id="line2d_85">
      <path clip-path="url(#p5c9ff254c4)" d="M 135 429.381818 
L 972 429.381818 
" style="fill:none;stroke:#ffffff;stroke-linecap:round;"/>
     </g>
     <g id="line2d_86"/>
     <g id="text_20">
      <!-- 0.25 -->
      <g style="fill:#262626;" transform="translate(83.46875 436.980256)scale(0.2 -0.2)">
       <use xlink:href="#DejaVuSans-30"/>
       <use x="63.623047" xlink:href="#DejaVuSans-2e"/>
       <use x="95.410156" xlink:href="#DejaVuSans-32"/>
       <use x="159.033203" xlink:href="#DejaVuSans-35"/>
      </g>
     </g>
    </g>
    <g id="ytick_11">
     <g id="line2d_87">
      <path clip-path="url(#p5c9ff254c4)" d="M 135 403.2 
L 972 403.2 
" style="fill:none;stroke:#ffffff;stroke-linecap:round;"/>
     </g>
     <g id="line2d_88"/>
     <g id="text_21">
      <!-- 0.50 -->
      <g style="fill:#262626;" transform="translate(83.46875 410.798437)scale(0.2 -0.2)">
       <use xlink:href="#DejaVuSans-30"/>
       <use x="63.623047" xlink:href="#DejaVuSans-2e"/>
       <use x="95.410156" xlink:href="#DejaVuSans-35"/>
       <use x="159.033203" xlink:href="#DejaVuSans-30"/>
      </g>
     </g>
    </g>
    <g id="ytick_12">
     <g id="line2d_89">
      <path clip-path="url(#p5c9ff254c4)" d="M 135 377.018182 
L 972 377.018182 
" style="fill:none;stroke:#ffffff;stroke-linecap:round;"/>
     </g>
     <g id="line2d_90"/>
     <g id="text_22">
      <!-- 0.75 -->
      <g style="fill:#262626;" transform="translate(83.46875 384.616619)scale(0.2 -0.2)">
       <use xlink:href="#DejaVuSans-30"/>
       <use x="63.623047" xlink:href="#DejaVuSans-2e"/>
       <use x="95.410156" xlink:href="#DejaVuSans-37"/>
       <use x="159.033203" xlink:href="#DejaVuSans-35"/>
      </g>
     </g>
    </g>
    <g id="ytick_13">
     <g id="line2d_91">
      <path clip-path="url(#p5c9ff254c4)" d="M 135 350.836364 
L 972 350.836364 
" style="fill:none;stroke:#ffffff;stroke-linecap:round;"/>
     </g>
     <g id="line2d_92"/>
     <g id="text_23">
      <!-- 1.00 -->
      <g style="fill:#262626;" transform="translate(83.46875 358.434801)scale(0.2 -0.2)">
       <use xlink:href="#DejaVuSans-31"/>
       <use x="63.623047" xlink:href="#DejaVuSans-2e"/>
       <use x="95.410156" xlink:href="#DejaVuSans-30"/>
       <use x="159.033203" xlink:href="#DejaVuSans-30"/>
      </g>
     </g>
    </g>
   </g>
   <g id="line2d_93">
    <path clip-path="url(#p5c9ff254c4)" d="M 173.045455 455.563636 
L 268.159091 455.563636 
L 269.215909 350.836364 
L 270.255114 350.836364 
L 271.311932 455.563636 
L 274.5 455.563636 
L 275.556818 350.836364 
L 403.431818 350.836364 
L 404.471023 455.563636 
L 534.477273 455.563636 
L 535.516477 350.836364 
L 549.255114 350.836364 
L 550.311932 455.563636 
L 577.806818 455.563636 
L 578.863636 350.836364 
L 579.920455 455.563636 
L 580.959659 455.563636 
L 582.034091 350.836364 
L 590.471023 350.836364 
L 591.545455 455.563636 
L 650.709659 455.563636 
L 651.766477 350.836364 
L 652.840909 455.563636 
L 753.221023 455.563636 
L 754.277841 350.836364 
L 853.636364 350.836364 
L 854.675568 455.563636 
L 933.954545 455.563636 
L 933.954545 455.563636 
" style="fill:none;stroke:#e8000b;stroke-linecap:round;stroke-width:5;"/>
   </g>
   <g id="patch_13">
    <path d="M 135 460.8 
L 135 345.6 
" style="fill:none;"/>
   </g>
   <g id="patch_14">
    <path d="M 972 460.8 
L 972 345.6 
" style="fill:none;"/>
   </g>
   <g id="patch_15">
    <path d="M 135 460.8 
L 972 460.8 
" style="fill:none;"/>
   </g>
   <g id="patch_16">
    <path d="M 135 345.6 
L 972 345.6 
" style="fill:none;"/>
   </g>
   <g id="legend_3">
    <g id="line2d_94">
     <path d="M 879.5625 358.698437 
L 899.5625 358.698437 
" style="fill:none;stroke:#e8000b;stroke-linecap:round;stroke-width:5;"/>
    </g>
    <g id="line2d_95"/>
    <g id="text_24">
     <!-- Occupancy -->
     <defs>
      <path d="M 39.40625 66.21875 
Q 28.65625 66.21875 22.328125 58.203125 
Q 16.015625 50.203125 16.015625 36.375 
Q 16.015625 22.609375 22.328125 14.59375 
Q 28.65625 6.59375 39.40625 6.59375 
Q 50.140625 6.59375 56.421875 14.59375 
Q 62.703125 22.609375 62.703125 36.375 
Q 62.703125 50.203125 56.421875 58.203125 
Q 50.140625 66.21875 39.40625 66.21875 
z
M 39.40625 74.21875 
Q 54.734375 74.21875 63.90625 63.9375 
Q 73.09375 53.65625 73.09375 36.375 
Q 73.09375 19.140625 63.90625 8.859375 
Q 54.734375 -1.421875 39.40625 -1.421875 
Q 24.03125 -1.421875 14.8125 8.828125 
Q 5.609375 19.09375 5.609375 36.375 
Q 5.609375 53.65625 14.8125 63.9375 
Q 24.03125 74.21875 39.40625 74.21875 
z
" id="DejaVuSans-4f"/>
      <path d="M 48.78125 52.59375 
L 48.78125 44.1875 
Q 44.96875 46.296875 41.140625 47.34375 
Q 37.3125 48.390625 33.40625 48.390625 
Q 24.65625 48.390625 19.8125 42.84375 
Q 14.984375 37.3125 14.984375 27.296875 
Q 14.984375 17.28125 19.8125 11.734375 
Q 24.65625 6.203125 33.40625 6.203125 
Q 37.3125 6.203125 41.140625 7.25 
Q 44.96875 8.296875 48.78125 10.40625 
L 48.78125 2.09375 
Q 45.015625 0.34375 40.984375 -0.53125 
Q 36.96875 -1.421875 32.421875 -1.421875 
Q 20.0625 -1.421875 12.78125 6.34375 
Q 5.515625 14.109375 5.515625 27.296875 
Q 5.515625 40.671875 12.859375 48.328125 
Q 20.21875 56 33.015625 56 
Q 37.15625 56 41.109375 55.140625 
Q 45.0625 54.296875 48.78125 52.59375 
z
" id="DejaVuSans-63"/>
      <path d="M 54.890625 33.015625 
L 54.890625 0 
L 45.90625 0 
L 45.90625 32.71875 
Q 45.90625 40.484375 42.875 44.328125 
Q 39.84375 48.1875 33.796875 48.1875 
Q 26.515625 48.1875 22.3125 43.546875 
Q 18.109375 38.921875 18.109375 30.90625 
L 18.109375 0 
L 9.078125 0 
L 9.078125 54.6875 
L 18.109375 54.6875 
L 18.109375 46.1875 
Q 21.34375 51.125 25.703125 53.5625 
Q 30.078125 56 35.796875 56 
Q 45.21875 56 50.046875 50.171875 
Q 54.890625 44.34375 54.890625 33.015625 
z
" id="DejaVuSans-6e"/>
     </defs>
     <g style="fill:#262626;" transform="translate(907.5625 362.198437)scale(0.1 -0.1)">
      <use xlink:href="#DejaVuSans-4f"/>
      <use x="78.710938" xlink:href="#DejaVuSans-63"/>
      <use x="133.691406" xlink:href="#DejaVuSans-63"/>
      <use x="188.671875" xlink:href="#DejaVuSans-75"/>
      <use x="252.050781" xlink:href="#DejaVuSans-70"/>
      <use x="315.527344" xlink:href="#DejaVuSans-61"/>
      <use x="376.806641" xlink:href="#DejaVuSans-6e"/>
      <use x="440.185547" xlink:href="#DejaVuSans-63"/>
      <use x="495.166016" xlink:href="#DejaVuSans-79"/>
     </g>
    </g>
   </g>
  </g>
 </g>
 <defs>
  <clipPath id="pc77a67efc6">
   <rect height="115.2" width="837" x="135" y="69.12"/>
  </clipPath>
  <clipPath id="p4f62f0b6eb">
   <rect height="115.2" width="837" x="135" y="207.36"/>
  </clipPath>
  <clipPath id="p5c9ff254c4">
   <rect height="115.2" width="837" x="135" y="345.6"/>
  </clipPath>
 </defs>
</svg>
