<?xml version="1.0" encoding="utf-8" standalone="no"?>
<!DOCTYPE svg PUBLIC "-//W3C//DTD SVG 1.1//EN"
  "http://www.w3.org/Graphics/SVG/1.1/DTD/svg11.dtd">
<!-- Created with matplotlib (http://matplotlib.org/) -->
<svg height="288pt" version="1.1" viewBox="0 0 432 288" width="432pt" xmlns="http://www.w3.org/2000/svg" xmlns:xlink="http://www.w3.org/1999/xlink">
 <defs>
  <style type="text/css">
*{stroke-linecap:butt;stroke-linejoin:round;}
  </style>
 </defs>
 <g id="figure_1">
  <g id="patch_1">
   <path d="M 0 288 
L 432 288 
L 432 0 
L 0 0 
z
" style="fill:#ffffff;"/>
  </g>
  <g id="axes_1">
   <g id="patch_2">
    <path d="M 54 252 
L 388.8 252 
L 388.8 34.56 
L 54 34.56 
z
" style="fill:#ffffff;"/>
   </g>
   <g id="PathCollection_1">
    <path clip-path="url(#pfc14ed3a44)" d="M 57.381818 252 
L 60.763636 252 
L 64.145455 252 
L 67.527273 252 
L 70.909091 252 
L 74.290909 252 
L 77.672727 252 
L 81.054545 252 
L 84.436364 252 
L 87.818182 252 
L 91.2 252 
L 94.581818 252 
L 97.963636 252 
L 101.345455 252 
L 104.727273 252 
L 108.109091 252 
L 111.490909 252 
L 114.872727 252 
L 118.254545 252 
L 121.636364 252 
L 125.018182 252 
L 128.4 252 
L 131.781818 252 
L 135.163636 252 
L 138.545455 252 
L 141.927273 252 
L 145.309091 252 
L 148.690909 252 
L 152.072727 252 
L 155.454545 252 
L 158.836364 252 
L 162.218182 252 
L 165.6 252 
L 168.981818 252 
L 172.363636 252 
L 175.745455 252 
L 179.127273 252 
L 182.509091 252 
L 185.890909 252 
L 189.272727 252 
L 192.654545 252 
L 196.036364 252 
L 199.418182 252 
L 202.8 252 
L 206.181818 252 
L 209.563636 252 
L 212.945455 252 
L 216.327273 252 
L 219.709091 252 
L 223.090909 252 
L 226.472727 252 
L 229.854545 252 
L 233.236364 252 
L 236.618182 252 
L 240 252 
L 243.381818 252 
L 246.763636 252 
L 250.145455 252 
L 253.527273 252 
L 256.909091 252 
L 260.290909 252 
L 263.672727 252 
L 267.054545 252 
L 270.436364 252 
L 273.818182 252 
L 277.2 252 
L 280.581818 252 
L 283.963636 252 
L 287.345455 252 
L 290.727273 252 
L 294.109091 252 
L 297.490909 252 
L 300.872727 252 
L 304.254545 252 
L 307.636364 252 
L 311.018182 252 
L 314.4 252 
L 317.781818 252 
L 321.163636 252 
L 324.545455 252 
L 327.927273 252 
L 331.309091 252 
L 334.690909 252 
L 338.072727 252 
L 341.454545 252 
L 344.836364 252 
L 348.218182 252 
L 351.6 252 
L 354.981818 252 
L 358.363636 252 
L 361.745455 252 
L 365.127273 252 
L 368.509091 252 
L 371.890909 252 
L 375.272727 252 
L 378.654545 252 
L 382.036364 252 
L 385.418182 252 
L 388.8 252 
L 388.8 250.287874 
L 388.8 248.575748 
L 388.8 246.863622 
L 388.8 245.151496 
L 388.8 243.43937 
L 388.8 241.727244 
L 388.8 240.015118 
L 388.8 238.302992 
L 388.8 236.590866 
L 388.8 234.87874 
L 388.8 233.166614 
L 388.8 231.454488 
L 388.8 229.742362 
L 388.8 228.030236 
L 388.8 226.31811 
L 388.8 224.605984 
L 388.8 222.893858 
L 388.8 221.181732 
L 388.8 219.469606 
L 388.8 217.75748 
L 388.8 216.045354 
L 388.8 214.333228 
L 388.8 212.621102 
L 388.8 210.908976 
L 388.8 209.19685 
L 388.8 207.484724 
L 388.8 205.772598 
L 388.8 204.060472 
L 388.8 202.348346 
L 388.8 200.63622 
L 388.8 198.924094 
L 388.8 197.211969 
L 388.8 195.499843 
L 388.8 193.787717 
L 388.8 192.075591 
L 388.8 190.363465 
L 388.8 188.651339 
L 388.8 186.939213 
L 388.8 185.227087 
L 388.8 183.514961 
L 388.8 181.802835 
L 388.8 180.090709 
L 388.8 178.378583 
L 388.8 176.666457 
L 388.8 174.954331 
L 388.8 173.242205 
L 388.8 171.530079 
L 388.8 171.27326 
L 385.418182 171.27326 
L 382.036364 171.27326 
L 378.654545 171.27326 
L 375.272727 171.27326 
L 371.890909 171.27326 
L 368.509091 171.27326 
L 365.127273 171.27326 
L 361.745455 171.27326 
L 358.363636 171.27326 
L 354.981818 171.27326 
L 351.6 171.27326 
L 348.218182 171.27326 
L 344.836364 171.27326 
L 341.454545 171.27326 
L 338.072727 171.27326 
L 334.690909 171.27326 
L 331.309091 171.27326 
L 327.927273 171.27326 
L 324.545455 171.27326 
L 321.163636 171.27326 
L 317.781818 171.27326 
L 314.4 171.27326 
L 311.018182 171.27326 
L 307.636364 171.27326 
L 304.254545 171.27326 
L 300.872727 171.27326 
L 297.490909 171.27326 
L 294.109091 171.27326 
L 290.727273 171.27326 
L 287.345455 171.27326 
L 283.963636 171.27326 
L 280.581818 171.27326 
L 277.2 171.27326 
L 273.818182 171.27326 
L 270.436364 171.27326 
L 267.054545 171.27326 
L 263.672727 171.27326 
L 260.290909 171.27326 
L 256.909091 171.27326 
L 253.527273 171.27326 
L 250.145455 171.27326 
L 246.763636 171.27326 
L 243.381818 171.27326 
L 240 171.27326 
L 236.618182 171.27326 
L 233.236364 171.27326 
L 229.854545 171.27326 
L 226.472727 171.27326 
L 223.090909 171.27326 
L 219.709091 171.27326 
L 216.327273 171.27326 
L 212.945455 171.27326 
L 210.070909 169.817953 
L 210.070909 168.105827 
L 210.070909 166.393701 
L 210.070909 164.681575 
L 210.070909 162.969449 
L 210.070909 161.257323 
L 210.070909 159.545197 
L 210.070909 157.833071 
L 210.070909 156.120945 
L 210.070909 154.408819 
L 210.070909 152.696693 
L 210.070909 150.984567 
L 210.070909 149.272441 
L 210.070909 147.560315 
L 210.070909 145.848189 
L 210.070909 144.136063 
L 210.070909 142.423937 
L 210.070909 140.711811 
L 210.070909 138.999685 
L 210.070909 137.287559 
L 209.563636 137.03074 
L 206.181818 137.03074 
L 202.8 137.03074 
L 199.418182 137.03074 
L 196.036364 137.03074 
L 192.654545 137.03074 
L 189.272727 137.03074 
L 185.890909 137.03074 
L 182.509091 137.03074 
L 179.127273 137.03074 
L 175.745455 137.03074 
L 172.363636 137.03074 
L 168.981818 137.03074 
L 165.6 137.03074 
L 162.218182 137.03074 
L 158.836364 137.03074 
L 155.454545 137.03074 
L 152.072727 137.03074 
L 148.690909 137.03074 
L 145.309091 137.03074 
L 141.927273 137.03074 
L 138.545455 137.03074 
L 135.163636 137.03074 
L 131.781818 137.03074 
L 128.907273 135.575433 
L 128.907273 133.863307 
L 128.907273 132.151181 
L 128.907273 130.439055 
L 128.907273 128.726929 
L 128.907273 127.014803 
L 128.907273 125.302677 
L 128.907273 123.590551 
L 128.907273 121.878425 
L 128.907273 120.166299 
L 128.907273 118.454173 
L 128.907273 116.742047 
L 128.907273 115.029921 
L 128.907273 113.317795 
L 128.907273 111.605669 
L 128.907273 109.893543 
L 128.907273 108.181417 
L 128.907273 106.469291 
L 128.907273 104.757165 
L 128.907273 103.045039 
L 128.907273 101.332913 
L 128.907273 99.620787 
L 128.907273 97.908661 
L 128.907273 96.196535 
L 128.907273 94.484409 
L 128.907273 92.772283 
L 128.907273 91.060157 
L 128.907273 89.348031 
L 128.907273 87.635906 
L 128.907273 85.92378 
L 128.907273 84.211654 
L 128.907273 82.499528 
L 128.907273 80.787402 
L 128.907273 79.075276 
L 128.907273 77.36315 
L 128.907273 75.651024 
L 128.907273 73.938898 
L 128.907273 72.226772 
L 128.907273 70.514646 
L 128.907273 68.80252 
L 128.907273 67.090394 
L 128.907273 65.378268 
L 128.907273 63.666142 
L 128.907273 61.954016 
L 128.907273 60.24189 
L 128.907273 58.529764 
L 128.907273 56.817638 
L 128.907273 55.105512 
L 128.907273 53.393386 
L 128.907273 51.68126 
L 128.907273 49.969134 
L 128.907273 48.257008 
L 128.907273 46.544882 
L 128.907273 44.832756 
L 128.907273 43.12063 
L 128.907273 41.408504 
L 128.907273 39.696378 
L 128.907273 37.984252 
L 128.907273 36.272126 
L 128.907273 34.56 
L 128.4 34.56 
L 125.018182 34.56 
L 121.636364 34.56 
L 118.254545 34.56 
L 114.872727 34.56 
L 111.490909 34.56 
L 108.109091 34.56 
L 104.727273 34.56 
L 101.345455 34.56 
L 97.963636 34.56 
L 94.581818 34.56 
L 91.2 34.56 
L 87.818182 34.56 
L 84.436364 34.56 
L 81.054545 34.56 
L 77.672727 34.56 
L 74.290909 34.56 
L 70.909091 34.56 
L 67.527273 34.56 
L 64.145455 34.56 
L 60.763636 34.56 
L 57.381818 34.56 
L 54 34.56 
L 54 36.272126 
L 54 37.984252 
L 54 39.696378 
L 54 41.408504 
L 54 43.12063 
L 54 44.832756 
L 54 46.544882 
L 54 48.257008 
L 54 49.969134 
L 54 51.68126 
L 54 53.393386 
L 54 55.105512 
L 54 56.817638 
L 54 58.529764 
L 54 60.24189 
L 54 61.954016 
L 54 63.666142 
L 54 65.378268 
L 54 67.090394 
L 54 68.80252 
L 54 70.514646 
L 54 72.226772 
L 54 73.938898 
L 54 75.651024 
L 54 77.36315 
L 54 79.075276 
L 54 80.787402 
L 54 82.499528 
L 54 84.211654 
L 54 85.92378 
L 54 87.635906 
L 54 89.348031 
L 54 91.060157 
L 54 92.772283 
L 54 94.484409 
L 54 96.196535 
L 54 97.908661 
L 54 99.620787 
L 54 101.332913 
L 54 103.045039 
L 54 104.757165 
L 54 106.469291 
L 54 108.181417 
L 54 109.893543 
L 54 111.605669 
L 54 113.317795 
L 54 115.029921 
L 54 116.742047 
L 54 118.454173 
L 54 120.166299 
L 54 121.878425 
L 54 123.590551 
L 54 125.302677 
L 54 127.014803 
L 54 128.726929 
L 54 130.439055 
L 54 132.151181 
L 54 133.863307 
L 54 135.575433 
L 54 137.287559 
L 54 138.999685 
L 54 140.711811 
L 54 142.423937 
L 54 144.136063 
L 54 145.848189 
L 54 147.560315 
L 54 149.272441 
L 54 150.984567 
L 54 152.696693 
L 54 154.408819 
L 54 156.120945 
L 54 157.833071 
L 54 159.545197 
L 54 161.257323 
L 54 162.969449 
L 54 164.681575 
L 54 166.393701 
L 54 168.105827 
L 54 169.817953 
L 54 171.530079 
L 54 173.242205 
L 54 174.954331 
L 54 176.666457 
L 54 178.378583 
L 54 180.090709 
L 54 181.802835 
L 54 183.514961 
L 54 185.227087 
L 54 186.939213 
L 54 188.651339 
L 54 190.363465 
L 54 192.075591 
L 54 193.787717 
L 54 195.499843 
L 54 197.211969 
L 54 198.924094 
L 54 200.63622 
L 54 202.348346 
L 54 204.060472 
L 54 205.772598 
L 54 207.484724 
L 54 209.19685 
L 54 210.908976 
L 54 212.621102 
L 54 214.333228 
L 54 216.045354 
L 54 217.75748 
L 54 219.469606 
L 54 221.181732 
L 54 222.893858 
L 54 224.605984 
L 54 226.31811 
L 54 228.030236 
L 54 229.742362 
L 54 231.454488 
L 54 233.166614 
L 54 234.87874 
L 54 236.590866 
L 54 238.302992 
L 54 240.015118 
L 54 241.727244 
L 54 243.43937 
L 54 245.151496 
L 54 246.863622 
L 54 248.575748 
L 54 250.287874 
L 54 252 
z
" style="fill:#481b6d;fill-opacity:0.2;"/>
   </g>
   <g id="PathCollection_2">
    <path clip-path="url(#pfc14ed3a44)" d="M 212.945455 171.27326 
L 216.327273 171.27326 
L 219.709091 171.27326 
L 223.090909 171.27326 
L 226.472727 171.27326 
L 229.854545 171.27326 
L 233.236364 171.27326 
L 236.618182 171.27326 
L 240 171.27326 
L 243.381818 171.27326 
L 246.763636 171.27326 
L 250.145455 171.27326 
L 253.527273 171.27326 
L 256.909091 171.27326 
L 260.290909 171.27326 
L 263.672727 171.27326 
L 267.054545 171.27326 
L 270.436364 171.27326 
L 273.818182 171.27326 
L 277.2 171.27326 
L 280.581818 171.27326 
L 283.963636 171.27326 
L 287.345455 171.27326 
L 290.727273 171.27326 
L 294.109091 171.27326 
L 297.490909 171.27326 
L 300.872727 171.27326 
L 304.254545 171.27326 
L 307.636364 171.27326 
L 311.018182 171.27326 
L 314.4 171.27326 
L 317.781818 171.27326 
L 321.163636 171.27326 
L 324.545455 171.27326 
L 327.927273 171.27326 
L 331.309091 171.27326 
L 334.690909 171.27326 
L 338.072727 171.27326 
L 341.454545 171.27326 
L 344.836364 171.27326 
L 348.218182 171.27326 
L 351.6 171.27326 
L 354.981818 171.27326 
L 358.363636 171.27326 
L 361.745455 171.27326 
L 365.127273 171.27326 
L 368.509091 171.27326 
L 371.890909 171.27326 
L 375.272727 171.27326 
L 378.654545 171.27326 
L 382.036364 171.27326 
L 385.418182 171.27326 
L 388.8 171.27326 
L 388.8 171.016441 
L 385.418182 171.016441 
L 382.036364 171.016441 
L 378.654545 171.016441 
L 375.272727 171.016441 
L 371.890909 171.016441 
L 368.509091 171.016441 
L 365.127273 171.016441 
L 361.745455 171.016441 
L 358.363636 171.016441 
L 354.981818 171.016441 
L 351.6 171.016441 
L 348.218182 171.016441 
L 344.836364 171.016441 
L 341.454545 171.016441 
L 338.072727 171.016441 
L 334.690909 171.016441 
L 331.309091 171.016441 
L 327.927273 171.016441 
L 324.545455 171.016441 
L 321.163636 171.016441 
L 317.781818 171.016441 
L 314.4 171.016441 
L 311.018182 171.016441 
L 307.636364 171.016441 
L 304.254545 171.016441 
L 300.872727 171.016441 
L 297.490909 171.016441 
L 294.109091 171.016441 
L 290.727273 171.016441 
L 287.345455 171.016441 
L 283.963636 171.016441 
L 280.581818 171.016441 
L 277.2 171.016441 
L 273.818182 171.016441 
L 270.436364 171.016441 
L 267.054545 171.016441 
L 263.672727 171.016441 
L 260.290909 171.016441 
L 256.909091 171.016441 
L 253.527273 171.016441 
L 250.145455 171.016441 
L 246.763636 171.016441 
L 243.381818 171.016441 
L 240 171.016441 
L 236.618182 171.016441 
L 233.236364 171.016441 
L 229.854545 171.016441 
L 226.472727 171.016441 
L 223.090909 171.016441 
L 219.709091 171.016441 
L 216.327273 171.016441 
L 212.945455 171.016441 
L 210.578182 169.817953 
L 210.578182 168.105827 
L 210.578182 166.393701 
L 210.578182 164.681575 
L 210.578182 162.969449 
L 210.578182 161.257323 
L 210.578182 159.545197 
L 210.578182 157.833071 
L 210.578182 156.120945 
L 210.578182 154.408819 
L 210.578182 152.696693 
L 210.578182 150.984567 
L 210.578182 149.272441 
L 210.578182 147.560315 
L 210.578182 145.848189 
L 210.578182 144.136063 
L 210.578182 142.423937 
L 210.578182 140.711811 
L 210.578182 138.999685 
L 210.578182 137.287559 
L 209.563636 136.773921 
L 206.181818 136.773921 
L 202.8 136.773921 
L 199.418182 136.773921 
L 196.036364 136.773921 
L 192.654545 136.773921 
L 189.272727 136.773921 
L 185.890909 136.773921 
L 182.509091 136.773921 
L 179.127273 136.773921 
L 175.745455 136.773921 
L 172.363636 136.773921 
L 168.981818 136.773921 
L 165.6 136.773921 
L 162.218182 136.773921 
L 158.836364 136.773921 
L 155.454545 136.773921 
L 152.072727 136.773921 
L 148.690909 136.773921 
L 145.309091 136.773921 
L 141.927273 136.773921 
L 138.545455 136.773921 
L 135.163636 136.773921 
L 131.781818 136.773921 
L 129.414545 135.575433 
L 129.414545 133.863307 
L 129.414545 132.151181 
L 129.414545 130.439055 
L 129.414545 128.726929 
L 129.414545 127.014803 
L 129.414545 125.302677 
L 129.414545 123.590551 
L 129.414545 121.878425 
L 129.414545 120.166299 
L 129.414545 118.454173 
L 129.414545 116.742047 
L 129.414545 115.029921 
L 129.414545 113.317795 
L 129.414545 111.605669 
L 129.414545 109.893543 
L 129.414545 108.181417 
L 129.414545 106.469291 
L 129.414545 104.757165 
L 129.414545 103.045039 
L 129.414545 101.332913 
L 129.414545 99.620787 
L 129.414545 97.908661 
L 129.414545 96.196535 
L 129.414545 94.484409 
L 129.414545 92.772283 
L 129.414545 91.060157 
L 129.414545 89.348031 
L 129.414545 87.635906 
L 129.414545 85.92378 
L 129.414545 84.211654 
L 129.414545 82.499528 
L 129.414545 80.787402 
L 129.414545 79.075276 
L 129.414545 77.36315 
L 129.414545 75.651024 
L 129.414545 73.938898 
L 129.414545 72.226772 
L 129.414545 70.514646 
L 129.414545 68.80252 
L 129.414545 67.090394 
L 129.414545 65.378268 
L 129.414545 63.666142 
L 129.414545 61.954016 
L 129.414545 60.24189 
L 129.414545 58.529764 
L 129.414545 56.817638 
L 129.414545 55.105512 
L 129.414545 53.393386 
L 129.414545 51.68126 
L 129.414545 49.969134 
L 129.414545 48.257008 
L 129.414545 46.544882 
L 129.414545 44.832756 
L 129.414545 43.12063 
L 129.414545 41.408504 
L 129.414545 39.696378 
L 129.414545 37.984252 
L 129.414545 36.272126 
L 129.414545 34.56 
L 128.907273 34.56 
L 128.907273 36.272126 
L 128.907273 37.984252 
L 128.907273 39.696378 
L 128.907273 41.408504 
L 128.907273 43.12063 
L 128.907273 44.832756 
L 128.907273 46.544882 
L 128.907273 48.257008 
L 128.907273 49.969134 
L 128.907273 51.68126 
L 128.907273 53.393386 
L 128.907273 55.105512 
L 128.907273 56.817638 
L 128.907273 58.529764 
L 128.907273 60.24189 
L 128.907273 61.954016 
L 128.907273 63.666142 
L 128.907273 65.378268 
L 128.907273 67.090394 
L 128.907273 68.80252 
L 128.907273 70.514646 
L 128.907273 72.226772 
L 128.907273 73.938898 
L 128.907273 75.651024 
L 128.907273 77.36315 
L 128.907273 79.075276 
L 128.907273 80.787402 
L 128.907273 82.499528 
L 128.907273 84.211654 
L 128.907273 85.92378 
L 128.907273 87.635906 
L 128.907273 89.348031 
L 128.907273 91.060157 
L 128.907273 92.772283 
L 128.907273 94.484409 
L 128.907273 96.196535 
L 128.907273 97.908661 
L 128.907273 99.620787 
L 128.907273 101.332913 
L 128.907273 103.045039 
L 128.907273 104.757165 
L 128.907273 106.469291 
L 128.907273 108.181417 
L 128.907273 109.893543 
L 128.907273 111.605669 
L 128.907273 113.317795 
L 128.907273 115.029921 
L 128.907273 116.742047 
L 128.907273 118.454173 
L 128.907273 120.166299 
L 128.907273 121.878425 
L 128.907273 123.590551 
L 128.907273 125.302677 
L 128.907273 127.014803 
L 128.907273 128.726929 
L 128.907273 130.439055 
L 128.907273 132.151181 
L 128.907273 133.863307 
L 128.907273 135.575433 
L 131.781818 137.03074 
L 135.163636 137.03074 
L 138.545455 137.03074 
L 141.927273 137.03074 
L 145.309091 137.03074 
L 148.690909 137.03074 
L 152.072727 137.03074 
L 155.454545 137.03074 
L 158.836364 137.03074 
L 162.218182 137.03074 
L 165.6 137.03074 
L 168.981818 137.03074 
L 172.363636 137.03074 
L 175.745455 137.03074 
L 179.127273 137.03074 
L 182.509091 137.03074 
L 185.890909 137.03074 
L 189.272727 137.03074 
L 192.654545 137.03074 
L 196.036364 137.03074 
L 199.418182 137.03074 
L 202.8 137.03074 
L 206.181818 137.03074 
L 209.563636 137.03074 
L 210.070909 137.287559 
L 210.070909 138.999685 
L 210.070909 140.711811 
L 210.070909 142.423937 
L 210.070909 144.136063 
L 210.070909 145.848189 
L 210.070909 147.560315 
L 210.070909 149.272441 
L 210.070909 150.984567 
L 210.070909 152.696693 
L 210.070909 154.408819 
L 210.070909 156.120945 
L 210.070909 157.833071 
L 210.070909 159.545197 
L 210.070909 161.257323 
L 210.070909 162.969449 
L 210.070909 164.681575 
L 210.070909 166.393701 
L 210.070909 168.105827 
L 210.070909 169.817953 
z
" style="fill:#3f4788;fill-opacity:0.2;"/>
   </g>
   <g id="PathCollection_3">
    <path clip-path="url(#pfc14ed3a44)" d="M 212.945455 171.016441 
L 216.327273 171.016441 
L 219.709091 171.016441 
L 223.090909 171.016441 
L 226.472727 171.016441 
L 229.854545 171.016441 
L 233.236364 171.016441 
L 236.618182 171.016441 
L 240 171.016441 
L 243.381818 171.016441 
L 246.763636 171.016441 
L 250.145455 171.016441 
L 253.527273 171.016441 
L 256.909091 171.016441 
L 260.290909 171.016441 
L 263.672727 171.016441 
L 267.054545 171.016441 
L 270.436364 171.016441 
L 273.818182 171.016441 
L 277.2 171.016441 
L 280.581818 171.016441 
L 283.963636 171.016441 
L 287.345455 171.016441 
L 290.727273 171.016441 
L 294.109091 171.016441 
L 297.490909 171.016441 
L 300.872727 171.016441 
L 304.254545 171.016441 
L 307.636364 171.016441 
L 311.018182 171.016441 
L 314.4 171.016441 
L 317.781818 171.016441 
L 321.163636 171.016441 
L 324.545455 171.016441 
L 327.927273 171.016441 
L 331.309091 171.016441 
L 334.690909 171.016441 
L 338.072727 171.016441 
L 341.454545 171.016441 
L 344.836364 171.016441 
L 348.218182 171.016441 
L 351.6 171.016441 
L 354.981818 171.016441 
L 358.363636 171.016441 
L 361.745455 171.016441 
L 365.127273 171.016441 
L 368.509091 171.016441 
L 371.890909 171.016441 
L 375.272727 171.016441 
L 378.654545 171.016441 
L 382.036364 171.016441 
L 385.418182 171.016441 
L 388.8 171.016441 
L 388.8 170.759622 
L 385.418182 170.759622 
L 382.036364 170.759622 
L 378.654545 170.759622 
L 375.272727 170.759622 
L 371.890909 170.759622 
L 368.509091 170.759622 
L 365.127273 170.759622 
L 361.745455 170.759622 
L 358.363636 170.759622 
L 354.981818 170.759622 
L 351.6 170.759622 
L 348.218182 170.759622 
L 344.836364 170.759622 
L 341.454545 170.759622 
L 338.072727 170.759622 
L 334.690909 170.759622 
L 331.309091 170.759622 
L 327.927273 170.759622 
L 324.545455 170.759622 
L 321.163636 170.759622 
L 317.781818 170.759622 
L 314.4 170.759622 
L 311.018182 170.759622 
L 307.636364 170.759622 
L 304.254545 170.759622 
L 300.872727 170.759622 
L 297.490909 170.759622 
L 294.109091 170.759622 
L 290.727273 170.759622 
L 287.345455 170.759622 
L 283.963636 170.759622 
L 280.581818 170.759622 
L 277.2 170.759622 
L 273.818182 170.759622 
L 270.436364 170.759622 
L 267.054545 170.759622 
L 263.672727 170.759622 
L 260.290909 170.759622 
L 256.909091 170.759622 
L 253.527273 170.759622 
L 250.145455 170.759622 
L 246.763636 170.759622 
L 243.381818 170.759622 
L 240 170.759622 
L 236.618182 170.759622 
L 233.236364 170.759622 
L 229.854545 170.759622 
L 226.472727 170.759622 
L 223.090909 170.759622 
L 219.709091 170.759622 
L 216.327273 170.759622 
L 212.945455 170.759622 
L 211.085455 169.817953 
L 211.085455 168.105827 
L 211.085455 166.393701 
L 211.085455 164.681575 
L 211.085455 162.969449 
L 211.085455 161.257323 
L 211.085455 159.545197 
L 211.085455 157.833071 
L 211.085455 156.120945 
L 211.085455 154.408819 
L 211.085455 152.696693 
L 211.085455 150.984567 
L 211.085455 149.272441 
L 211.085455 147.560315 
L 211.085455 145.848189 
L 211.085455 144.136063 
L 211.085455 142.423937 
L 211.085455 140.711811 
L 211.085455 138.999685 
L 211.085455 137.287559 
L 209.563636 136.517102 
L 206.181818 136.517102 
L 202.8 136.517102 
L 199.418182 136.517102 
L 196.036364 136.517102 
L 192.654545 136.517102 
L 189.272727 136.517102 
L 185.890909 136.517102 
L 182.509091 136.517102 
L 179.127273 136.517102 
L 175.745455 136.517102 
L 172.363636 136.517102 
L 168.981818 136.517102 
L 165.6 136.517102 
L 162.218182 136.517102 
L 158.836364 136.517102 
L 155.454545 136.517102 
L 152.072727 136.517102 
L 148.690909 136.517102 
L 145.309091 136.517102 
L 141.927273 136.517102 
L 138.545455 136.517102 
L 135.163636 136.517102 
L 131.781818 136.517102 
L 129.921818 135.575433 
L 129.921818 133.863307 
L 129.921818 132.151181 
L 129.921818 130.439055 
L 129.921818 128.726929 
L 129.921818 127.014803 
L 129.921818 125.302677 
L 129.921818 123.590551 
L 129.921818 121.878425 
L 129.921818 120.166299 
L 129.921818 118.454173 
L 129.921818 116.742047 
L 129.921818 115.029921 
L 129.921818 113.317795 
L 129.921818 111.605669 
L 129.921818 109.893543 
L 129.921818 108.181417 
L 129.921818 106.469291 
L 129.921818 104.757165 
L 129.921818 103.045039 
L 129.921818 101.332913 
L 129.921818 99.620787 
L 129.921818 97.908661 
L 129.921818 96.196535 
L 129.921818 94.484409 
L 129.921818 92.772283 
L 129.921818 91.060157 
L 129.921818 89.348031 
L 129.921818 87.635906 
L 129.921818 85.92378 
L 129.921818 84.211654 
L 129.921818 82.499528 
L 129.921818 80.787402 
L 129.921818 79.075276 
L 129.921818 77.36315 
L 129.921818 75.651024 
L 129.921818 73.938898 
L 129.921818 72.226772 
L 129.921818 70.514646 
L 129.921818 68.80252 
L 129.921818 67.090394 
L 129.921818 65.378268 
L 129.921818 63.666142 
L 129.921818 61.954016 
L 129.921818 60.24189 
L 129.921818 58.529764 
L 129.921818 56.817638 
L 129.921818 55.105512 
L 129.921818 53.393386 
L 129.921818 51.68126 
L 129.921818 49.969134 
L 129.921818 48.257008 
L 129.921818 46.544882 
L 129.921818 44.832756 
L 129.921818 43.12063 
L 129.921818 41.408504 
L 129.921818 39.696378 
L 129.921818 37.984252 
L 129.921818 36.272126 
L 129.921818 34.56 
L 129.414545 34.56 
L 129.414545 36.272126 
L 129.414545 37.984252 
L 129.414545 39.696378 
L 129.414545 41.408504 
L 129.414545 43.12063 
L 129.414545 44.832756 
L 129.414545 46.544882 
L 129.414545 48.257008 
L 129.414545 49.969134 
L 129.414545 51.68126 
L 129.414545 53.393386 
L 129.414545 55.105512 
L 129.414545 56.817638 
L 129.414545 58.529764 
L 129.414545 60.24189 
L 129.414545 61.954016 
L 129.414545 63.666142 
L 129.414545 65.378268 
L 129.414545 67.090394 
L 129.414545 68.80252 
L 129.414545 70.514646 
L 129.414545 72.226772 
L 129.414545 73.938898 
L 129.414545 75.651024 
L 129.414545 77.36315 
L 129.414545 79.075276 
L 129.414545 80.787402 
L 129.414545 82.499528 
L 129.414545 84.211654 
L 129.414545 85.92378 
L 129.414545 87.635906 
L 129.414545 89.348031 
L 129.414545 91.060157 
L 129.414545 92.772283 
L 129.414545 94.484409 
L 129.414545 96.196535 
L 129.414545 97.908661 
L 129.414545 99.620787 
L 129.414545 101.332913 
L 129.414545 103.045039 
L 129.414545 104.757165 
L 129.414545 106.469291 
L 129.414545 108.181417 
L 129.414545 109.893543 
L 129.414545 111.605669 
L 129.414545 113.317795 
L 129.414545 115.029921 
L 129.414545 116.742047 
L 129.414545 118.454173 
L 129.414545 120.166299 
L 129.414545 121.878425 
L 129.414545 123.590551 
L 129.414545 125.302677 
L 129.414545 127.014803 
L 129.414545 128.726929 
L 129.414545 130.439055 
L 129.414545 132.151181 
L 129.414545 133.863307 
L 129.414545 135.575433 
L 131.781818 136.773921 
L 135.163636 136.773921 
L 138.545455 136.773921 
L 141.927273 136.773921 
L 145.309091 136.773921 
L 148.690909 136.773921 
L 152.072727 136.773921 
L 155.454545 136.773921 
L 158.836364 136.773921 
L 162.218182 136.773921 
L 165.6 136.773921 
L 168.981818 136.773921 
L 172.363636 136.773921 
L 175.745455 136.773921 
L 179.127273 136.773921 
L 182.509091 136.773921 
L 185.890909 136.773921 
L 189.272727 136.773921 
L 192.654545 136.773921 
L 196.036364 136.773921 
L 199.418182 136.773921 
L 202.8 136.773921 
L 206.181818 136.773921 
L 209.563636 136.773921 
L 210.578182 137.287559 
L 210.578182 138.999685 
L 210.578182 140.711811 
L 210.578182 142.423937 
L 210.578182 144.136063 
L 210.578182 145.848189 
L 210.578182 147.560315 
L 210.578182 149.272441 
L 210.578182 150.984567 
L 210.578182 152.696693 
L 210.578182 154.408819 
L 210.578182 156.120945 
L 210.578182 157.833071 
L 210.578182 159.545197 
L 210.578182 161.257323 
L 210.578182 162.969449 
L 210.578182 164.681575 
L 210.578182 166.393701 
L 210.578182 168.105827 
L 210.578182 169.817953 
z
" style="fill:#2e6e8e;fill-opacity:0.2;"/>
   </g>
   <g id="PathCollection_4">
    <path clip-path="url(#pfc14ed3a44)" d="M 212.945455 170.759622 
L 216.327273 170.759622 
L 219.709091 170.759622 
L 223.090909 170.759622 
L 226.472727 170.759622 
L 229.854545 170.759622 
L 233.236364 170.759622 
L 236.618182 170.759622 
L 240 170.759622 
L 243.381818 170.759622 
L 246.763636 170.759622 
L 250.145455 170.759622 
L 253.527273 170.759622 
L 256.909091 170.759622 
L 260.290909 170.759622 
L 263.672727 170.759622 
L 267.054545 170.759622 
L 270.436364 170.759622 
L 273.818182 170.759622 
L 277.2 170.759622 
L 280.581818 170.759622 
L 283.963636 170.759622 
L 287.345455 170.759622 
L 290.727273 170.759622 
L 294.109091 170.759622 
L 297.490909 170.759622 
L 300.872727 170.759622 
L 304.254545 170.759622 
L 307.636364 170.759622 
L 311.018182 170.759622 
L 314.4 170.759622 
L 317.781818 170.759622 
L 321.163636 170.759622 
L 324.545455 170.759622 
L 327.927273 170.759622 
L 331.309091 170.759622 
L 334.690909 170.759622 
L 338.072727 170.759622 
L 341.454545 170.759622 
L 344.836364 170.759622 
L 348.218182 170.759622 
L 351.6 170.759622 
L 354.981818 170.759622 
L 358.363636 170.759622 
L 361.745455 170.759622 
L 365.127273 170.759622 
L 368.509091 170.759622 
L 371.890909 170.759622 
L 375.272727 170.759622 
L 378.654545 170.759622 
L 382.036364 170.759622 
L 385.418182 170.759622 
L 388.8 170.759622 
L 388.8 170.502803 
L 385.418182 170.502803 
L 382.036364 170.502803 
L 378.654545 170.502803 
L 375.272727 170.502803 
L 371.890909 170.502803 
L 368.509091 170.502803 
L 365.127273 170.502803 
L 361.745455 170.502803 
L 358.363636 170.502803 
L 354.981818 170.502803 
L 351.6 170.502803 
L 348.218182 170.502803 
L 344.836364 170.502803 
L 341.454545 170.502803 
L 338.072727 170.502803 
L 334.690909 170.502803 
L 331.309091 170.502803 
L 327.927273 170.502803 
L 324.545455 170.502803 
L 321.163636 170.502803 
L 317.781818 170.502803 
L 314.4 170.502803 
L 311.018182 170.502803 
L 307.636364 170.502803 
L 304.254545 170.502803 
L 300.872727 170.502803 
L 297.490909 170.502803 
L 294.109091 170.502803 
L 290.727273 170.502803 
L 287.345455 170.502803 
L 283.963636 170.502803 
L 280.581818 170.502803 
L 277.2 170.502803 
L 273.818182 170.502803 
L 270.436364 170.502803 
L 267.054545 170.502803 
L 263.672727 170.502803 
L 260.290909 170.502803 
L 256.909091 170.502803 
L 253.527273 170.502803 
L 250.145455 170.502803 
L 246.763636 170.502803 
L 243.381818 170.502803 
L 240 170.502803 
L 236.618182 170.502803 
L 233.236364 170.502803 
L 229.854545 170.502803 
L 226.472727 170.502803 
L 223.090909 170.502803 
L 219.709091 170.502803 
L 216.327273 170.502803 
L 212.945455 170.502803 
L 211.592727 169.817953 
L 211.592727 168.105827 
L 211.592727 166.393701 
L 211.592727 164.681575 
L 211.592727 162.969449 
L 211.592727 161.257323 
L 211.592727 159.545197 
L 211.592727 157.833071 
L 211.592727 156.120945 
L 211.592727 154.408819 
L 211.592727 152.696693 
L 211.592727 150.984567 
L 211.592727 149.272441 
L 211.592727 147.560315 
L 211.592727 145.848189 
L 211.592727 144.136063 
L 211.592727 142.423937 
L 211.592727 140.711811 
L 211.592727 138.999685 
L 211.592727 137.287559 
L 209.563636 136.260283 
L 206.181818 136.260283 
L 202.8 136.260283 
L 199.418182 136.260283 
L 196.036364 136.260283 
L 192.654545 136.260283 
L 189.272727 136.260283 
L 185.890909 136.260283 
L 182.509091 136.260283 
L 179.127273 136.260283 
L 175.745455 136.260283 
L 172.363636 136.260283 
L 168.981818 136.260283 
L 165.6 136.260283 
L 162.218182 136.260283 
L 158.836364 136.260283 
L 155.454545 136.260283 
L 152.072727 136.260283 
L 148.690909 136.260283 
L 145.309091 136.260283 
L 141.927273 136.260283 
L 138.545455 136.260283 
L 135.163636 136.260283 
L 131.781818 136.260283 
L 130.429091 135.575433 
L 130.429091 133.863307 
L 130.429091 132.151181 
L 130.429091 130.439055 
L 130.429091 128.726929 
L 130.429091 127.014803 
L 130.429091 125.302677 
L 130.429091 123.590551 
L 130.429091 121.878425 
L 130.429091 120.166299 
L 130.429091 118.454173 
L 130.429091 116.742047 
L 130.429091 115.029921 
L 130.429091 113.317795 
L 130.429091 111.605669 
L 130.429091 109.893543 
L 130.429091 108.181417 
L 130.429091 106.469291 
L 130.429091 104.757165 
L 130.429091 103.045039 
L 130.429091 101.332913 
L 130.429091 99.620787 
L 130.429091 97.908661 
L 130.429091 96.196535 
L 130.429091 94.484409 
L 130.429091 92.772283 
L 130.429091 91.060157 
L 130.429091 89.348031 
L 130.429091 87.635906 
L 130.429091 85.92378 
L 130.429091 84.211654 
L 130.429091 82.499528 
L 130.429091 80.787402 
L 130.429091 79.075276 
L 130.429091 77.36315 
L 130.429091 75.651024 
L 130.429091 73.938898 
L 130.429091 72.226772 
L 130.429091 70.514646 
L 130.429091 68.80252 
L 130.429091 67.090394 
L 130.429091 65.378268 
L 130.429091 63.666142 
L 130.429091 61.954016 
L 130.429091 60.24189 
L 130.429091 58.529764 
L 130.429091 56.817638 
L 130.429091 55.105512 
L 130.429091 53.393386 
L 130.429091 51.68126 
L 130.429091 49.969134 
L 130.429091 48.257008 
L 130.429091 46.544882 
L 130.429091 44.832756 
L 130.429091 43.12063 
L 130.429091 41.408504 
L 130.429091 39.696378 
L 130.429091 37.984252 
L 130.429091 36.272126 
L 130.429091 34.56 
L 129.921818 34.56 
L 129.921818 36.272126 
L 129.921818 37.984252 
L 129.921818 39.696378 
L 129.921818 41.408504 
L 129.921818 43.12063 
L 129.921818 44.832756 
L 129.921818 46.544882 
L 129.921818 48.257008 
L 129.921818 49.969134 
L 129.921818 51.68126 
L 129.921818 53.393386 
L 129.921818 55.105512 
L 129.921818 56.817638 
L 129.921818 58.529764 
L 129.921818 60.24189 
L 129.921818 61.954016 
L 129.921818 63.666142 
L 129.921818 65.378268 
L 129.921818 67.090394 
L 129.921818 68.80252 
L 129.921818 70.514646 
L 129.921818 72.226772 
L 129.921818 73.938898 
L 129.921818 75.651024 
L 129.921818 77.36315 
L 129.921818 79.075276 
L 129.921818 80.787402 
L 129.921818 82.499528 
L 129.921818 84.211654 
L 129.921818 85.92378 
L 129.921818 87.635906 
L 129.921818 89.348031 
L 129.921818 91.060157 
L 129.921818 92.772283 
L 129.921818 94.484409 
L 129.921818 96.196535 
L 129.921818 97.908661 
L 129.921818 99.620787 
L 129.921818 101.332913 
L 129.921818 103.045039 
L 129.921818 104.757165 
L 129.921818 106.469291 
L 129.921818 108.181417 
L 129.921818 109.893543 
L 129.921818 111.605669 
L 129.921818 113.317795 
L 129.921818 115.029921 
L 129.921818 116.742047 
L 129.921818 118.454173 
L 129.921818 120.166299 
L 129.921818 121.878425 
L 129.921818 123.590551 
L 129.921818 125.302677 
L 129.921818 127.014803 
L 129.921818 128.726929 
L 129.921818 130.439055 
L 129.921818 132.151181 
L 129.921818 133.863307 
L 129.921818 135.575433 
L 131.781818 136.517102 
L 135.163636 136.517102 
L 138.545455 136.517102 
L 141.927273 136.517102 
L 145.309091 136.517102 
L 148.690909 136.517102 
L 152.072727 136.517102 
L 155.454545 136.517102 
L 158.836364 136.517102 
L 162.218182 136.517102 
L 165.6 136.517102 
L 168.981818 136.517102 
L 172.363636 136.517102 
L 175.745455 136.517102 
L 179.127273 136.517102 
L 182.509091 136.517102 
L 185.890909 136.517102 
L 189.272727 136.517102 
L 192.654545 136.517102 
L 196.036364 136.517102 
L 199.418182 136.517102 
L 202.8 136.517102 
L 206.181818 136.517102 
L 209.563636 136.517102 
L 211.085455 137.287559 
L 211.085455 138.999685 
L 211.085455 140.711811 
L 211.085455 142.423937 
L 211.085455 144.136063 
L 211.085455 145.848189 
L 211.085455 147.560315 
L 211.085455 149.272441 
L 211.085455 150.984567 
L 211.085455 152.696693 
L 211.085455 154.408819 
L 211.085455 156.120945 
L 211.085455 157.833071 
L 211.085455 159.545197 
L 211.085455 161.257323 
L 211.085455 162.969449 
L 211.085455 164.681575 
L 211.085455 166.393701 
L 211.085455 168.105827 
L 211.085455 169.817953 
z
" style="fill:#21918c;fill-opacity:0.2;"/>
   </g>
   <g id="PathCollection_5">
    <path clip-path="url(#pfc14ed3a44)" d="M 212.945455 170.502803 
L 216.327273 170.502803 
L 219.709091 170.502803 
L 223.090909 170.502803 
L 226.472727 170.502803 
L 229.854545 170.502803 
L 233.236364 170.502803 
L 236.618182 170.502803 
L 240 170.502803 
L 243.381818 170.502803 
L 246.763636 170.502803 
L 250.145455 170.502803 
L 253.527273 170.502803 
L 256.909091 170.502803 
L 260.290909 170.502803 
L 263.672727 170.502803 
L 267.054545 170.502803 
L 270.436364 170.502803 
L 273.818182 170.502803 
L 277.2 170.502803 
L 280.581818 170.502803 
L 283.963636 170.502803 
L 287.345455 170.502803 
L 290.727273 170.502803 
L 294.109091 170.502803 
L 297.490909 170.502803 
L 300.872727 170.502803 
L 304.254545 170.502803 
L 307.636364 170.502803 
L 311.018182 170.502803 
L 314.4 170.502803 
L 317.781818 170.502803 
L 321.163636 170.502803 
L 324.545455 170.502803 
L 327.927273 170.502803 
L 331.309091 170.502803 
L 334.690909 170.502803 
L 338.072727 170.502803 
L 341.454545 170.502803 
L 344.836364 170.502803 
L 348.218182 170.502803 
L 351.6 170.502803 
L 354.981818 170.502803 
L 358.363636 170.502803 
L 361.745455 170.502803 
L 365.127273 170.502803 
L 368.509091 170.502803 
L 371.890909 170.502803 
L 375.272727 170.502803 
L 378.654545 170.502803 
L 382.036364 170.502803 
L 385.418182 170.502803 
L 388.8 170.502803 
L 388.8 170.245984 
L 385.418182 170.245984 
L 382.036364 170.245984 
L 378.654545 170.245984 
L 375.272727 170.245984 
L 371.890909 170.245984 
L 368.509091 170.245984 
L 365.127273 170.245984 
L 361.745455 170.245984 
L 358.363636 170.245984 
L 354.981818 170.245984 
L 351.6 170.245984 
L 348.218182 170.245984 
L 344.836364 170.245984 
L 341.454545 170.245984 
L 338.072727 170.245984 
L 334.690909 170.245984 
L 331.309091 170.245984 
L 327.927273 170.245984 
L 324.545455 170.245984 
L 321.163636 170.245984 
L 317.781818 170.245984 
L 314.4 170.245984 
L 311.018182 170.245984 
L 307.636364 170.245984 
L 304.254545 170.245984 
L 300.872727 170.245984 
L 297.490909 170.245984 
L 294.109091 170.245984 
L 290.727273 170.245984 
L 287.345455 170.245984 
L 283.963636 170.245984 
L 280.581818 170.245984 
L 277.2 170.245984 
L 273.818182 170.245984 
L 270.436364 170.245984 
L 267.054545 170.245984 
L 263.672727 170.245984 
L 260.290909 170.245984 
L 256.909091 170.245984 
L 253.527273 170.245984 
L 250.145455 170.245984 
L 246.763636 170.245984 
L 243.381818 170.245984 
L 240 170.245984 
L 236.618182 170.245984 
L 233.236364 170.245984 
L 229.854545 170.245984 
L 226.472727 170.245984 
L 223.090909 170.245984 
L 219.709091 170.245984 
L 216.327273 170.245984 
L 212.945455 170.245984 
L 212.1 169.817953 
L 212.1 168.105827 
L 212.1 166.393701 
L 212.1 164.681575 
L 212.1 162.969449 
L 212.1 161.257323 
L 212.1 159.545197 
L 212.1 157.833071 
L 212.1 156.120945 
L 212.1 154.408819 
L 212.1 152.696693 
L 212.1 150.984567 
L 212.1 149.272441 
L 212.1 147.560315 
L 212.1 145.848189 
L 212.1 144.136063 
L 212.1 142.423937 
L 212.1 140.711811 
L 212.1 138.999685 
L 212.1 137.287559 
L 209.563636 136.003465 
L 206.181818 136.003465 
L 202.8 136.003465 
L 199.418182 136.003465 
L 196.036364 136.003465 
L 192.654545 136.003465 
L 189.272727 136.003465 
L 185.890909 136.003465 
L 182.509091 136.003465 
L 179.127273 136.003465 
L 175.745455 136.003465 
L 172.363636 136.003465 
L 168.981818 136.003465 
L 165.6 136.003465 
L 162.218182 136.003465 
L 158.836364 136.003465 
L 155.454545 136.003465 
L 152.072727 136.003465 
L 148.690909 136.003465 
L 145.309091 136.003465 
L 141.927273 136.003465 
L 138.545455 136.003465 
L 135.163636 136.003465 
L 131.781818 136.003465 
L 130.936364 135.575433 
L 130.936364 133.863307 
L 130.936364 132.151181 
L 130.936364 130.439055 
L 130.936364 128.726929 
L 130.936364 127.014803 
L 130.936364 125.302677 
L 130.936364 123.590551 
L 130.936364 121.878425 
L 130.936364 120.166299 
L 130.936364 118.454173 
L 130.936364 116.742047 
L 130.936364 115.029921 
L 130.936364 113.317795 
L 130.936364 111.605669 
L 130.936364 109.893543 
L 130.936364 108.181417 
L 130.936364 106.469291 
L 130.936364 104.757165 
L 130.936364 103.045039 
L 130.936364 101.332913 
L 130.936364 99.620787 
L 130.936364 97.908661 
L 130.936364 96.196535 
L 130.936364 94.484409 
L 130.936364 92.772283 
L 130.936364 91.060157 
L 130.936364 89.348031 
L 130.936364 87.635906 
L 130.936364 85.92378 
L 130.936364 84.211654 
L 130.936364 82.499528 
L 130.936364 80.787402 
L 130.936364 79.075276 
L 130.936364 77.36315 
L 130.936364 75.651024 
L 130.936364 73.938898 
L 130.936364 72.226772 
L 130.936364 70.514646 
L 130.936364 68.80252 
L 130.936364 67.090394 
L 130.936364 65.378268 
L 130.936364 63.666142 
L 130.936364 61.954016 
L 130.936364 60.24189 
L 130.936364 58.529764 
L 130.936364 56.817638 
L 130.936364 55.105512 
L 130.936364 53.393386 
L 130.936364 51.68126 
L 130.936364 49.969134 
L 130.936364 48.257008 
L 130.936364 46.544882 
L 130.936364 44.832756 
L 130.936364 43.12063 
L 130.936364 41.408504 
L 130.936364 39.696378 
L 130.936364 37.984252 
L 130.936364 36.272126 
L 130.936364 34.56 
L 130.429091 34.56 
L 130.429091 36.272126 
L 130.429091 37.984252 
L 130.429091 39.696378 
L 130.429091 41.408504 
L 130.429091 43.12063 
L 130.429091 44.832756 
L 130.429091 46.544882 
L 130.429091 48.257008 
L 130.429091 49.969134 
L 130.429091 51.68126 
L 130.429091 53.393386 
L 130.429091 55.105512 
L 130.429091 56.817638 
L 130.429091 58.529764 
L 130.429091 60.24189 
L 130.429091 61.954016 
L 130.429091 63.666142 
L 130.429091 65.378268 
L 130.429091 67.090394 
L 130.429091 68.80252 
L 130.429091 70.514646 
L 130.429091 72.226772 
L 130.429091 73.938898 
L 130.429091 75.651024 
L 130.429091 77.36315 
L 130.429091 79.075276 
L 130.429091 80.787402 
L 130.429091 82.499528 
L 130.429091 84.211654 
L 130.429091 85.92378 
L 130.429091 87.635906 
L 130.429091 89.348031 
L 130.429091 91.060157 
L 130.429091 92.772283 
L 130.429091 94.484409 
L 130.429091 96.196535 
L 130.429091 97.908661 
L 130.429091 99.620787 
L 130.429091 101.332913 
L 130.429091 103.045039 
L 130.429091 104.757165 
L 130.429091 106.469291 
L 130.429091 108.181417 
L 130.429091 109.893543 
L 130.429091 111.605669 
L 130.429091 113.317795 
L 130.429091 115.029921 
L 130.429091 116.742047 
L 130.429091 118.454173 
L 130.429091 120.166299 
L 130.429091 121.878425 
L 130.429091 123.590551 
L 130.429091 125.302677 
L 130.429091 127.014803 
L 130.429091 128.726929 
L 130.429091 130.439055 
L 130.429091 132.151181 
L 130.429091 133.863307 
L 130.429091 135.575433 
L 131.781818 136.260283 
L 135.163636 136.260283 
L 138.545455 136.260283 
L 141.927273 136.260283 
L 145.309091 136.260283 
L 148.690909 136.260283 
L 152.072727 136.260283 
L 155.454545 136.260283 
L 158.836364 136.260283 
L 162.218182 136.260283 
L 165.6 136.260283 
L 168.981818 136.260283 
L 172.363636 136.260283 
L 175.745455 136.260283 
L 179.127273 136.260283 
L 182.509091 136.260283 
L 185.890909 136.260283 
L 189.272727 136.260283 
L 192.654545 136.260283 
L 196.036364 136.260283 
L 199.418182 136.260283 
L 202.8 136.260283 
L 206.181818 136.260283 
L 209.563636 136.260283 
L 211.592727 137.287559 
L 211.592727 138.999685 
L 211.592727 140.711811 
L 211.592727 142.423937 
L 211.592727 144.136063 
L 211.592727 145.848189 
L 211.592727 147.560315 
L 211.592727 149.272441 
L 211.592727 150.984567 
L 211.592727 152.696693 
L 211.592727 154.408819 
L 211.592727 156.120945 
L 211.592727 157.833071 
L 211.592727 159.545197 
L 211.592727 161.257323 
L 211.592727 162.969449 
L 211.592727 164.681575 
L 211.592727 166.393701 
L 211.592727 168.105827 
L 211.592727 169.817953 
z
" style="fill:#2db27d;fill-opacity:0.2;"/>
   </g>
   <g id="PathCollection_6">
    <path clip-path="url(#pfc14ed3a44)" d="M 212.945455 170.245984 
L 216.327273 170.245984 
L 219.709091 170.245984 
L 223.090909 170.245984 
L 226.472727 170.245984 
L 229.854545 170.245984 
L 233.236364 170.245984 
L 236.618182 170.245984 
L 240 170.245984 
L 243.381818 170.245984 
L 246.763636 170.245984 
L 250.145455 170.245984 
L 253.527273 170.245984 
L 256.909091 170.245984 
L 260.290909 170.245984 
L 263.672727 170.245984 
L 267.054545 170.245984 
L 270.436364 170.245984 
L 273.818182 170.245984 
L 277.2 170.245984 
L 280.581818 170.245984 
L 283.963636 170.245984 
L 287.345455 170.245984 
L 290.727273 170.245984 
L 294.109091 170.245984 
L 297.490909 170.245984 
L 300.872727 170.245984 
L 304.254545 170.245984 
L 307.636364 170.245984 
L 311.018182 170.245984 
L 314.4 170.245984 
L 317.781818 170.245984 
L 321.163636 170.245984 
L 324.545455 170.245984 
L 327.927273 170.245984 
L 331.309091 170.245984 
L 334.690909 170.245984 
L 338.072727 170.245984 
L 341.454545 170.245984 
L 344.836364 170.245984 
L 348.218182 170.245984 
L 351.6 170.245984 
L 354.981818 170.245984 
L 358.363636 170.245984 
L 361.745455 170.245984 
L 365.127273 170.245984 
L 368.509091 170.245984 
L 371.890909 170.245984 
L 375.272727 170.245984 
L 378.654545 170.245984 
L 382.036364 170.245984 
L 385.418182 170.245984 
L 388.8 170.245984 
L 388.8 169.989165 
L 385.418182 169.989165 
L 382.036364 169.989165 
L 378.654545 169.989165 
L 375.272727 169.989165 
L 371.890909 169.989165 
L 368.509091 169.989165 
L 365.127273 169.989165 
L 361.745455 169.989165 
L 358.363636 169.989165 
L 354.981818 169.989165 
L 351.6 169.989165 
L 348.218182 169.989165 
L 344.836364 169.989165 
L 341.454545 169.989165 
L 338.072727 169.989165 
L 334.690909 169.989165 
L 331.309091 169.989165 
L 327.927273 169.989165 
L 324.545455 169.989165 
L 321.163636 169.989165 
L 317.781818 169.989165 
L 314.4 169.989165 
L 311.018182 169.989165 
L 307.636364 169.989165 
L 304.254545 169.989165 
L 300.872727 169.989165 
L 297.490909 169.989165 
L 294.109091 169.989165 
L 290.727273 169.989165 
L 287.345455 169.989165 
L 283.963636 169.989165 
L 280.581818 169.989165 
L 277.2 169.989165 
L 273.818182 169.989165 
L 270.436364 169.989165 
L 267.054545 169.989165 
L 263.672727 169.989165 
L 260.290909 169.989165 
L 256.909091 169.989165 
L 253.527273 169.989165 
L 250.145455 169.989165 
L 246.763636 169.989165 
L 243.381818 169.989165 
L 240 169.989165 
L 236.618182 169.989165 
L 233.236364 169.989165 
L 229.854545 169.989165 
L 226.472727 169.989165 
L 223.090909 169.989165 
L 219.709091 169.989165 
L 216.327273 169.989165 
L 212.945455 169.989165 
L 212.607273 169.817953 
L 212.607273 168.105827 
L 212.607273 166.393701 
L 212.607273 164.681575 
L 212.607273 162.969449 
L 212.607273 161.257323 
L 212.607273 159.545197 
L 212.607273 157.833071 
L 212.607273 156.120945 
L 212.607273 154.408819 
L 212.607273 152.696693 
L 212.607273 150.984567 
L 212.607273 149.272441 
L 212.607273 147.560315 
L 212.607273 145.848189 
L 212.607273 144.136063 
L 212.607273 142.423937 
L 212.607273 140.711811 
L 212.607273 138.999685 
L 212.607273 137.287559 
L 209.563636 135.746646 
L 206.181818 135.746646 
L 202.8 135.746646 
L 199.418182 135.746646 
L 196.036364 135.746646 
L 192.654545 135.746646 
L 189.272727 135.746646 
L 185.890909 135.746646 
L 182.509091 135.746646 
L 179.127273 135.746646 
L 175.745455 135.746646 
L 172.363636 135.746646 
L 168.981818 135.746646 
L 165.6 135.746646 
L 162.218182 135.746646 
L 158.836364 135.746646 
L 155.454545 135.746646 
L 152.072727 135.746646 
L 148.690909 135.746646 
L 145.309091 135.746646 
L 141.927273 135.746646 
L 138.545455 135.746646 
L 135.163636 135.746646 
L 131.781818 135.746646 
L 131.443636 135.575433 
L 131.443636 133.863307 
L 131.443636 132.151181 
L 131.443636 130.439055 
L 131.443636 128.726929 
L 131.443636 127.014803 
L 131.443636 125.302677 
L 131.443636 123.590551 
L 131.443636 121.878425 
L 131.443636 120.166299 
L 131.443636 118.454173 
L 131.443636 116.742047 
L 131.443636 115.029921 
L 131.443636 113.317795 
L 131.443636 111.605669 
L 131.443636 109.893543 
L 131.443636 108.181417 
L 131.443636 106.469291 
L 131.443636 104.757165 
L 131.443636 103.045039 
L 131.443636 101.332913 
L 131.443636 99.620787 
L 131.443636 97.908661 
L 131.443636 96.196535 
L 131.443636 94.484409 
L 131.443636 92.772283 
L 131.443636 91.060157 
L 131.443636 89.348031 
L 131.443636 87.635906 
L 131.443636 85.92378 
L 131.443636 84.211654 
L 131.443636 82.499528 
L 131.443636 80.787402 
L 131.443636 79.075276 
L 131.443636 77.36315 
L 131.443636 75.651024 
L 131.443636 73.938898 
L 131.443636 72.226772 
L 131.443636 70.514646 
L 131.443636 68.80252 
L 131.443636 67.090394 
L 131.443636 65.378268 
L 131.443636 63.666142 
L 131.443636 61.954016 
L 131.443636 60.24189 
L 131.443636 58.529764 
L 131.443636 56.817638 
L 131.443636 55.105512 
L 131.443636 53.393386 
L 131.443636 51.68126 
L 131.443636 49.969134 
L 131.443636 48.257008 
L 131.443636 46.544882 
L 131.443636 44.832756 
L 131.443636 43.12063 
L 131.443636 41.408504 
L 131.443636 39.696378 
L 131.443636 37.984252 
L 131.443636 36.272126 
L 131.443636 34.56 
L 130.936364 34.56 
L 130.936364 36.272126 
L 130.936364 37.984252 
L 130.936364 39.696378 
L 130.936364 41.408504 
L 130.936364 43.12063 
L 130.936364 44.832756 
L 130.936364 46.544882 
L 130.936364 48.257008 
L 130.936364 49.969134 
L 130.936364 51.68126 
L 130.936364 53.393386 
L 130.936364 55.105512 
L 130.936364 56.817638 
L 130.936364 58.529764 
L 130.936364 60.24189 
L 130.936364 61.954016 
L 130.936364 63.666142 
L 130.936364 65.378268 
L 130.936364 67.090394 
L 130.936364 68.80252 
L 130.936364 70.514646 
L 130.936364 72.226772 
L 130.936364 73.938898 
L 130.936364 75.651024 
L 130.936364 77.36315 
L 130.936364 79.075276 
L 130.936364 80.787402 
L 130.936364 82.499528 
L 130.936364 84.211654 
L 130.936364 85.92378 
L 130.936364 87.635906 
L 130.936364 89.348031 
L 130.936364 91.060157 
L 130.936364 92.772283 
L 130.936364 94.484409 
L 130.936364 96.196535 
L 130.936364 97.908661 
L 130.936364 99.620787 
L 130.936364 101.332913 
L 130.936364 103.045039 
L 130.936364 104.757165 
L 130.936364 106.469291 
L 130.936364 108.181417 
L 130.936364 109.893543 
L 130.936364 111.605669 
L 130.936364 113.317795 
L 130.936364 115.029921 
L 130.936364 116.742047 
L 130.936364 118.454173 
L 130.936364 120.166299 
L 130.936364 121.878425 
L 130.936364 123.590551 
L 130.936364 125.302677 
L 130.936364 127.014803 
L 130.936364 128.726929 
L 130.936364 130.439055 
L 130.936364 132.151181 
L 130.936364 133.863307 
L 130.936364 135.575433 
L 131.781818 136.003465 
L 135.163636 136.003465 
L 138.545455 136.003465 
L 141.927273 136.003465 
L 145.309091 136.003465 
L 148.690909 136.003465 
L 152.072727 136.003465 
L 155.454545 136.003465 
L 158.836364 136.003465 
L 162.218182 136.003465 
L 165.6 136.003465 
L 168.981818 136.003465 
L 172.363636 136.003465 
L 175.745455 136.003465 
L 179.127273 136.003465 
L 182.509091 136.003465 
L 185.890909 136.003465 
L 189.272727 136.003465 
L 192.654545 136.003465 
L 196.036364 136.003465 
L 199.418182 136.003465 
L 202.8 136.003465 
L 206.181818 136.003465 
L 209.563636 136.003465 
L 212.1 137.287559 
L 212.1 138.999685 
L 212.1 140.711811 
L 212.1 142.423937 
L 212.1 144.136063 
L 212.1 145.848189 
L 212.1 147.560315 
L 212.1 149.272441 
L 212.1 150.984567 
L 212.1 152.696693 
L 212.1 154.408819 
L 212.1 156.120945 
L 212.1 157.833071 
L 212.1 159.545197 
L 212.1 161.257323 
L 212.1 162.969449 
L 212.1 164.681575 
L 212.1 166.393701 
L 212.1 168.105827 
L 212.1 169.817953 
z
" style="fill:#73d056;fill-opacity:0.2;"/>
   </g>
   <g id="PathCollection_7">
    <path clip-path="url(#pfc14ed3a44)" d="M 212.945455 169.989165 
L 216.327273 169.989165 
L 219.709091 169.989165 
L 223.090909 169.989165 
L 226.472727 169.989165 
L 229.854545 169.989165 
L 233.236364 169.989165 
L 236.618182 169.989165 
L 240 169.989165 
L 243.381818 169.989165 
L 246.763636 169.989165 
L 250.145455 169.989165 
L 253.527273 169.989165 
L 256.909091 169.989165 
L 260.290909 169.989165 
L 263.672727 169.989165 
L 267.054545 169.989165 
L 270.436364 169.989165 
L 273.818182 169.989165 
L 277.2 169.989165 
L 280.581818 169.989165 
L 283.963636 169.989165 
L 287.345455 169.989165 
L 290.727273 169.989165 
L 294.109091 169.989165 
L 297.490909 169.989165 
L 300.872727 169.989165 
L 304.254545 169.989165 
L 307.636364 169.989165 
L 311.018182 169.989165 
L 314.4 169.989165 
L 317.781818 169.989165 
L 321.163636 169.989165 
L 324.545455 169.989165 
L 327.927273 169.989165 
L 331.309091 169.989165 
L 334.690909 169.989165 
L 338.072727 169.989165 
L 341.454545 169.989165 
L 344.836364 169.989165 
L 348.218182 169.989165 
L 351.6 169.989165 
L 354.981818 169.989165 
L 358.363636 169.989165 
L 361.745455 169.989165 
L 365.127273 169.989165 
L 368.509091 169.989165 
L 371.890909 169.989165 
L 375.272727 169.989165 
L 378.654545 169.989165 
L 382.036364 169.989165 
L 385.418182 169.989165 
L 388.8 169.989165 
L 388.8 169.817953 
L 388.8 168.105827 
L 388.8 166.393701 
L 388.8 164.681575 
L 388.8 162.969449 
L 388.8 161.257323 
L 388.8 159.545197 
L 388.8 157.833071 
L 388.8 156.120945 
L 388.8 154.408819 
L 388.8 152.696693 
L 388.8 150.984567 
L 388.8 149.272441 
L 388.8 147.560315 
L 388.8 145.848189 
L 388.8 144.136063 
L 388.8 142.423937 
L 388.8 140.711811 
L 388.8 138.999685 
L 388.8 137.287559 
L 388.8 135.575433 
L 388.8 133.863307 
L 388.8 132.151181 
L 388.8 130.439055 
L 388.8 128.726929 
L 388.8 127.014803 
L 388.8 125.302677 
L 388.8 123.590551 
L 388.8 121.878425 
L 388.8 120.166299 
L 388.8 118.454173 
L 388.8 116.742047 
L 388.8 115.029921 
L 388.8 113.317795 
L 388.8 111.605669 
L 388.8 109.893543 
L 388.8 108.181417 
L 388.8 106.469291 
L 388.8 104.757165 
L 388.8 103.045039 
L 388.8 101.332913 
L 388.8 99.620787 
L 388.8 97.908661 
L 388.8 96.196535 
L 388.8 94.484409 
L 388.8 92.772283 
L 388.8 91.060157 
L 388.8 89.348031 
L 388.8 87.635906 
L 388.8 85.92378 
L 388.8 84.211654 
L 388.8 82.499528 
L 388.8 80.787402 
L 388.8 79.075276 
L 388.8 77.36315 
L 388.8 75.651024 
L 388.8 73.938898 
L 388.8 72.226772 
L 388.8 70.514646 
L 388.8 68.80252 
L 388.8 67.090394 
L 388.8 65.378268 
L 388.8 63.666142 
L 388.8 61.954016 
L 388.8 60.24189 
L 388.8 58.529764 
L 388.8 56.817638 
L 388.8 55.105512 
L 388.8 53.393386 
L 388.8 51.68126 
L 388.8 49.969134 
L 388.8 48.257008 
L 388.8 46.544882 
L 388.8 44.832756 
L 388.8 43.12063 
L 388.8 41.408504 
L 388.8 39.696378 
L 388.8 37.984252 
L 388.8 36.272126 
L 388.8 34.56 
L 385.418182 34.56 
L 382.036364 34.56 
L 378.654545 34.56 
L 375.272727 34.56 
L 371.890909 34.56 
L 368.509091 34.56 
L 365.127273 34.56 
L 361.745455 34.56 
L 358.363636 34.56 
L 354.981818 34.56 
L 351.6 34.56 
L 348.218182 34.56 
L 344.836364 34.56 
L 341.454545 34.56 
L 338.072727 34.56 
L 334.690909 34.56 
L 331.309091 34.56 
L 327.927273 34.56 
L 324.545455 34.56 
L 321.163636 34.56 
L 317.781818 34.56 
L 314.4 34.56 
L 311.018182 34.56 
L 307.636364 34.56 
L 304.254545 34.56 
L 300.872727 34.56 
L 297.490909 34.56 
L 294.109091 34.56 
L 290.727273 34.56 
L 287.345455 34.56 
L 283.963636 34.56 
L 280.581818 34.56 
L 277.2 34.56 
L 273.818182 34.56 
L 270.436364 34.56 
L 267.054545 34.56 
L 263.672727 34.56 
L 260.290909 34.56 
L 256.909091 34.56 
L 253.527273 34.56 
L 250.145455 34.56 
L 246.763636 34.56 
L 243.381818 34.56 
L 240 34.56 
L 236.618182 34.56 
L 233.236364 34.56 
L 229.854545 34.56 
L 226.472727 34.56 
L 223.090909 34.56 
L 219.709091 34.56 
L 216.327273 34.56 
L 212.945455 34.56 
L 209.563636 34.56 
L 206.181818 34.56 
L 202.8 34.56 
L 199.418182 34.56 
L 196.036364 34.56 
L 192.654545 34.56 
L 189.272727 34.56 
L 185.890909 34.56 
L 182.509091 34.56 
L 179.127273 34.56 
L 175.745455 34.56 
L 172.363636 34.56 
L 168.981818 34.56 
L 165.6 34.56 
L 162.218182 34.56 
L 158.836364 34.56 
L 155.454545 34.56 
L 152.072727 34.56 
L 148.690909 34.56 
L 145.309091 34.56 
L 141.927273 34.56 
L 138.545455 34.56 
L 135.163636 34.56 
L 131.781818 34.56 
L 131.443636 34.56 
L 131.443636 36.272126 
L 131.443636 37.984252 
L 131.443636 39.696378 
L 131.443636 41.408504 
L 131.443636 43.12063 
L 131.443636 44.832756 
L 131.443636 46.544882 
L 131.443636 48.257008 
L 131.443636 49.969134 
L 131.443636 51.68126 
L 131.443636 53.393386 
L 131.443636 55.105512 
L 131.443636 56.817638 
L 131.443636 58.529764 
L 131.443636 60.24189 
L 131.443636 61.954016 
L 131.443636 63.666142 
L 131.443636 65.378268 
L 131.443636 67.090394 
L 131.443636 68.80252 
L 131.443636 70.514646 
L 131.443636 72.226772 
L 131.443636 73.938898 
L 131.443636 75.651024 
L 131.443636 77.36315 
L 131.443636 79.075276 
L 131.443636 80.787402 
L 131.443636 82.499528 
L 131.443636 84.211654 
L 131.443636 85.92378 
L 131.443636 87.635906 
L 131.443636 89.348031 
L 131.443636 91.060157 
L 131.443636 92.772283 
L 131.443636 94.484409 
L 131.443636 96.196535 
L 131.443636 97.908661 
L 131.443636 99.620787 
L 131.443636 101.332913 
L 131.443636 103.045039 
L 131.443636 104.757165 
L 131.443636 106.469291 
L 131.443636 108.181417 
L 131.443636 109.893543 
L 131.443636 111.605669 
L 131.443636 113.317795 
L 131.443636 115.029921 
L 131.443636 116.742047 
L 131.443636 118.454173 
L 131.443636 120.166299 
L 131.443636 121.878425 
L 131.443636 123.590551 
L 131.443636 125.302677 
L 131.443636 127.014803 
L 131.443636 128.726929 
L 131.443636 130.439055 
L 131.443636 132.151181 
L 131.443636 133.863307 
L 131.443636 135.575433 
L 131.781818 135.746646 
L 135.163636 135.746646 
L 138.545455 135.746646 
L 141.927273 135.746646 
L 145.309091 135.746646 
L 148.690909 135.746646 
L 152.072727 135.746646 
L 155.454545 135.746646 
L 158.836364 135.746646 
L 162.218182 135.746646 
L 165.6 135.746646 
L 168.981818 135.746646 
L 172.363636 135.746646 
L 175.745455 135.746646 
L 179.127273 135.746646 
L 182.509091 135.746646 
L 185.890909 135.746646 
L 189.272727 135.746646 
L 192.654545 135.746646 
L 196.036364 135.746646 
L 199.418182 135.746646 
L 202.8 135.746646 
L 206.181818 135.746646 
L 209.563636 135.746646 
L 212.607273 137.287559 
L 212.607273 138.999685 
L 212.607273 140.711811 
L 212.607273 142.423937 
L 212.607273 144.136063 
L 212.607273 145.848189 
L 212.607273 147.560315 
L 212.607273 149.272441 
L 212.607273 150.984567 
L 212.607273 152.696693 
L 212.607273 154.408819 
L 212.607273 156.120945 
L 212.607273 157.833071 
L 212.607273 159.545197 
L 212.607273 161.257323 
L 212.607273 162.969449 
L 212.607273 164.681575 
L 212.607273 166.393701 
L 212.607273 168.105827 
L 212.607273 169.817953 
z
" style="fill:#d0e11c;fill-opacity:0.2;"/>
   </g>
   <g id="PathCollection_8">
    <defs>
     <path d="M 0 3.535534 
C 0.937635 3.535534 1.836992 3.163008 2.5 2.5 
C 3.163008 1.836992 3.535534 0.937635 3.535534 0 
C 3.535534 -0.937635 3.163008 -1.836992 2.5 -2.5 
C 1.836992 -3.163008 0.937635 -3.535534 0 -3.535534 
C -0.937635 -3.535534 -1.836992 -3.163008 -2.5 -2.5 
C -3.163008 -1.836992 -3.535534 -0.937635 -3.535534 0 
C -3.535534 0.937635 -3.163008 1.836992 -2.5 2.5 
C -1.836992 3.163008 -0.937635 3.535534 0 3.535534 
z
" id="me3027a4afb" style="stroke:#0000ff;"/>
    </defs>
    <g clip-path="url(#pfc14ed3a44)">
     <use style="fill:#0000ff;stroke:#0000ff;" x="134.281424" xlink:href="#me3027a4afb" y="203.326739"/>
     <use style="fill:#0000ff;stroke:#0000ff;" x="167.253798" xlink:href="#me3027a4afb" y="146.763596"/>
     <use style="fill:#0000ff;stroke:#0000ff;" x="163.215525" xlink:href="#me3027a4afb" y="160.803081"/>
     <use style="fill:#0000ff;stroke:#0000ff;" x="151.342842" xlink:href="#me3027a4afb" y="198.566866"/>
     <use style="fill:#0000ff;stroke:#0000ff;" x="271.942416" xlink:href="#me3027a4afb" y="211.635542"/>
     <use style="fill:#0000ff;stroke:#0000ff;" x="125.988073" xlink:href="#me3027a4afb" y="185.960257"/>
     <use style="fill:#0000ff;stroke:#0000ff;" x="187.093668" xlink:href="#me3027a4afb" y="183.426464"/>
     <use style="fill:#0000ff;stroke:#0000ff;" x="249.583679" xlink:href="#me3027a4afb" y="195.320109"/>
     <use style="fill:#0000ff;stroke:#0000ff;" x="145.541242" xlink:href="#me3027a4afb" y="154.506924"/>
     <use style="fill:#0000ff;stroke:#0000ff;" x="167.169473" xlink:href="#me3027a4afb" y="159.919935"/>
     <use style="fill:#0000ff;stroke:#0000ff;" x="177.25812" xlink:href="#me3027a4afb" y="182.17518"/>
     <use style="fill:#0000ff;stroke:#0000ff;" x="154.840251" xlink:href="#me3027a4afb" y="199.803205"/>
     <use style="fill:#0000ff;stroke:#0000ff;" x="176.300958" xlink:href="#me3027a4afb" y="184.817319"/>
     <use style="fill:#0000ff;stroke:#0000ff;" x="245.271374" xlink:href="#me3027a4afb" y="156.713781"/>
     <use style="fill:#0000ff;stroke:#0000ff;" x="221.891971" xlink:href="#me3027a4afb" y="171.01571"/>
     <use style="fill:#0000ff;stroke:#0000ff;" x="127.053268" xlink:href="#me3027a4afb" y="166.074326"/>
     <use style="fill:#0000ff;stroke:#0000ff;" x="182.55685" xlink:href="#me3027a4afb" y="173.784638"/>
     <use style="fill:#0000ff;stroke:#0000ff;" x="235.242885" xlink:href="#me3027a4afb" y="228.679184"/>
     <use style="fill:#0000ff;stroke:#0000ff;" x="170.537887" xlink:href="#me3027a4afb" y="165.239976"/>
     <use style="fill:#0000ff;stroke:#0000ff;" x="105.242728" xlink:href="#me3027a4afb" y="146.372209"/>
     <use style="fill:#0000ff;stroke:#0000ff;" x="218.478609" xlink:href="#me3027a4afb" y="136.739109"/>
     <use style="fill:#0000ff;stroke:#0000ff;" x="127.023651" xlink:href="#me3027a4afb" y="176.096128"/>
     <use style="fill:#0000ff;stroke:#0000ff;" x="206.772102" xlink:href="#me3027a4afb" y="193.330301"/>
     <use style="fill:#0000ff;stroke:#0000ff;" x="172.746215" xlink:href="#me3027a4afb" y="156.20099"/>
     <use style="fill:#0000ff;stroke:#0000ff;" x="170.758759" xlink:href="#me3027a4afb" y="121.832356"/>
     <use style="fill:#0000ff;stroke:#0000ff;" x="143.631377" xlink:href="#me3027a4afb" y="174.651227"/>
     <use style="fill:#0000ff;stroke:#0000ff;" x="152.327324" xlink:href="#me3027a4afb" y="198.31594"/>
     <use style="fill:#0000ff;stroke:#0000ff;" x="122.805587" xlink:href="#me3027a4afb" y="143.594855"/>
     <use style="fill:#0000ff;stroke:#0000ff;" x="149.796036" xlink:href="#me3027a4afb" y="180.926724"/>
     <use style="fill:#0000ff;stroke:#0000ff;" x="175.561203" xlink:href="#me3027a4afb" y="153.038779"/>
     <use style="fill:#0000ff;stroke:#0000ff;" x="218.587168" xlink:href="#me3027a4afb" y="204.018163"/>
     <use style="fill:#0000ff;stroke:#0000ff;" x="150.477502" xlink:href="#me3027a4afb" y="160.705285"/>
     <use style="fill:#0000ff;stroke:#0000ff;" x="104.39603" xlink:href="#me3027a4afb" y="169.750639"/>
     <use style="fill:#0000ff;stroke:#0000ff;" x="169.192381" xlink:href="#me3027a4afb" y="153.269203"/>
     <use style="fill:#0000ff;stroke:#0000ff;" x="243.472747" xlink:href="#me3027a4afb" y="191.481938"/>
     <use style="fill:#0000ff;stroke:#0000ff;" x="129.623185" xlink:href="#me3027a4afb" y="157.844095"/>
     <use style="fill:#0000ff;stroke:#0000ff;" x="185.85533" xlink:href="#me3027a4afb" y="177.711701"/>
     <use style="fill:#0000ff;stroke:#0000ff;" x="87.818182" xlink:href="#me3027a4afb" y="188.726514"/>
     <use style="fill:#0000ff;stroke:#0000ff;" x="147.484905" xlink:href="#me3027a4afb" y="162.150346"/>
     <use style="fill:#0000ff;stroke:#0000ff;" x="144.718791" xlink:href="#me3027a4afb" y="185.634119"/>
     <use style="fill:#0000ff;stroke:#0000ff;" x="163.651476" xlink:href="#me3027a4afb" y="192.130129"/>
     <use style="fill:#0000ff;stroke:#0000ff;" x="206.809375" xlink:href="#me3027a4afb" y="162.865873"/>
     <use style="fill:#0000ff;stroke:#0000ff;" x="177.085437" xlink:href="#me3027a4afb" y="227.704826"/>
     <use style="fill:#0000ff;stroke:#0000ff;" x="126.21574" xlink:href="#me3027a4afb" y="197.477355"/>
     <use style="fill:#0000ff;stroke:#0000ff;" x="123.172834" xlink:href="#me3027a4afb" y="132.305445"/>
     <use style="fill:#0000ff;stroke:#0000ff;" x="103.117304" xlink:href="#me3027a4afb" y="184.742658"/>
     <use style="fill:#0000ff;stroke:#0000ff;" x="171.133341" xlink:href="#me3027a4afb" y="172.71451"/>
     <use style="fill:#0000ff;stroke:#0000ff;" x="203.633477" xlink:href="#me3027a4afb" y="151.858416"/>
     <use style="fill:#0000ff;stroke:#0000ff;" x="204.973906" xlink:href="#me3027a4afb" y="234.87874"/>
     <use style="fill:#0000ff;stroke:#0000ff;" x="142.036955" xlink:href="#me3027a4afb" y="192.174681"/>
    </g>
   </g>
   <g id="PathCollection_9">
    <defs>
     <path d="M 0 3.535534 
C 0.937635 3.535534 1.836992 3.163008 2.5 2.5 
C 3.163008 1.836992 3.535534 0.937635 3.535534 0 
C 3.535534 -0.937635 3.163008 -1.836992 2.5 -2.5 
C 1.836992 -3.163008 0.937635 -3.535534 0 -3.535534 
C -0.937635 -3.535534 -1.836992 -3.163008 -2.5 -2.5 
C -3.163008 -1.836992 -3.535534 -0.937635 -3.535534 0 
C -3.535534 0.937635 -3.163008 1.836992 -2.5 2.5 
C -1.836992 3.163008 -0.937635 3.535534 0 3.535534 
z
" id="mbd3af51add" style="stroke:#00ff80;"/>
    </defs>
    <g clip-path="url(#pfc14ed3a44)">
     <use style="fill:#00ff80;stroke:#00ff80;" x="223.107824" xlink:href="#mbd3af51add" y="123.140862"/>
     <use style="fill:#00ff80;stroke:#00ff80;" x="255.117918" xlink:href="#mbd3af51add" y="136.674687"/>
     <use style="fill:#00ff80;stroke:#00ff80;" x="219.532907" xlink:href="#mbd3af51add" y="122.795661"/>
     <use style="fill:#00ff80;stroke:#00ff80;" x="339.838723" xlink:href="#mbd3af51add" y="155.98797"/>
     <use style="fill:#00ff80;stroke:#00ff80;" x="268.92743" xlink:href="#mbd3af51add" y="123.299285"/>
     <use style="fill:#00ff80;stroke:#00ff80;" x="215.205962" xlink:href="#mbd3af51add" y="106.448234"/>
     <use style="fill:#00ff80;stroke:#00ff80;" x="241.331403" xlink:href="#mbd3af51add" y="114.904143"/>
     <use style="fill:#00ff80;stroke:#00ff80;" x="287.571311" xlink:href="#mbd3af51add" y="97.796566"/>
     <use style="fill:#00ff80;stroke:#00ff80;" x="229.593632" xlink:href="#mbd3af51add" y="136.101399"/>
     <use style="fill:#00ff80;stroke:#00ff80;" x="230.925709" xlink:href="#mbd3af51add" y="113.098015"/>
     <use style="fill:#00ff80;stroke:#00ff80;" x="240.504315" xlink:href="#mbd3af51add" y="89.756628"/>
     <use style="fill:#00ff80;stroke:#00ff80;" x="254.235694" xlink:href="#mbd3af51add" y="74.073353"/>
     <use style="fill:#00ff80;stroke:#00ff80;" x="269.386724" xlink:href="#mbd3af51add" y="106.089901"/>
     <use style="fill:#00ff80;stroke:#00ff80;" x="164.157065" xlink:href="#mbd3af51add" y="99.23334"/>
     <use style="fill:#00ff80;stroke:#00ff80;" x="253.83122" xlink:href="#mbd3af51add" y="111.772545"/>
     <use style="fill:#00ff80;stroke:#00ff80;" x="255.568832" xlink:href="#mbd3af51add" y="103.74941"/>
     <use style="fill:#00ff80;stroke:#00ff80;" x="232.658154" xlink:href="#mbd3af51add" y="91.404664"/>
     <use style="fill:#00ff80;stroke:#00ff80;" x="166.313006" xlink:href="#mbd3af51add" y="93.146994"/>
     <use style="fill:#00ff80;stroke:#00ff80;" x="159.056004" xlink:href="#mbd3af51add" y="99.191949"/>
     <use style="fill:#00ff80;stroke:#00ff80;" x="246.492742" xlink:href="#mbd3af51add" y="140.987756"/>
     <use style="fill:#00ff80;stroke:#00ff80;" x="271.633922" xlink:href="#mbd3af51add" y="129.359831"/>
     <use style="fill:#00ff80;stroke:#00ff80;" x="266.276909" xlink:href="#mbd3af51add" y="131.778671"/>
     <use style="fill:#00ff80;stroke:#00ff80;" x="227.461749" xlink:href="#mbd3af51add" y="127.193453"/>
     <use style="fill:#00ff80;stroke:#00ff80;" x="281.407239" xlink:href="#mbd3af51add" y="51.120067"/>
     <use style="fill:#00ff80;stroke:#00ff80;" x="167.874904" xlink:href="#mbd3af51add" y="85.113498"/>
     <use style="fill:#00ff80;stroke:#00ff80;" x="249.178531" xlink:href="#mbd3af51add" y="92.041619"/>
     <use style="fill:#00ff80;stroke:#00ff80;" x="251.099715" xlink:href="#mbd3af51add" y="109.858013"/>
     <use style="fill:#00ff80;stroke:#00ff80;" x="272.786725" xlink:href="#mbd3af51add" y="88.013849"/>
     <use style="fill:#00ff80;stroke:#00ff80;" x="262.142299" xlink:href="#mbd3af51add" y="149.08153"/>
     <use style="fill:#00ff80;stroke:#00ff80;" x="202.479709" xlink:href="#mbd3af51add" y="132.891371"/>
     <use style="fill:#00ff80;stroke:#00ff80;" x="134.460148" xlink:href="#mbd3af51add" y="75.538809"/>
     <use style="fill:#00ff80;stroke:#00ff80;" x="278.744594" xlink:href="#mbd3af51add" y="101.801884"/>
     <use style="fill:#00ff80;stroke:#00ff80;" x="259.264515" xlink:href="#mbd3af51add" y="96.492196"/>
     <use style="fill:#00ff80;stroke:#00ff80;" x="285.596962" xlink:href="#mbd3af51add" y="96.784499"/>
     <use style="fill:#00ff80;stroke:#00ff80;" x="293.324665" xlink:href="#mbd3af51add" y="56.766947"/>
     <use style="fill:#00ff80;stroke:#00ff80;" x="356.965568" xlink:href="#mbd3af51add" y="113.671249"/>
     <use style="fill:#00ff80;stroke:#00ff80;" x="296.251688" xlink:href="#mbd3af51add" y="114.664447"/>
     <use style="fill:#00ff80;stroke:#00ff80;" x="269.847867" xlink:href="#mbd3af51add" y="80.462591"/>
     <use style="fill:#00ff80;stroke:#00ff80;" x="206.028888" xlink:href="#mbd3af51add" y="75.838166"/>
     <use style="fill:#00ff80;stroke:#00ff80;" x="173.168609" xlink:href="#mbd3af51add" y="102.935777"/>
     <use style="fill:#00ff80;stroke:#00ff80;" x="325.328642" xlink:href="#mbd3af51add" y="78.751802"/>
     <use style="fill:#00ff80;stroke:#00ff80;" x="219.246325" xlink:href="#mbd3af51add" y="109.898864"/>
     <use style="fill:#00ff80;stroke:#00ff80;" x="195.894181" xlink:href="#mbd3af51add" y="84.133951"/>
     <use style="fill:#00ff80;stroke:#00ff80;" x="311.276784" xlink:href="#mbd3af51add" y="98.605059"/>
     <use style="fill:#00ff80;stroke:#00ff80;" x="242.947874" xlink:href="#mbd3af51add" y="109.16351"/>
     <use style="fill:#00ff80;stroke:#00ff80;" x="257.257836" xlink:href="#mbd3af51add" y="101.103254"/>
     <use style="fill:#00ff80;stroke:#00ff80;" x="226.747583" xlink:href="#mbd3af51add" y="148.781925"/>
     <use style="fill:#00ff80;stroke:#00ff80;" x="212.979122" xlink:href="#mbd3af51add" y="169.817073"/>
     <use style="fill:#00ff80;stroke:#00ff80;" x="221.789031" xlink:href="#mbd3af51add" y="110.343374"/>
     <use style="fill:#00ff80;stroke:#00ff80;" x="263.208589" xlink:href="#mbd3af51add" y="115.498947"/>
    </g>
   </g>
   <g id="matplotlib.axis_1">
    <g id="xtick_1">
     <g id="line2d_1">
      <defs>
       <path d="M 0 0 
L 0 3.5 
" id="mc866da44ff" style="stroke:#000000;stroke-width:0.8;"/>
      </defs>
      <g>
       <use style="stroke:#000000;stroke-width:0.8;" x="59.619591" xlink:href="#mc866da44ff" y="252"/>
      </g>
     </g>
     <g id="text_1">
      <!-- 16 -->
      <defs>
       <path d="M 12.40625 8.296875 
L 28.515625 8.296875 
L 28.515625 63.921875 
L 10.984375 60.40625 
L 10.984375 69.390625 
L 28.421875 72.90625 
L 38.28125 72.90625 
L 38.28125 8.296875 
L 54.390625 8.296875 
L 54.390625 0 
L 12.40625 0 
z
" id="DejaVuSans-31"/>
       <path d="M 33.015625 40.375 
Q 26.375 40.375 22.484375 35.828125 
Q 18.609375 31.296875 18.609375 23.390625 
Q 18.609375 15.53125 22.484375 10.953125 
Q 26.375 6.390625 33.015625 6.390625 
Q 39.65625 6.390625 43.53125 10.953125 
Q 47.40625 15.53125 47.40625 23.390625 
Q 47.40625 31.296875 43.53125 35.828125 
Q 39.65625 40.375 33.015625 40.375 
z
M 52.59375 71.296875 
L 52.59375 62.3125 
Q 48.875 64.0625 45.09375 64.984375 
Q 41.3125 65.921875 37.59375 65.921875 
Q 27.828125 65.921875 22.671875 59.328125 
Q 17.53125 52.734375 16.796875 39.40625 
Q 19.671875 43.65625 24.015625 45.921875 
Q 28.375 48.1875 33.59375 48.1875 
Q 44.578125 48.1875 50.953125 41.515625 
Q 57.328125 34.859375 57.328125 23.390625 
Q 57.328125 12.15625 50.6875 5.359375 
Q 44.046875 -1.421875 33.015625 -1.421875 
Q 20.359375 -1.421875 13.671875 8.265625 
Q 6.984375 17.96875 6.984375 36.375 
Q 6.984375 53.65625 15.1875 63.9375 
Q 23.390625 74.21875 37.203125 74.21875 
Q 40.921875 74.21875 44.703125 73.484375 
Q 48.484375 72.75 52.59375 71.296875 
z
" id="DejaVuSans-36"/>
      </defs>
      <g transform="translate(53.257091 266.598437)scale(0.1 -0.1)">
       <use xlink:href="#DejaVuSans-31"/>
       <use x="63.623047" xlink:href="#DejaVuSans-36"/>
      </g>
     </g>
    </g>
    <g id="xtick_2">
     <g id="line2d_2">
      <g>
       <use style="stroke:#000000;stroke-width:0.8;" x="127.255955" xlink:href="#mc866da44ff" y="252"/>
      </g>
     </g>
     <g id="text_2">
      <!-- 18 -->
      <defs>
       <path d="M 31.78125 34.625 
Q 24.75 34.625 20.71875 30.859375 
Q 16.703125 27.09375 16.703125 20.515625 
Q 16.703125 13.921875 20.71875 10.15625 
Q 24.75 6.390625 31.78125 6.390625 
Q 38.8125 6.390625 42.859375 10.171875 
Q 46.921875 13.96875 46.921875 20.515625 
Q 46.921875 27.09375 42.890625 30.859375 
Q 38.875 34.625 31.78125 34.625 
z
M 21.921875 38.8125 
Q 15.578125 40.375 12.03125 44.71875 
Q 8.5 49.078125 8.5 55.328125 
Q 8.5 64.0625 14.71875 69.140625 
Q 20.953125 74.21875 31.78125 74.21875 
Q 42.671875 74.21875 48.875 69.140625 
Q 55.078125 64.0625 55.078125 55.328125 
Q 55.078125 49.078125 51.53125 44.71875 
Q 48 40.375 41.703125 38.8125 
Q 48.828125 37.15625 52.796875 32.3125 
Q 56.78125 27.484375 56.78125 20.515625 
Q 56.78125 9.90625 50.3125 4.234375 
Q 43.84375 -1.421875 31.78125 -1.421875 
Q 19.734375 -1.421875 13.25 4.234375 
Q 6.78125 9.90625 6.78125 20.515625 
Q 6.78125 27.484375 10.78125 32.3125 
Q 14.796875 37.15625 21.921875 38.8125 
z
M 18.3125 54.390625 
Q 18.3125 48.734375 21.84375 45.5625 
Q 25.390625 42.390625 31.78125 42.390625 
Q 38.140625 42.390625 41.71875 45.5625 
Q 45.3125 48.734375 45.3125 54.390625 
Q 45.3125 60.0625 41.71875 63.234375 
Q 38.140625 66.40625 31.78125 66.40625 
Q 25.390625 66.40625 21.84375 63.234375 
Q 18.3125 60.0625 18.3125 54.390625 
z
" id="DejaVuSans-38"/>
      </defs>
      <g transform="translate(120.893455 266.598437)scale(0.1 -0.1)">
       <use xlink:href="#DejaVuSans-31"/>
       <use x="63.623047" xlink:href="#DejaVuSans-38"/>
      </g>
     </g>
    </g>
    <g id="xtick_3">
     <g id="line2d_3">
      <g>
       <use style="stroke:#000000;stroke-width:0.8;" x="194.892318" xlink:href="#mc866da44ff" y="252"/>
      </g>
     </g>
     <g id="text_3">
      <!-- 20 -->
      <defs>
       <path d="M 19.1875 8.296875 
L 53.609375 8.296875 
L 53.609375 0 
L 7.328125 0 
L 7.328125 8.296875 
Q 12.9375 14.109375 22.625 23.890625 
Q 32.328125 33.6875 34.8125 36.53125 
Q 39.546875 41.84375 41.421875 45.53125 
Q 43.3125 49.21875 43.3125 52.78125 
Q 43.3125 58.59375 39.234375 62.25 
Q 35.15625 65.921875 28.609375 65.921875 
Q 23.96875 65.921875 18.8125 64.3125 
Q 13.671875 62.703125 7.8125 59.421875 
L 7.8125 69.390625 
Q 13.765625 71.78125 18.9375 73 
Q 24.125 74.21875 28.421875 74.21875 
Q 39.75 74.21875 46.484375 68.546875 
Q 53.21875 62.890625 53.21875 53.421875 
Q 53.21875 48.921875 51.53125 44.890625 
Q 49.859375 40.875 45.40625 35.40625 
Q 44.1875 33.984375 37.640625 27.21875 
Q 31.109375 20.453125 19.1875 8.296875 
z
" id="DejaVuSans-32"/>
       <path d="M 31.78125 66.40625 
Q 24.171875 66.40625 20.328125 58.90625 
Q 16.5 51.421875 16.5 36.375 
Q 16.5 21.390625 20.328125 13.890625 
Q 24.171875 6.390625 31.78125 6.390625 
Q 39.453125 6.390625 43.28125 13.890625 
Q 47.125 21.390625 47.125 36.375 
Q 47.125 51.421875 43.28125 58.90625 
Q 39.453125 66.40625 31.78125 66.40625 
z
M 31.78125 74.21875 
Q 44.046875 74.21875 50.515625 64.515625 
Q 56.984375 54.828125 56.984375 36.375 
Q 56.984375 17.96875 50.515625 8.265625 
Q 44.046875 -1.421875 31.78125 -1.421875 
Q 19.53125 -1.421875 13.0625 8.265625 
Q 6.59375 17.96875 6.59375 36.375 
Q 6.59375 54.828125 13.0625 64.515625 
Q 19.53125 74.21875 31.78125 74.21875 
z
" id="DejaVuSans-30"/>
      </defs>
      <g transform="translate(188.529818 266.598437)scale(0.1 -0.1)">
       <use xlink:href="#DejaVuSans-32"/>
       <use x="63.623047" xlink:href="#DejaVuSans-30"/>
      </g>
     </g>
    </g>
    <g id="xtick_4">
     <g id="line2d_4">
      <g>
       <use style="stroke:#000000;stroke-width:0.8;" x="262.528682" xlink:href="#mc866da44ff" y="252"/>
      </g>
     </g>
     <g id="text_4">
      <!-- 22 -->
      <g transform="translate(256.166182 266.598437)scale(0.1 -0.1)">
       <use xlink:href="#DejaVuSans-32"/>
       <use x="63.623047" xlink:href="#DejaVuSans-32"/>
      </g>
     </g>
    </g>
    <g id="xtick_5">
     <g id="line2d_5">
      <g>
       <use style="stroke:#000000;stroke-width:0.8;" x="330.165046" xlink:href="#mc866da44ff" y="252"/>
      </g>
     </g>
     <g id="text_5">
      <!-- 24 -->
      <defs>
       <path d="M 37.796875 64.3125 
L 12.890625 25.390625 
L 37.796875 25.390625 
z
M 35.203125 72.90625 
L 47.609375 72.90625 
L 47.609375 25.390625 
L 58.015625 25.390625 
L 58.015625 17.1875 
L 47.609375 17.1875 
L 47.609375 0 
L 37.796875 0 
L 37.796875 17.1875 
L 4.890625 17.1875 
L 4.890625 26.703125 
z
" id="DejaVuSans-34"/>
      </defs>
      <g transform="translate(323.802546 266.598437)scale(0.1 -0.1)">
       <use xlink:href="#DejaVuSans-32"/>
       <use x="63.623047" xlink:href="#DejaVuSans-34"/>
      </g>
     </g>
    </g>
    <g id="text_6">
     <!-- Temperature -->
     <defs>
      <path d="M -0.296875 72.90625 
L 61.375 72.90625 
L 61.375 64.59375 
L 35.5 64.59375 
L 35.5 0 
L 25.59375 0 
L 25.59375 64.59375 
L -0.296875 64.59375 
z
" id="DejaVuSans-54"/>
      <path d="M 56.203125 29.59375 
L 56.203125 25.203125 
L 14.890625 25.203125 
Q 15.484375 15.921875 20.484375 11.0625 
Q 25.484375 6.203125 34.421875 6.203125 
Q 39.59375 6.203125 44.453125 7.46875 
Q 49.3125 8.734375 54.109375 11.28125 
L 54.109375 2.78125 
Q 49.265625 0.734375 44.1875 -0.34375 
Q 39.109375 -1.421875 33.890625 -1.421875 
Q 20.796875 -1.421875 13.15625 6.1875 
Q 5.515625 13.8125 5.515625 26.8125 
Q 5.515625 40.234375 12.765625 48.109375 
Q 20.015625 56 32.328125 56 
Q 43.359375 56 49.78125 48.890625 
Q 56.203125 41.796875 56.203125 29.59375 
z
M 47.21875 32.234375 
Q 47.125 39.59375 43.09375 43.984375 
Q 39.0625 48.390625 32.421875 48.390625 
Q 24.90625 48.390625 20.390625 44.140625 
Q 15.875 39.890625 15.1875 32.171875 
z
" id="DejaVuSans-65"/>
      <path d="M 52 44.1875 
Q 55.375 50.25 60.0625 53.125 
Q 64.75 56 71.09375 56 
Q 79.640625 56 84.28125 50.015625 
Q 88.921875 44.046875 88.921875 33.015625 
L 88.921875 0 
L 79.890625 0 
L 79.890625 32.71875 
Q 79.890625 40.578125 77.09375 44.375 
Q 74.3125 48.1875 68.609375 48.1875 
Q 61.625 48.1875 57.5625 43.546875 
Q 53.515625 38.921875 53.515625 30.90625 
L 53.515625 0 
L 44.484375 0 
L 44.484375 32.71875 
Q 44.484375 40.625 41.703125 44.40625 
Q 38.921875 48.1875 33.109375 48.1875 
Q 26.21875 48.1875 22.15625 43.53125 
Q 18.109375 38.875 18.109375 30.90625 
L 18.109375 0 
L 9.078125 0 
L 9.078125 54.6875 
L 18.109375 54.6875 
L 18.109375 46.1875 
Q 21.1875 51.21875 25.484375 53.609375 
Q 29.78125 56 35.6875 56 
Q 41.65625 56 45.828125 52.96875 
Q 50 49.953125 52 44.1875 
z
" id="DejaVuSans-6d"/>
      <path d="M 18.109375 8.203125 
L 18.109375 -20.796875 
L 9.078125 -20.796875 
L 9.078125 54.6875 
L 18.109375 54.6875 
L 18.109375 46.390625 
Q 20.953125 51.265625 25.265625 53.625 
Q 29.59375 56 35.59375 56 
Q 45.5625 56 51.78125 48.09375 
Q 58.015625 40.1875 58.015625 27.296875 
Q 58.015625 14.40625 51.78125 6.484375 
Q 45.5625 -1.421875 35.59375 -1.421875 
Q 29.59375 -1.421875 25.265625 0.953125 
Q 20.953125 3.328125 18.109375 8.203125 
z
M 48.6875 27.296875 
Q 48.6875 37.203125 44.609375 42.84375 
Q 40.53125 48.484375 33.40625 48.484375 
Q 26.265625 48.484375 22.1875 42.84375 
Q 18.109375 37.203125 18.109375 27.296875 
Q 18.109375 17.390625 22.1875 11.75 
Q 26.265625 6.109375 33.40625 6.109375 
Q 40.53125 6.109375 44.609375 11.75 
Q 48.6875 17.390625 48.6875 27.296875 
z
" id="DejaVuSans-70"/>
      <path d="M 41.109375 46.296875 
Q 39.59375 47.171875 37.8125 47.578125 
Q 36.03125 48 33.890625 48 
Q 26.265625 48 22.1875 43.046875 
Q 18.109375 38.09375 18.109375 28.8125 
L 18.109375 0 
L 9.078125 0 
L 9.078125 54.6875 
L 18.109375 54.6875 
L 18.109375 46.1875 
Q 20.953125 51.171875 25.484375 53.578125 
Q 30.03125 56 36.53125 56 
Q 37.453125 56 38.578125 55.875 
Q 39.703125 55.765625 41.0625 55.515625 
z
" id="DejaVuSans-72"/>
      <path d="M 34.28125 27.484375 
Q 23.390625 27.484375 19.1875 25 
Q 14.984375 22.515625 14.984375 16.5 
Q 14.984375 11.71875 18.140625 8.90625 
Q 21.296875 6.109375 26.703125 6.109375 
Q 34.1875 6.109375 38.703125 11.40625 
Q 43.21875 16.703125 43.21875 25.484375 
L 43.21875 27.484375 
z
M 52.203125 31.203125 
L 52.203125 0 
L 43.21875 0 
L 43.21875 8.296875 
Q 40.140625 3.328125 35.546875 0.953125 
Q 30.953125 -1.421875 24.3125 -1.421875 
Q 15.921875 -1.421875 10.953125 3.296875 
Q 6 8.015625 6 15.921875 
Q 6 25.140625 12.171875 29.828125 
Q 18.359375 34.515625 30.609375 34.515625 
L 43.21875 34.515625 
L 43.21875 35.40625 
Q 43.21875 41.609375 39.140625 45 
Q 35.0625 48.390625 27.6875 48.390625 
Q 23 48.390625 18.546875 47.265625 
Q 14.109375 46.140625 10.015625 43.890625 
L 10.015625 52.203125 
Q 14.9375 54.109375 19.578125 55.046875 
Q 24.21875 56 28.609375 56 
Q 40.484375 56 46.34375 49.84375 
Q 52.203125 43.703125 52.203125 31.203125 
z
" id="DejaVuSans-61"/>
      <path d="M 18.3125 70.21875 
L 18.3125 54.6875 
L 36.8125 54.6875 
L 36.8125 47.703125 
L 18.3125 47.703125 
L 18.3125 18.015625 
Q 18.3125 11.328125 20.140625 9.421875 
Q 21.96875 7.515625 27.59375 7.515625 
L 36.8125 7.515625 
L 36.8125 0 
L 27.59375 0 
Q 17.1875 0 13.234375 3.875 
Q 9.28125 7.765625 9.28125 18.015625 
L 9.28125 47.703125 
L 2.6875 47.703125 
L 2.6875 54.6875 
L 9.28125 54.6875 
L 9.28125 70.21875 
z
" id="DejaVuSans-74"/>
      <path d="M 8.5 21.578125 
L 8.5 54.6875 
L 17.484375 54.6875 
L 17.484375 21.921875 
Q 17.484375 14.15625 20.5 10.265625 
Q 23.53125 6.390625 29.59375 6.390625 
Q 36.859375 6.390625 41.078125 11.03125 
Q 45.3125 15.671875 45.3125 23.6875 
L 45.3125 54.6875 
L 54.296875 54.6875 
L 54.296875 0 
L 45.3125 0 
L 45.3125 8.40625 
Q 42.046875 3.421875 37.71875 1 
Q 33.40625 -1.421875 27.6875 -1.421875 
Q 18.265625 -1.421875 13.375 4.4375 
Q 8.5 10.296875 8.5 21.578125 
z
M 31.109375 56 
z
" id="DejaVuSans-75"/>
     </defs>
     <g transform="translate(188.782813 280.276563)scale(0.1 -0.1)">
      <use xlink:href="#DejaVuSans-54"/>
      <use x="60.818359" xlink:href="#DejaVuSans-65"/>
      <use x="122.341797" xlink:href="#DejaVuSans-6d"/>
      <use x="219.753906" xlink:href="#DejaVuSans-70"/>
      <use x="283.230469" xlink:href="#DejaVuSans-65"/>
      <use x="344.753906" xlink:href="#DejaVuSans-72"/>
      <use x="385.867188" xlink:href="#DejaVuSans-61"/>
      <use x="447.146484" xlink:href="#DejaVuSans-74"/>
      <use x="486.355469" xlink:href="#DejaVuSans-75"/>
      <use x="549.734375" xlink:href="#DejaVuSans-72"/>
      <use x="590.816406" xlink:href="#DejaVuSans-65"/>
     </g>
    </g>
   </g>
   <g id="matplotlib.axis_2">
    <g id="ytick_1">
     <g id="line2d_6">
      <defs>
       <path d="M 0 0 
L -3.5 0 
" id="mb7daffe375" style="stroke:#000000;stroke-width:0.8;"/>
      </defs>
      <g>
       <use style="stroke:#000000;stroke-width:0.8;" x="54" xlink:href="#mb7daffe375" y="244.255916"/>
      </g>
     </g>
     <g id="text_7">
      <!-- 20 -->
      <g transform="translate(34.275 248.055135)scale(0.1 -0.1)">
       <use xlink:href="#DejaVuSans-32"/>
       <use x="63.623047" xlink:href="#DejaVuSans-30"/>
      </g>
     </g>
    </g>
    <g id="ytick_2">
     <g id="line2d_7">
      <g>
       <use style="stroke:#000000;stroke-width:0.8;" x="54" xlink:href="#mb7daffe375" y="210.013397"/>
      </g>
     </g>
     <g id="text_8">
      <!-- 22 -->
      <g transform="translate(34.275 213.812615)scale(0.1 -0.1)">
       <use xlink:href="#DejaVuSans-32"/>
       <use x="63.623047" xlink:href="#DejaVuSans-32"/>
      </g>
     </g>
    </g>
    <g id="ytick_3">
     <g id="line2d_8">
      <g>
       <use style="stroke:#000000;stroke-width:0.8;" x="54" xlink:href="#mb7daffe375" y="175.770877"/>
      </g>
     </g>
     <g id="text_9">
      <!-- 24 -->
      <g transform="translate(34.275 179.570096)scale(0.1 -0.1)">
       <use xlink:href="#DejaVuSans-32"/>
       <use x="63.623047" xlink:href="#DejaVuSans-34"/>
      </g>
     </g>
    </g>
    <g id="ytick_4">
     <g id="line2d_9">
      <g>
       <use style="stroke:#000000;stroke-width:0.8;" x="54" xlink:href="#mb7daffe375" y="141.528357"/>
      </g>
     </g>
     <g id="text_10">
      <!-- 26 -->
      <g transform="translate(34.275 145.327576)scale(0.1 -0.1)">
       <use xlink:href="#DejaVuSans-32"/>
       <use x="63.623047" xlink:href="#DejaVuSans-36"/>
      </g>
     </g>
    </g>
    <g id="ytick_5">
     <g id="line2d_10">
      <g>
       <use style="stroke:#000000;stroke-width:0.8;" x="54" xlink:href="#mb7daffe375" y="107.285838"/>
      </g>
     </g>
     <g id="text_11">
      <!-- 28 -->
      <g transform="translate(34.275 111.085056)scale(0.1 -0.1)">
       <use xlink:href="#DejaVuSans-32"/>
       <use x="63.623047" xlink:href="#DejaVuSans-38"/>
      </g>
     </g>
    </g>
    <g id="ytick_6">
     <g id="line2d_11">
      <g>
       <use style="stroke:#000000;stroke-width:0.8;" x="54" xlink:href="#mb7daffe375" y="73.043318"/>
      </g>
     </g>
     <g id="text_12">
      <!-- 30 -->
      <defs>
       <path d="M 40.578125 39.3125 
Q 47.65625 37.796875 51.625 33 
Q 55.609375 28.21875 55.609375 21.1875 
Q 55.609375 10.40625 48.1875 4.484375 
Q 40.765625 -1.421875 27.09375 -1.421875 
Q 22.515625 -1.421875 17.65625 -0.515625 
Q 12.796875 0.390625 7.625 2.203125 
L 7.625 11.71875 
Q 11.71875 9.328125 16.59375 8.109375 
Q 21.484375 6.890625 26.8125 6.890625 
Q 36.078125 6.890625 40.9375 10.546875 
Q 45.796875 14.203125 45.796875 21.1875 
Q 45.796875 27.640625 41.28125 31.265625 
Q 36.765625 34.90625 28.71875 34.90625 
L 20.21875 34.90625 
L 20.21875 43.015625 
L 29.109375 43.015625 
Q 36.375 43.015625 40.234375 45.921875 
Q 44.09375 48.828125 44.09375 54.296875 
Q 44.09375 59.90625 40.109375 62.90625 
Q 36.140625 65.921875 28.71875 65.921875 
Q 24.65625 65.921875 20.015625 65.03125 
Q 15.375 64.15625 9.8125 62.3125 
L 9.8125 71.09375 
Q 15.4375 72.65625 20.34375 73.4375 
Q 25.25 74.21875 29.59375 74.21875 
Q 40.828125 74.21875 47.359375 69.109375 
Q 53.90625 64.015625 53.90625 55.328125 
Q 53.90625 49.265625 50.4375 45.09375 
Q 46.96875 40.921875 40.578125 39.3125 
z
" id="DejaVuSans-33"/>
      </defs>
      <g transform="translate(34.275 76.842537)scale(0.1 -0.1)">
       <use xlink:href="#DejaVuSans-33"/>
       <use x="63.623047" xlink:href="#DejaVuSans-30"/>
      </g>
     </g>
    </g>
    <g id="ytick_7">
     <g id="line2d_12">
      <g>
       <use style="stroke:#000000;stroke-width:0.8;" x="54" xlink:href="#mb7daffe375" y="38.800798"/>
      </g>
     </g>
     <g id="text_13">
      <!-- 32 -->
      <g transform="translate(34.275 42.600017)scale(0.1 -0.1)">
       <use xlink:href="#DejaVuSans-33"/>
       <use x="63.623047" xlink:href="#DejaVuSans-32"/>
      </g>
     </g>
    </g>
    <g id="text_14">
     <!-- Humidity -->
     <defs>
      <path d="M 9.8125 72.90625 
L 19.671875 72.90625 
L 19.671875 43.015625 
L 55.515625 43.015625 
L 55.515625 72.90625 
L 65.375 72.90625 
L 65.375 0 
L 55.515625 0 
L 55.515625 34.71875 
L 19.671875 34.71875 
L 19.671875 0 
L 9.8125 0 
z
" id="DejaVuSans-48"/>
      <path d="M 9.421875 54.6875 
L 18.40625 54.6875 
L 18.40625 0 
L 9.421875 0 
z
M 9.421875 75.984375 
L 18.40625 75.984375 
L 18.40625 64.59375 
L 9.421875 64.59375 
z
" id="DejaVuSans-69"/>
      <path d="M 45.40625 46.390625 
L 45.40625 75.984375 
L 54.390625 75.984375 
L 54.390625 0 
L 45.40625 0 
L 45.40625 8.203125 
Q 42.578125 3.328125 38.25 0.953125 
Q 33.9375 -1.421875 27.875 -1.421875 
Q 17.96875 -1.421875 11.734375 6.484375 
Q 5.515625 14.40625 5.515625 27.296875 
Q 5.515625 40.1875 11.734375 48.09375 
Q 17.96875 56 27.875 56 
Q 33.9375 56 38.25 53.625 
Q 42.578125 51.265625 45.40625 46.390625 
z
M 14.796875 27.296875 
Q 14.796875 17.390625 18.875 11.75 
Q 22.953125 6.109375 30.078125 6.109375 
Q 37.203125 6.109375 41.296875 11.75 
Q 45.40625 17.390625 45.40625 27.296875 
Q 45.40625 37.203125 41.296875 42.84375 
Q 37.203125 48.484375 30.078125 48.484375 
Q 22.953125 48.484375 18.875 42.84375 
Q 14.796875 37.203125 14.796875 27.296875 
z
" id="DejaVuSans-64"/>
      <path d="M 32.171875 -5.078125 
Q 28.375 -14.84375 24.75 -17.8125 
Q 21.140625 -20.796875 15.09375 -20.796875 
L 7.90625 -20.796875 
L 7.90625 -13.28125 
L 13.1875 -13.28125 
Q 16.890625 -13.28125 18.9375 -11.515625 
Q 21 -9.765625 23.484375 -3.21875 
L 25.09375 0.875 
L 2.984375 54.6875 
L 12.5 54.6875 
L 29.59375 11.921875 
L 46.6875 54.6875 
L 56.203125 54.6875 
z
" id="DejaVuSans-79"/>
     </defs>
     <g transform="translate(28.195312 165.951094)rotate(-90)scale(0.1 -0.1)">
      <use xlink:href="#DejaVuSans-48"/>
      <use x="75.195312" xlink:href="#DejaVuSans-75"/>
      <use x="138.574219" xlink:href="#DejaVuSans-6d"/>
      <use x="235.986328" xlink:href="#DejaVuSans-69"/>
      <use x="263.769531" xlink:href="#DejaVuSans-64"/>
      <use x="327.246094" xlink:href="#DejaVuSans-69"/>
      <use x="355.029297" xlink:href="#DejaVuSans-74"/>
      <use x="394.238281" xlink:href="#DejaVuSans-79"/>
     </g>
    </g>
   </g>
   <g id="patch_3">
    <path d="M 54 252 
L 54 34.56 
" style="fill:none;stroke:#000000;stroke-linecap:square;stroke-linejoin:miter;stroke-width:0.8;"/>
   </g>
   <g id="patch_4">
    <path d="M 388.8 252 
L 388.8 34.56 
" style="fill:none;stroke:#000000;stroke-linecap:square;stroke-linejoin:miter;stroke-width:0.8;"/>
   </g>
   <g id="patch_5">
    <path d="M 54 252 
L 388.8 252 
" style="fill:none;stroke:#000000;stroke-linecap:square;stroke-linejoin:miter;stroke-width:0.8;"/>
   </g>
   <g id="patch_6">
    <path d="M 54 34.56 
L 388.8 34.56 
" style="fill:none;stroke:#000000;stroke-linecap:square;stroke-linejoin:miter;stroke-width:0.8;"/>
   </g>
   <g id="text_15">
    <!-- Decision Tree -->
    <defs>
     <path d="M 19.671875 64.796875 
L 19.671875 8.109375 
L 31.59375 8.109375 
Q 46.6875 8.109375 53.6875 14.9375 
Q 60.6875 21.78125 60.6875 36.53125 
Q 60.6875 51.171875 53.6875 57.984375 
Q 46.6875 64.796875 31.59375 64.796875 
z
M 9.8125 72.90625 
L 30.078125 72.90625 
Q 51.265625 72.90625 61.171875 64.09375 
Q 71.09375 55.28125 71.09375 36.53125 
Q 71.09375 17.671875 61.125 8.828125 
Q 51.171875 0 30.078125 0 
L 9.8125 0 
z
" id="DejaVuSans-44"/>
     <path d="M 48.78125 52.59375 
L 48.78125 44.1875 
Q 44.96875 46.296875 41.140625 47.34375 
Q 37.3125 48.390625 33.40625 48.390625 
Q 24.65625 48.390625 19.8125 42.84375 
Q 14.984375 37.3125 14.984375 27.296875 
Q 14.984375 17.28125 19.8125 11.734375 
Q 24.65625 6.203125 33.40625 6.203125 
Q 37.3125 6.203125 41.140625 7.25 
Q 44.96875 8.296875 48.78125 10.40625 
L 48.78125 2.09375 
Q 45.015625 0.34375 40.984375 -0.53125 
Q 36.96875 -1.421875 32.421875 -1.421875 
Q 20.0625 -1.421875 12.78125 6.34375 
Q 5.515625 14.109375 5.515625 27.296875 
Q 5.515625 40.671875 12.859375 48.328125 
Q 20.21875 56 33.015625 56 
Q 37.15625 56 41.109375 55.140625 
Q 45.0625 54.296875 48.78125 52.59375 
z
" id="DejaVuSans-63"/>
     <path d="M 44.28125 53.078125 
L 44.28125 44.578125 
Q 40.484375 46.53125 36.375 47.5 
Q 32.28125 48.484375 27.875 48.484375 
Q 21.1875 48.484375 17.84375 46.4375 
Q 14.5 44.390625 14.5 40.28125 
Q 14.5 37.15625 16.890625 35.375 
Q 19.28125 33.59375 26.515625 31.984375 
L 29.59375 31.296875 
Q 39.15625 29.25 43.1875 25.515625 
Q 47.21875 21.78125 47.21875 15.09375 
Q 47.21875 7.46875 41.1875 3.015625 
Q 35.15625 -1.421875 24.609375 -1.421875 
Q 20.21875 -1.421875 15.453125 -0.5625 
Q 10.6875 0.296875 5.421875 2 
L 5.421875 11.28125 
Q 10.40625 8.6875 15.234375 7.390625 
Q 20.0625 6.109375 24.8125 6.109375 
Q 31.15625 6.109375 34.5625 8.28125 
Q 37.984375 10.453125 37.984375 14.40625 
Q 37.984375 18.0625 35.515625 20.015625 
Q 33.0625 21.96875 24.703125 23.78125 
L 21.578125 24.515625 
Q 13.234375 26.265625 9.515625 29.90625 
Q 5.8125 33.546875 5.8125 39.890625 
Q 5.8125 47.609375 11.28125 51.796875 
Q 16.75 56 26.8125 56 
Q 31.78125 56 36.171875 55.265625 
Q 40.578125 54.546875 44.28125 53.078125 
z
" id="DejaVuSans-73"/>
     <path d="M 30.609375 48.390625 
Q 23.390625 48.390625 19.1875 42.75 
Q 14.984375 37.109375 14.984375 27.296875 
Q 14.984375 17.484375 19.15625 11.84375 
Q 23.34375 6.203125 30.609375 6.203125 
Q 37.796875 6.203125 41.984375 11.859375 
Q 46.1875 17.53125 46.1875 27.296875 
Q 46.1875 37.015625 41.984375 42.703125 
Q 37.796875 48.390625 30.609375 48.390625 
z
M 30.609375 56 
Q 42.328125 56 49.015625 48.375 
Q 55.71875 40.765625 55.71875 27.296875 
Q 55.71875 13.875 49.015625 6.21875 
Q 42.328125 -1.421875 30.609375 -1.421875 
Q 18.84375 -1.421875 12.171875 6.21875 
Q 5.515625 13.875 5.515625 27.296875 
Q 5.515625 40.765625 12.171875 48.375 
Q 18.84375 56 30.609375 56 
z
" id="DejaVuSans-6f"/>
     <path d="M 54.890625 33.015625 
L 54.890625 0 
L 45.90625 0 
L 45.90625 32.71875 
Q 45.90625 40.484375 42.875 44.328125 
Q 39.84375 48.1875 33.796875 48.1875 
Q 26.515625 48.1875 22.3125 43.546875 
Q 18.109375 38.921875 18.109375 30.90625 
L 18.109375 0 
L 9.078125 0 
L 9.078125 54.6875 
L 18.109375 54.6875 
L 18.109375 46.1875 
Q 21.34375 51.125 25.703125 53.5625 
Q 30.078125 56 35.796875 56 
Q 45.21875 56 50.046875 50.171875 
Q 54.890625 44.34375 54.890625 33.015625 
z
" id="DejaVuSans-6e"/>
     <path id="DejaVuSans-20"/>
    </defs>
    <g transform="translate(180.449062 28.56)scale(0.12 -0.12)">
     <use xlink:href="#DejaVuSans-44"/>
     <use x="77.001953" xlink:href="#DejaVuSans-65"/>
     <use x="138.525391" xlink:href="#DejaVuSans-63"/>
     <use x="193.505859" xlink:href="#DejaVuSans-69"/>
     <use x="221.289062" xlink:href="#DejaVuSans-73"/>
     <use x="273.388672" xlink:href="#DejaVuSans-69"/>
     <use x="301.171875" xlink:href="#DejaVuSans-6f"/>
     <use x="362.353516" xlink:href="#DejaVuSans-6e"/>
     <use x="425.732422" xlink:href="#DejaVuSans-20"/>
     <use x="457.519531" xlink:href="#DejaVuSans-54"/>
     <use x="518.384766" xlink:href="#DejaVuSans-72"/>
     <use x="559.466797" xlink:href="#DejaVuSans-65"/>
     <use x="620.990234" xlink:href="#DejaVuSans-65"/>
    </g>
   </g>
   <g id="legend_1">
    <g id="patch_7">
     <path d="M 61 71.91625 
L 160.532813 71.91625 
Q 162.532813 71.91625 162.532813 69.91625 
L 162.532813 41.56 
Q 162.532813 39.56 160.532813 39.56 
L 61 39.56 
Q 59 39.56 59 41.56 
L 59 69.91625 
Q 59 71.91625 61 71.91625 
z
" style="fill:#ffffff;opacity:0.8;stroke:#cccccc;stroke-linejoin:miter;"/>
    </g>
    <g id="PathCollection_10">
     <g>
      <use style="fill:#0000ff;stroke:#0000ff;" x="73" xlink:href="#me3027a4afb" y="48.533437"/>
     </g>
    </g>
    <g id="text_16">
     <!-- Not Occupied -->
     <defs>
      <path d="M 9.8125 72.90625 
L 23.09375 72.90625 
L 55.421875 11.921875 
L 55.421875 72.90625 
L 64.984375 72.90625 
L 64.984375 0 
L 51.703125 0 
L 19.390625 60.984375 
L 19.390625 0 
L 9.8125 0 
z
" id="DejaVuSans-4e"/>
      <path d="M 39.40625 66.21875 
Q 28.65625 66.21875 22.328125 58.203125 
Q 16.015625 50.203125 16.015625 36.375 
Q 16.015625 22.609375 22.328125 14.59375 
Q 28.65625 6.59375 39.40625 6.59375 
Q 50.140625 6.59375 56.421875 14.59375 
Q 62.703125 22.609375 62.703125 36.375 
Q 62.703125 50.203125 56.421875 58.203125 
Q 50.140625 66.21875 39.40625 66.21875 
z
M 39.40625 74.21875 
Q 54.734375 74.21875 63.90625 63.9375 
Q 73.09375 53.65625 73.09375 36.375 
Q 73.09375 19.140625 63.90625 8.859375 
Q 54.734375 -1.421875 39.40625 -1.421875 
Q 24.03125 -1.421875 14.8125 8.828125 
Q 5.609375 19.09375 5.609375 36.375 
Q 5.609375 53.65625 14.8125 63.9375 
Q 24.03125 74.21875 39.40625 74.21875 
z
" id="DejaVuSans-4f"/>
     </defs>
     <g transform="translate(91 51.158437)scale(0.1 -0.1)">
      <use xlink:href="#DejaVuSans-4e"/>
      <use x="74.804688" xlink:href="#DejaVuSans-6f"/>
      <use x="135.986328" xlink:href="#DejaVuSans-74"/>
      <use x="175.195312" xlink:href="#DejaVuSans-20"/>
      <use x="206.982422" xlink:href="#DejaVuSans-4f"/>
      <use x="285.693359" xlink:href="#DejaVuSans-63"/>
      <use x="340.673828" xlink:href="#DejaVuSans-63"/>
      <use x="395.654297" xlink:href="#DejaVuSans-75"/>
      <use x="459.033203" xlink:href="#DejaVuSans-70"/>
      <use x="522.509766" xlink:href="#DejaVuSans-69"/>
      <use x="550.292969" xlink:href="#DejaVuSans-65"/>
      <use x="611.816406" xlink:href="#DejaVuSans-64"/>
     </g>
    </g>
    <g id="PathCollection_11">
     <g>
      <use style="fill:#00ff80;stroke:#00ff80;" x="73" xlink:href="#mbd3af51add" y="63.211562"/>
     </g>
    </g>
    <g id="text_17">
     <!-- Occupied -->
     <g transform="translate(91 65.836562)scale(0.1 -0.1)">
      <use xlink:href="#DejaVuSans-4f"/>
      <use x="78.710938" xlink:href="#DejaVuSans-63"/>
      <use x="133.691406" xlink:href="#DejaVuSans-63"/>
      <use x="188.671875" xlink:href="#DejaVuSans-75"/>
      <use x="252.050781" xlink:href="#DejaVuSans-70"/>
      <use x="315.527344" xlink:href="#DejaVuSans-69"/>
      <use x="343.310547" xlink:href="#DejaVuSans-65"/>
      <use x="404.833984" xlink:href="#DejaVuSans-64"/>
     </g>
    </g>
   </g>
  </g>
 </g>
 <defs>
  <clipPath id="pfc14ed3a44">
   <rect height="217.44" width="334.8" x="54" y="34.56"/>
  </clipPath>
 </defs>
</svg>
